# Rhino

g object_1
v 6 7 -18
v 6 17 -18
v 4 7 -18
v 4 17 -18
v 4 7 -4
v 4 17 -4
v 10 7 -4
v 10 17 -4
v 10 7 -6
v 10 17 -6
v 6 7 -6
v 6 17 -6
f 5 3 1 11 9 7
f 4 6 8 10 12 2
f 1 3 4 2
f 3 5 6 4
f 5 7 8 6
f 7 9 10 8
f 9 11 12 10
f 11 1 2 12
g object_2
v 21 7 -18
v 21 17 -18
v 19 7 -18
v 19 17 -18
v 19 7 -6
v 19 17 -6
v 15 7 -6
v 15 17 -6
v 15 7 -4
v 15 17 -4
v 21 7 -4
v 21 17 -4
f 19 17 15 13 23 21
f 20 22 24 14 16 18
f 13 15 16 14
f 15 17 18 16
f 17 19 20 18
f 19 21 22 20
f 21 23 24 22
f 23 13 14 24
g object_3
v 10 5 -1
v 10 17 -1
v 15 5 -1
v 15 17 -1
v 15 5 -9
v 15 17 -9
v 10 5 -9
v 10 17 -9
f 27 25 31 29
f 32 26 28 30
f 25 27 28 26
f 27 29 30 28
f 29 31 32 30
f 31 25 26 32
g object_4
v 1 5 -18
v 1 17 -18
v 9 5 -18
v 9 17 -18
v 9 5 -23
v 9 17 -23
v 1 5 -23
v 1 17 -23
f 35 33 39 37
f 40 34 36 38
f 33 35 36 34
f 35 37 38 36
f 37 39 40 38
f 39 33 34 40
g object_5
v 16 5 -18
v 16 17 -18
v 24 5 -18
v 24 17 -18
v 24 5 -23
v 24 17 -23
v 16 5 -23
v 16 17 -23
f 43 41 47 45
f 48 42 44 46
f 41 43 44 42
f 43 45 46 44
f 45 47 48 46
f 47 41 42 48
