# Rhino

g object_1
v 15 0 -10
v 15 5 -10
v 20 0 -10
v 20 5 -10
v 20 0 -15
v 20 5 -15
v 15 0 -15
v 15 5 -15
f 7 5 3 1
f 4 6 8 2
f 1 3 4 2
f 3 5 6 4
f 5 7 8 6
f 7 1 2 8
g object_2
v 20 0 -20
v 20 5 -20
v 25 0 -20
v 25 5 -20
v 25 0 -25
v 25 5 -25
v 20 0 -25
v 20 5 -25
f 15 13 11 9
f 12 14 16 10
f 9 11 12 10
f 11 13 14 12
f 13 15 16 14
f 15 9 10 16
g object_3
v 15 0 -20
v 15 5 -20
v 20 0 -20
v 20 5 -20
v 20 0 -25
v 20 5 -25
v 15 0 -25
v 15 5 -25
f 23 21 19 17
f 20 22 24 18
f 17 19 20 18
f 19 21 22 20
f 21 23 24 22
f 23 17 18 24
g object_4
v 10 0 -20
v 10 5 -20
v 15 0 -20
v 15 5 -20
v 15 0 -25
v 15 5 -25
v 10 0 -25
v 10 5 -25
f 31 29 27 25
f 28 30 32 26
f 25 27 28 26
f 27 29 30 28
f 29 31 32 30
f 31 25 26 32
g object_5
v 5 0 -20
v 5 5 -20
v 10 0 -20
v 10 5 -20
v 10 0 -25
v 10 5 -25
v 5 0 -25
v 5 5 -25
f 39 37 35 33
f 36 38 40 34
f 33 35 36 34
f 35 37 38 36
f 37 39 40 38
f 39 33 34 40
g object_6
v 0 0 -20
v 0 5 -20
v 5 0 -20
v 5 5 -20
v 5 0 -25
v 5 5 -25
v 0 0 -25
v 0 5 -25
f 47 45 43 41
f 44 46 48 42
f 41 43 44 42
f 43 45 46 44
f 45 47 48 46
f 47 41 42 48
g object_7
v 0 0 -15
v 0 5 -15
v 5 0 -15
v 5 5 -15
v 5 0 -20
v 5 5 -20
v 0 0 -20
v 0 5 -20
f 55 53 51 49
f 52 54 56 50
f 49 51 52 50
f 51 53 54 52
f 53 55 56 54
f 55 49 50 56
g object_8
v 5 0 -15
v 5 5 -15
v 10 0 -15
v 10 5 -15
v 10 0 -20
v 10 5 -20
v 5 0 -20
v 5 5 -20
f 63 61 59 57
f 60 62 64 58
f 57 59 60 58
f 59 61 62 60
f 61 63 64 62
f 63 57 58 64
g object_9
v 10 0 -15
v 10 5 -15
v 15 0 -15
v 15 5 -15
v 15 0 -20
v 15 5 -20
v 10 0 -20
v 10 5 -20
f 71 69 67 65
f 68 70 72 66
f 65 67 68 66
f 67 69 70 68
f 69 71 72 70
f 71 65 66 72
g object_10
v 15 0 -15
v 15 5 -15
v 20 0 -15
v 20 5 -15
v 20 0 -20
v 20 5 -20
v 15 0 -20
v 15 5 -20
f 79 77 75 73
f 76 78 80 74
f 73 75 76 74
f 75 77 78 76
f 77 79 80 78
f 79 73 74 80
g object_11
v 20 0 -15
v 20 5 -15
v 25 0 -15
v 25 5 -15
v 25 0 -20
v 25 5 -20
v 20 0 -20
v 20 5 -20
f 87 85 83 81
f 84 86 88 82
f 81 83 84 82
f 83 85 86 84
f 85 87 88 86
f 87 81 82 88
g object_12
v 20 0 -10
v 20 5 -10
v 25 0 -10
v 25 5 -10
v 25 0 -15
v 25 5 -15
v 20 0 -15
v 20 5 -15
f 95 93 91 89
f 92 94 96 90
f 89 91 92 90
f 91 93 94 92
f 93 95 96 94
f 95 89 90 96
g object_13
v 10 0 -10
v 10 5 -10
v 15 0 -10
v 15 5 -10
v 15 0 -15
v 15 5 -15
v 10 0 -15
v 10 5 -15
f 103 101 99 97
f 100 102 104 98
f 97 99 100 98
f 99 101 102 100
f 101 103 104 102
f 103 97 98 104
g object_14
v 5 0 -10
v 5 5 -10
v 10 0 -10
v 10 5 -10
v 10 0 -15
v 10 5 -15
v 5 0 -15
v 5 5 -15
f 111 109 107 105
f 108 110 112 106
f 105 107 108 106
f 107 109 110 108
f 109 111 112 110
f 111 105 106 112
g object_15
v 0 0 -10
v 0 5 -10
v 5 0 -10
v 5 5 -10
v 5 0 -15
v 5 5 -15
v 0 0 -15
v 0 5 -15
f 119 117 115 113
f 116 118 120 114
f 113 115 116 114
f 115 117 118 116
f 117 119 120 118
f 119 113 114 120
g object_16
v 0 0 -5
v 0 5 -5
v 5 0 -5
v 5 5 -5
v 5 0 -10
v 5 5 -10
v 0 0 -10
v 0 5 -10
f 127 125 123 121
f 124 126 128 122
f 121 123 124 122
f 123 125 126 124
f 125 127 128 126
f 127 121 122 128
g object_17
v 5 0 -5
v 5 5 -5
v 10 0 -5
v 10 5 -5
v 10 0 -10
v 10 5 -10
v 5 0 -10
v 5 5 -10
f 135 133 131 129
f 132 134 136 130
f 129 131 132 130
f 131 133 134 132
f 133 135 136 134
f 135 129 130 136
g object_18
v 10 0 -5
v 10 5 -5
v 15 0 -5
v 15 5 -5
v 15 0 -10
v 15 5 -10
v 10 0 -10
v 10 5 -10
f 143 141 139 137
f 140 142 144 138
f 137 139 140 138
f 139 141 142 140
f 141 143 144 142
f 143 137 138 144
g object_19
v 15 0 -5
v 15 5 -5
v 20 0 -5
v 20 5 -5
v 20 0 -10
v 20 5 -10
v 15 0 -10
v 15 5 -10
f 151 149 147 145
f 148 150 152 146
f 145 147 148 146
f 147 149 150 148
f 149 151 152 150
f 151 145 146 152
g object_20
v 20 0 -5
v 20 5 -5
v 25 0 -5
v 25 5 -5
v 25 0 -10
v 25 5 -10
v 20 0 -10
v 20 5 -10
f 159 157 155 153
f 156 158 160 154
f 153 155 156 154
f 155 157 158 156
f 157 159 160 158
f 159 153 154 160
g object_21
v 20 0 0
v 20 5 0
v 25 0 0
v 25 5 0
v 25 0 -5
v 25 5 -5
v 20 0 -5
v 20 5 -5
f 167 165 163 161
f 164 166 168 162
f 161 163 164 162
f 163 165 166 164
f 165 167 168 166
f 167 161 162 168
g object_22
v 15 0 0
v 15 5 0
v 20 0 0
v 20 5 0
v 20 0 -5
v 20 5 -5
v 15 0 -5
v 15 5 -5
f 175 173 171 169
f 172 174 176 170
f 169 171 172 170
f 171 173 174 172
f 173 175 176 174
f 175 169 170 176
g object_23
v 10 0 0
v 10 5 0
v 15 0 0
v 15 5 0
v 15 0 -5
v 15 5 -5
v 10 0 -5
v 10 5 -5
f 183 181 179 177
f 180 182 184 178
f 177 179 180 178
f 179 181 182 180
f 181 183 184 182
f 183 177 178 184
g object_24
v 5 0 0
v 5 5 0
v 10 0 0
v 10 5 0
v 10 0 -5
v 10 5 -5
v 5 0 -5
v 5 5 -5
f 191 189 187 185
f 188 190 192 186
f 185 187 188 186
f 187 189 190 188
f 189 191 192 190
f 191 185 186 192
g object_25
v 0 0 0
v 0 5 0
v 5 0 0
v 5 5 0
v 5 0 -5
v 5 5 -5
v 0 0 -5
v 0 5 -5
f 199 197 195 193
f 196 198 200 194
f 193 195 196 194
f 195 197 198 196
f 197 199 200 198
f 199 193 194 200
g object_26
v 21 0 -18
v 19 0 -18
v 19 0 -6
v 15 0 -6
v 15 0 -4
v 21 0 -4
l 201 202 203 204 205 206 201
g object_27
v 6 0 -18
v 4 0 -18
v 4 0 -4
v 10 0 -4
v 10 0 -6
v 6 0 -6
l 207 208 209 210 211 212 207
g object_28
v 0 0 -20
v 0 0 -25
v 5 0 -25
v 5 0 -20
l 213 214 215 216 213
g object_29
v 0 0 -15
v 0 0 -20
v 5 0 -20
v 5 0 -15
l 217 218 219 220 217
g object_30
v 0 0 -10
v 0 0 -15
v 5 0 -15
v 5 0 -10
l 221 222 223 224 221
g object_31
v 0 0 -5
v 0 0 -10
v 5 0 -10
v 5 0 -5
l 225 226 227 228 225
g object_32
v 0 0 0
v 0 0 -5
v 5 0 -5
v 5 0 0
l 229 230 231 232 229
