# Rhino

g object_1
v 6 12 -6
v 6 17 -6
v 10 12 -6
v 10 17 -6
v 10 12 -9
v 10 17 -9
v 6 12 -9
v 6 17 -9
f 3 1 7 5
f 8 2 4 6
f 1 3 4 2
f 3 5 6 4
f 5 7 8 6
f 7 1 2 8
g object_2
v 7 12 -1
v 7 17 -1
v 10 12 -1
v 10 17 -1
v 10 12 -4
v 10 17 -4
v 7 12 -4
v 7 17 -4
f 11 9 15 13
f 16 10 12 14
f 9 11 12 10
f 11 13 14 12
f 13 15 16 14
f 15 9 10 16
g object_3
v 4 12 -1
v 4 17 -1
v 7 12 -1
v 7 17 -1
v 7 12 -4
v 7 17 -4
v 4 12 -4
v 4 17 -4
f 19 17 23 21
f 24 18 20 22
f 17 19 20 18
f 19 21 22 20
f 21 23 24 22
f 23 17 18 24
g object_4
v 6 12 -9
v 6 17 -9
v 9 12 -9
v 9 17 -9
v 9 12 -12
v 9 17 -12
v 6 12 -12
v 6 17 -12
f 27 25 31 29
f 32 26 28 30
f 25 27 28 26
f 27 29 30 28
f 29 31 32 30
f 31 25 26 32
g object_5
v 6 12 -12
v 6 17 -12
v 9 12 -12
v 9 17 -12
v 9 12 -15
v 9 17 -15
v 6 12 -15
v 6 17 -15
f 35 33 39 37
f 40 34 36 38
f 33 35 36 34
f 35 37 38 36
f 37 39 40 38
f 39 33 34 40
g object_6
v 6 12 -15
v 6 17 -15
v 9 12 -15
v 9 17 -15
v 9 12 -18
v 9 17 -18
v 6 12 -18
v 6 17 -18
f 43 41 47 45
f 48 42 44 46
f 41 43 44 42
f 43 45 46 44
f 45 47 48 46
f 47 41 42 48
g object_7
v 1 12 -15
v 1 17 -15
v 4 12 -15
v 4 17 -15
v 4 12 -18
v 4 17 -18
v 1 12 -18
v 1 17 -18
f 51 49 55 53
f 56 50 52 54
f 49 51 52 50
f 51 53 54 52
f 53 55 56 54
f 55 49 50 56
g object_8
v 1 12 -12
v 1 17 -12
v 4 12 -12
v 4 17 -12
v 4 12 -15
v 4 17 -15
v 1 12 -15
v 1 17 -15
f 59 57 63 61
f 64 58 60 62
f 57 59 60 58
f 59 61 62 60
f 61 63 64 62
f 63 57 58 64
g object_9
v 1 12 -9
v 1 17 -9
v 4 12 -9
v 4 17 -9
v 4 12 -12
v 4 17 -12
v 1 12 -12
v 1 17 -12
f 67 65 71 69
f 72 66 68 70
f 65 67 68 66
f 67 69 70 68
f 69 71 72 70
f 71 65 66 72
g object_10
v 1 12 -6
v 1 17 -6
v 4 12 -6
v 4 17 -6
v 4 12 -9
v 4 17 -9
v 1 12 -9
v 1 17 -9
f 75 73 79 77
f 80 74 76 78
f 73 75 76 74
f 75 77 78 76
f 77 79 80 78
f 79 73 74 80
g object_11
v 1 12 -1
v 1 17 -1
v 4 12 -1
v 4 17 -1
v 4 12 -6
v 4 17 -6
v 1 12 -6
v 1 17 -6
f 83 81 87 85
f 88 82 84 86
f 81 83 84 82
f 83 85 86 84
f 85 87 88 86
f 87 81 82 88
g object_12
v 15 12 -6
v 15 17 -6
v 19 12 -6
v 19 17 -6
v 19 12 -9
v 19 17 -9
v 15 12 -9
v 15 17 -9
f 91 89 95 93
f 96 90 92 94
f 89 91 92 90
f 91 93 94 92
f 93 95 96 94
f 95 89 90 96
g object_13
v 16 12 -15
v 16 17 -15
v 19 12 -15
v 19 17 -15
v 19 12 -18
v 19 17 -18
v 16 12 -18
v 16 17 -18
f 99 97 103 101
f 104 98 100 102
f 97 99 100 98
f 99 101 102 100
f 101 103 104 102
f 103 97 98 104
g object_14
v 16 12 -12
v 16 17 -12
v 19 12 -12
v 19 17 -12
v 19 12 -15
v 19 17 -15
v 16 12 -15
v 16 17 -15
f 107 105 111 109
f 112 106 108 110
f 105 107 108 106
f 107 109 110 108
f 109 111 112 110
f 111 105 106 112
g object_15
v 16 12 -9
v 16 17 -9
v 19 12 -9
v 19 17 -9
v 19 12 -12
v 19 17 -12
v 16 12 -12
v 16 17 -12
f 115 113 119 117
f 120 114 116 118
f 113 115 116 114
f 115 117 118 116
f 117 119 120 118
f 119 113 114 120
g object_16
v 21 12 -1
v 21 17 -1
v 24 12 -1
v 24 17 -1
v 24 12 -6
v 24 17 -6
v 21 12 -6
v 21 17 -6
f 123 121 127 125
f 128 122 124 126
f 121 123 124 122
f 123 125 126 124
f 125 127 128 126
f 127 121 122 128
g object_17
v 21 12 -6
v 21 17 -6
v 24 12 -6
v 24 17 -6
v 24 12 -9
v 24 17 -9
v 21 12 -9
v 21 17 -9
f 131 129 135 133
f 136 130 132 134
f 129 131 132 130
f 131 133 134 132
f 133 135 136 134
f 135 129 130 136
g object_18
v 21 12 -9
v 21 17 -9
v 24 12 -9
v 24 17 -9
v 24 12 -12
v 24 17 -12
v 21 12 -12
v 21 17 -12
f 139 137 143 141
f 144 138 140 142
f 137 139 140 138
f 139 141 142 140
f 141 143 144 142
f 143 137 138 144
g object_19
v 21 12 -12
v 21 17 -12
v 24 12 -12
v 24 17 -12
v 24 12 -15
v 24 17 -15
v 21 12 -15
v 21 17 -15
f 147 145 151 149
f 152 146 148 150
f 145 147 148 146
f 147 149 150 148
f 149 151 152 150
f 151 145 146 152
g object_20
v 21 12 -15
v 21 17 -15
v 24 12 -15
v 24 17 -15
v 24 12 -18
v 24 17 -18
v 21 12 -18
v 21 17 -18
f 155 153 159 157
f 160 154 156 158
f 153 155 156 154
f 155 157 158 156
f 157 159 160 158
f 159 153 154 160
g object_21
v 15 12 -1
v 15 17 -1
v 18 12 -1
v 18 17 -1
v 18 12 -4
v 18 17 -4
v 15 12 -4
v 15 17 -4
f 163 161 167 165
f 168 162 164 166
f 161 163 164 162
f 163 165 166 164
f 165 167 168 166
f 167 161 162 168
g object_22
v 18 12 -1
v 18 17 -1
v 21 12 -1
v 21 17 -1
v 21 12 -4
v 21 17 -4
v 18 12 -4
v 18 17 -4
f 171 169 175 173
f 176 170 172 174
f 169 171 172 170
f 171 173 174 172
f 173 175 176 174
f 175 169 170 176
g object_23
v 18 7 -1
v 18 12 -1
v 21 7 -1
v 21 12 -1
v 21 7 -4
v 21 12 -4
v 18 7 -4
v 18 12 -4
f 179 177 183 181
f 184 178 180 182
f 177 179 180 178
f 179 181 182 180
f 181 183 184 182
f 183 177 178 184
g object_24
v 15 7 -1
v 15 12 -1
v 18 7 -1
v 18 12 -1
v 18 7 -4
v 18 12 -4
v 15 7 -4
v 15 12 -4
f 187 185 191 189
f 192 186 188 190
f 185 187 188 186
f 187 189 190 188
f 189 191 192 190
f 191 185 186 192
g object_25
v 21 7 -15
v 21 12 -15
v 24 7 -15
v 24 12 -15
v 24 7 -18
v 24 12 -18
v 21 7 -18
v 21 12 -18
f 195 193 199 197
f 200 194 196 198
f 193 195 196 194
f 195 197 198 196
f 197 199 200 198
f 199 193 194 200
g object_26
v 21 7 -12
v 21 12 -12
v 24 7 -12
v 24 12 -12
v 24 7 -15
v 24 12 -15
v 21 7 -15
v 21 12 -15
f 203 201 207 205
f 208 202 204 206
f 201 203 204 202
f 203 205 206 204
f 205 207 208 206
f 207 201 202 208
g object_27
v 21 7 -9
v 21 12 -9
v 24 7 -9
v 24 12 -9
v 24 7 -12
v 24 12 -12
v 21 7 -12
v 21 12 -12
f 211 209 215 213
f 216 210 212 214
f 209 211 212 210
f 211 213 214 212
f 213 215 216 214
f 215 209 210 216
g object_28
v 21 7 -6
v 21 12 -6
v 24 7 -6
v 24 12 -6
v 24 7 -9
v 24 12 -9
v 21 7 -9
v 21 12 -9
f 219 217 223 221
f 224 218 220 222
f 217 219 220 218
f 219 221 222 220
f 221 223 224 222
f 223 217 218 224
g object_29
v 21 7 -1
v 21 12 -1
v 24 7 -1
v 24 12 -1
v 24 7 -6
v 24 12 -6
v 21 7 -6
v 21 12 -6
f 227 225 231 229
f 232 226 228 230
f 225 227 228 226
f 227 229 230 228
f 229 231 232 230
f 231 225 226 232
g object_30
v 16 7 -9
v 16 12 -9
v 19 7 -9
v 19 12 -9
v 19 7 -12
v 19 12 -12
v 16 7 -12
v 16 12 -12
f 235 233 239 237
f 240 234 236 238
f 233 235 236 234
f 235 237 238 236
f 237 239 240 238
f 239 233 234 240
g object_31
v 16 7 -12
v 16 12 -12
v 19 7 -12
v 19 12 -12
v 19 7 -15
v 19 12 -15
v 16 7 -15
v 16 12 -15
f 243 241 247 245
f 248 242 244 246
f 241 243 244 242
f 243 245 246 244
f 245 247 248 246
f 247 241 242 248
g object_32
v 16 7 -15
v 16 12 -15
v 19 7 -15
v 19 12 -15
v 19 7 -18
v 19 12 -18
v 16 7 -18
v 16 12 -18
f 251 249 255 253
f 256 250 252 254
f 249 251 252 250
f 251 253 254 252
f 253 255 256 254
f 255 249 250 256
g object_33
v 15 7 -6
v 15 12 -6
v 19 7 -6
v 19 12 -6
v 19 7 -9
v 19 12 -9
v 15 7 -9
v 15 12 -9
f 259 257 263 261
f 264 258 260 262
f 257 259 260 258
f 259 261 262 260
f 261 263 264 262
f 263 257 258 264
g object_34
v 1 7 -1
v 1 12 -1
v 4 7 -1
v 4 12 -1
v 4 7 -6
v 4 12 -6
v 1 7 -6
v 1 12 -6
f 267 265 271 269
f 272 266 268 270
f 265 267 268 266
f 267 269 270 268
f 269 271 272 270
f 271 265 266 272
g object_35
v 1 7 -6
v 1 12 -6
v 4 7 -6
v 4 12 -6
v 4 7 -9
v 4 12 -9
v 1 7 -9
v 1 12 -9
f 275 273 279 277
f 280 274 276 278
f 273 275 276 274
f 275 277 278 276
f 277 279 280 278
f 279 273 274 280
g object_36
v 1 7 -9
v 1 12 -9
v 4 7 -9
v 4 12 -9
v 4 7 -12
v 4 12 -12
v 1 7 -12
v 1 12 -12
f 283 281 287 285
f 288 282 284 286
f 281 283 284 282
f 283 285 286 284
f 285 287 288 286
f 287 281 282 288
g object_37
v 1 7 -12
v 1 12 -12
v 4 7 -12
v 4 12 -12
v 4 7 -15
v 4 12 -15
v 1 7 -15
v 1 12 -15
f 291 289 295 293
f 296 290 292 294
f 289 291 292 290
f 291 293 294 292
f 293 295 296 294
f 295 289 290 296
g object_38
v 1 7 -15
v 1 12 -15
v 4 7 -15
v 4 12 -15
v 4 7 -18
v 4 12 -18
v 1 7 -18
v 1 12 -18
f 299 297 303 301
f 304 298 300 302
f 297 299 300 298
f 299 301 302 300
f 301 303 304 302
f 303 297 298 304
g object_39
v 6 7 -15
v 6 12 -15
v 9 7 -15
v 9 12 -15
v 9 7 -18
v 9 12 -18
v 6 7 -18
v 6 12 -18
f 307 305 311 309
f 312 306 308 310
f 305 307 308 306
f 307 309 310 308
f 309 311 312 310
f 311 305 306 312
g object_40
v 6 7 -12
v 6 12 -12
v 9 7 -12
v 9 12 -12
v 9 7 -15
v 9 12 -15
v 6 7 -15
v 6 12 -15
f 315 313 319 317
f 320 314 316 318
f 313 315 316 314
f 315 317 318 316
f 317 319 320 318
f 319 313 314 320
g object_41
v 6 7 -9
v 6 12 -9
v 9 7 -9
v 9 12 -9
v 9 7 -12
v 9 12 -12
v 6 7 -12
v 6 12 -12
f 323 321 327 325
f 328 322 324 326
f 321 323 324 322
f 323 325 326 324
f 325 327 328 326
f 327 321 322 328
g object_42
v 4 7 -1
v 4 12 -1
v 7 7 -1
v 7 12 -1
v 7 7 -4
v 7 12 -4
v 4 7 -4
v 4 12 -4
f 331 329 335 333
f 336 330 332 334
f 329 331 332 330
f 331 333 334 332
f 333 335 336 334
f 335 329 330 336
g object_43
v 7 7 -1
v 7 12 -1
v 10 7 -1
v 10 12 -1
v 10 7 -4
v 10 12 -4
v 7 7 -4
v 7 12 -4
f 339 337 343 341
f 344 338 340 342
f 337 339 340 338
f 339 341 342 340
f 341 343 344 342
f 343 337 338 344
g object_44
v 6 7 -6
v 6 12 -6
v 10 7 -6
v 10 12 -6
v 10 7 -9
v 10 12 -9
v 6 7 -9
v 6 12 -9
f 347 345 351 349
f 352 346 348 350
f 345 347 348 346
f 347 349 350 348
f 349 351 352 350
f 351 345 346 352
