# Rhino

g object_1
v 43.437717437744141 0 -34.700519561767578
v 43.130657196044922 0 -46.245929718017578
v 45.034423828125 0 -34.700519561767578
v 45.034423828125 0 -40.473224639892578
v 45.034423828125 0 -46.245929718017578
v 43.233013153076172 0 -42.3974609375
v 43.335365295410156 0 -38.548992156982422
v 37.434654235839844 0 -51.872501373291016
v 43.130657196044922 0 -76.706153869628906
v 37.434654235839844 0 -60.838615417480469
v 40.282657623291016 0 -49.059215545654297
v 40.282657623291016 0 -68.772384643554688
v 33.151248931884766 0 -29.726169586181641
v 28.959440231323242 0 -37.770145416259766
v 37.219779968261719 0 -29.726169586181641
v 41.288307189941406 0 -29.726169586181641
v 38.611625671386719 0 -35.723728179931641
v 33.785533905029297 0 -36.746936798095703
v 30.356710433959961 0 -35.088821411132812
v 31.75398063659668 0 -32.407493591308594
v 40.797012329101562 0 -26.594171524047852
v 38.524776458740234 0 -26.34852409362793
v 41.288307189941406 0 -29.296287536621094
v 38.524776458740234 0 -29.296287536621094
v 41.042659759521484 0 -27.945228576660156
v 39.282188415527344 0 -26.43040657043457
v 40.039600372314453 0 -26.512289047241211
v 39.906543731689453 0 -29.296287536621094
v 38.524776458740234 0 -27.822406768798828
v 39.783718109130859 0 -27.883817672729492
v 43.437717437744141 0 -26.594171524047852
v 42.363010406494141 0 -27.945228576660156
v 37.434654235839844 0 -46.775325775146484
v 40.282657623291016 0 -46.510627746582031
v 34.609584808349609 0 -43.773597717285156
v 31.784511566162109 0 -40.771873474121094
v 37.434654235839844 0 -62.773082733154297
v 37.434654235839844 0 -72.998138427734375
v 37.434654235839844 0 -64.707557678222656
v 37.434654235839844 0 -63.740318298339844
v 37.434654235839844 0 -61.805850982666016
v 37.434654235839844 0 -68.85284423828125
v 38.858654022216797 0 -68.812614440917969
v 38.146656036376953 0 -68.832733154296875
v 37.434654235839844 0 -66.780197143554688
v 37.790653228759766 0 -66.286521911621094
v 37.790653228759766 0 -68.842788696289062
v 37.612655639648438 0 -66.533363342285156
v 38.146656036376953 0 -65.7928466796875
v 38.502655029296875 0 -68.822669982910156
v 37.968654632568359 0 -66.039688110351562
v 39.570655822753906 0 -68.792503356933594
v 38.502655029296875 0 -65.299171447753906
v 39.214656829833984 0 -68.802558898925781
v 38.324653625488281 0 -65.546012878417969
v 39.926654815673828 0 -68.782440185546875
v 38.680656433105469 0 -65.052337646484375
v 19.011131286621094 0 -72.998138427734375
v -0.47167941927909851 0 -76.706153869628906
v 21.329490661621094 0 -76.706153869628906
v 6.0225906372070312 0 -75.470146179199219
v 12.516860961914062 0 -74.234146118164062
v 51.206302642822266 0 -25.857229232788086
v 43.836894989013672 0 -17.566644668579102
v 51.206302642822266 0 -28.620758056640625
v 43.836894989013672 0 -28.620758056640625
v 47.521598815917969 0 -21.711936950683594
v 65.331001281738281 0 -25.857229232788086
v 65.331001281738281 0 -21.558408737182617
v 55.259479522705078 0 -21.558408737182617
v 42.117366790771484 0 -26.594171524047852
v 39.660896301269531 0 -26.34852409362793
v 40.797012329101562 0 -26.34852409362793
v 33.458309173583984 0 -27.822406768798828
v 33.458309173583984 0 -29.296287536621094
v 38.156307220458984 0 -23.339347839355469
v 38.156307220458984 0 -29.296287536621094
v 35.807308197021484 0 -25.580877304077148
v 37.127593994140625 0 -60.838615417480469
v 37.127593994140625 0 -64.707557678222656
v 37.127593994140625 0 -63.740318298339844
v 37.127593994140625 0 -62.773082733154297
v 37.127593994140625 0 -61.805850982666016
v 32.644538879394531 0 -60.040260314941406
v 37.127593994140625 0 -72.691078186035156
v 34.886066436767578 0 -72.691078186035156
v 32.644538879394531 0 -72.691078186035156
v 34.886066436767578 0 -62.373908996582031
v 37.127593994140625 0 -51.872501373291016
v 37.434654235839844 0 -48.003559112548828
v 40.282657623291016 0 -47.124744415283203
v 37.189006805419922 0 -51.098712921142578
v 37.250419616699219 0 -50.324924468994141
v 37.311832427978516 0 -49.551136016845703
v 37.373241424560547 0 -48.777347564697266
v 37.281124114990234 0 -51.872501373291016
v 37.127593994140625 0 -60.040260314941406
v 37.127593994140625 0 -60.439437866210938
v 32.644538879394531 0 -47.020973205566406
v 37.127593994140625 0 -59.610378265380859
v 32.644538879394531 0 -59.610378265380859
v 34.886066436767578 0 -49.446735382080078
v 37.127593994140625 0 -48.003559112548828
v 37.127593994140625 0 -50.905265808105469
v 37.127593994140625 0 -49.938030242919922
v 37.127593994140625 0 -48.970794677734375
v 37.127593994140625 0 -47.020973205566406
v 34.886066436767578 0 -47.020973205566406
v 37.127593994140625 0 -47.512264251708984
v 36.006832122802734 0 -48.479499816894531
v 33.458309173583984 0 -24.567583084106445
v 33.151248931884766 0 -27.822406768798828
v 35.807308197021484 0 -23.953466415405273
v 33.304779052734375 0 -26.19499397277832
v 33.304779052734375 0 -24.567583084106445
v 25.841957092285156 0 -27.243068695068359
v 33.151248931884766 0 -24.567583084106445
v 30.714818954467773 0 -27.629293441772461
v 28.278388977050781 0 -27.436180114746094
v 28.278388977050781 0 -26.351240158081055
v 30.714818954467773 0 -25.45941162109375
v 31.400691986083984 0 -26.050159454345703
v 33.458309173583984 0 -23.339347839355469
v 33.151248931884766 0 -21.681230545043945
v 25.841957092285156 0 -13.42542552947998
v 28.278388977050781 0 -16.177360534667969
v 30.714818954467773 0 -18.929296493530273
v 28.959440231323242 0 -32.611560821533203
v 30.356710433959961 0 -31.015174865722656
v 31.75398063659668 0 -29.418790817260742
v 65.331001281738281 0 -21.251348495483398
v 65.331001281738281 0 -6.6462826728820801
v 55.566535949707031 0 -21.251348495483398
v 55.566535949707031 0 -11.118411064147949
v 60.448772430419922 0 -8.8823471069335938
v 48.504188537597656 0 -17.566644668579102
v 48.504188537597656 0 -11.364058494567871
v 55.259479522705078 0 -11.118411064147949
v 51.881832122802734 0 -19.562526702880859
v 51.881832122802734 0 -11.24123477935791
v 44.205364227294922 0 -11.732528686523438
v 48.197128295898438 0 -11.732528686523438
v 48.197128295898438 0 -17.075349807739258
v 45.331245422363281 0 -11.732528686523438
v 46.457130432128906 0 -11.732528686523438
v 46.201248168945312 0 -14.403939247131348
v 44.205364227294922 0 -11.364058494567871
v 47.583011627197266 0 -11.364058494567871
v 47.583011627197266 0 -11.732528686523438
v 45.331245422363281 0 -11.364058494567871
v 46.457130432128906 0 -11.364058494567871
v 55.259479522705078 0 -7.3415889739990234
v 55.566535949707031 0 -7.3415889739990234
v 55.566535949707031 0 -8.2857942581176758
v 55.566535949707031 0 -9.2300004959106445
v 55.566535949707031 0 -10.174205780029297
v 55.259479522705078 0 -10.174205780029297
v 55.259479522705078 0 -9.2300004959106445
v 55.259479522705078 0 -8.2857942581176758
v 55.566535949707031 0 -6.6462826728820801
v 60.448772430419922 0 -6.6462826728820801
v 55.566535949707031 0 -6.9939360618591309
v 58.007652282714844 0 -7.9381413459777832
v 59.228214263916016 0 -8.4102439880371094
v 56.787094116210938 0 -8.584071159362793
v 57.397373199462891 0 -9.2922248840332031
v 55.259479522705078 0 -6.6462826728820801
v 51.881832122802734 0 -9.0051708221435547
v 55.259479522705078 0 -6.9939360618591309
v 49.732421875 0 -9.0051708221435547
v 48.043598175048828 0 -11.364058494567871
v 54.573017120361328 0 -6.3392238616943359
v 64.644546508789062 0 -5.2952241897583008
v 54.573017120361328 0 1.2144204378128052
v 61.573959350585938 0 1.2144204378128052
v 61.287368774414062 0 -5.6432242393493652
v 57.930194854736328 0 -5.9912242889404297
v 61.957782745361328 0 0.40071487426757812
v 62.341606140136719 0 -0.4129907488822937
v 62.725429534912109 0 -1.2266963720321655
v 63.1092529296875 0 -2.0404019355773926
v 63.493076324462891 0 -2.8541076183319092
v 63.876899719238281 0 -3.6678133010864258
v 64.260719299316406 0 -4.4815187454223633
v 58.073486328125 0 1.2144204378128052
v 54.573017120361328 0 -2.5624017715454102
v 58.841133117675781 0 -2.3014018535614014
v 59.823722839355469 0 1.2144204378128052
v 60.975193023681641 0 -2.1709020137786865
v 58.457309722900391 0 -0.5434907078742981
v 60.399459838867188 0 -0.4782407283782959
v 59.224956512451172 0 -4.0593132972717285
v 61.550930023193359 0 -3.863563060760498
v 33.396896362304688 0 -21.681230545043945
v 38.156307220458984 0 -22.970878601074219
v 33.458309173583984 0 -18.426408767700195
v 38.156307220458984 0 -17.566644668579102
v 33.417369842529297 0 -20.596290588378906
v 33.437839508056641 0 -19.511350631713867
v 35.807308197021484 0 -17.996526718139648
v 38.156307220458984 0 -20.268760681152344
v 36.569839477539062 0 -22.540996551513672
v 34.983367919921875 0 -22.111114501953125
v 33.458309173583984 0 -17.566644668579102
v 33.396896362304688 0 -22.970878601074219
v 36.569839477539062 0 -22.970878601074219
v 34.983367919921875 0 -22.970878601074219
v 29.496604919433594 0 -15.311800003051758
v 33.151248931884766 0 -17.198173522949219
v 33.151248931884766 0 -17.812292098999023
v 33.151248931884766 0 -20.596290588378906
v 35.791954040527344 0 -17.198173522949219
v 35.791954040527344 0 -14.281116485595703
v 35.791954040527344 0 -11.364058494567871
v 29.158622741699219 0 -12.738303184509277
v 32.475288391113281 0 -12.051180839538574
v 33.151248931884766 0 -18.426408767700195
v 33.151248931884766 0 -19.511350631713867
v 36.099014282226562 0 -11.732528686523438
v 36.099014282226562 0 -17.075349807739258
v 31.850673675537109 0 -6.6462826728820801
v 33.821315765380859 0 -9.0051708221435547
v 39.998661041259766 0 -11.364058494567871
v 43.555076599121094 0 -6.6462826728820801
v 43.027610778808594 0 -6.3392238616943359
v 39.281494140625 0 1.2144204378128052
v 38.022552490234375 0 -6.3392238616943359
v 36.149494171142578 0 -2.1939313411712646
v 33.017498016357422 0 -6.3392238616943359
v 33.017498016357422 0 -5.6022830009460449
v 41.154552459716797 0 -2.5624017715454102
v 50.335609436035156 0 1.2144204378128052
v 43.334671020507812 0 1.2144204378128052
v 52.270076751708984 0 -2.5624017715454102
v 43.334671020507812 0 -2.5624017715454102
v 54.204547882080078 0 -6.3392238616943359
v 43.334671020507812 0 -6.3392238616943359
v 32.214656829833984 0 -72.691078186035156
v 32.214656829833984 0 -46.775325775146484
v 27.915834426879883 0 -63.479320526123047
v 27.915834426879883 0 -63.172260284423828
v 30.781715393066406 0 -69.620491027832031
v 29.348773956298828 0 -66.549903869628906
v 32.214656829833984 0 -59.733203887939453
v 29.348773956298828 0 -57.706615447998047
v 30.781715393066406 0 -52.240970611572266
v 26.38054084777832 0 -63.479320526123047
v 26.38054084777832 0 -68.085197448730469
v 26.38054084777832 0 -72.691078186035156
v 22.406639099121094 0 -63.479320526123047
v 26.012069702148438 0 -63.479320526123047
v 26.012069702148438 0 -67.962379455566406
v 23.301389694213867 0 -63.479320526123047
v 24.196142196655273 0 -63.479320526123047
v 24.209354400634766 0 -65.720848083496094
v 25.090892791748047 0 -63.172260284423828
v 22.406639099121094 0 -63.172260284423828
v 25.090892791748047 0 -63.479320526123047
v 23.301389694213867 0 -63.172260284423828
v 24.196142196655273 0 -63.172260284423828
v 19.011131286621094 0 -72.691078186035156
v 26.073480606079102 0 -72.691078186035156
v 13.545485496520996 0 -68.269432067871094
v 26.073480606079102 0 -68.269432067871094
v 16.278308868408203 0 -70.480255126953125
v 27.35759162902832 0 -52.562080383300781
v 27.35759162902832 0 -55.939727783203125
v 27.35759162902832 0 -59.317371368408203
v 29.786123275756836 0 -49.668701171875
v 24.882114410400391 0 -61.244815826416016
v 26.503364562988281 0 -63.172260284423828
v 25.822298049926758 0 -52.869140625
v 20.909358978271484 0 -59.01031494140625
v 27.050533294677734 0 -52.869140625
v 27.050533294677734 0 -55.939727783203125
v 27.050533294677734 0 -59.01031494140625
v 22.547004699707031 0 -56.9632568359375
v 24.184650421142578 0 -54.91619873046875
v 22.014768600463867 0 -52.869140625
v 25.822298049926758 0 -52.562080383300781
v 25.822298049926758 0 -52.715610504150391
v 21.277828216552734 0 -56.9632568359375
v 21.646299362182617 0 -54.91619873046875
v 23.918533325195312 0 -52.715610504150391
v 26.589944839477539 0 -52.562080383300781
v 30.044511795043945 0 -40.771873474121094
v 31.129583358764648 0 -43.773597717285156
v 27.390869140625 0 -45.166114807128906
v 17.950336456298828 0 -63.479320526123047
v 23.324825286865234 0 -66.468025207519531
v 20.637580871582031 0 -64.973670959472656
v 20.178487777709961 0 -63.479320526123047
v 15.20360279083252 0 -72.691078186035156
v 15.20360279083252 0 -72.998138427734375
v 18.059247970581055 0 -72.998138427734375
v 17.107366561889648 0 -72.998138427734375
v 16.155485153198242 0 -72.998138427734375
v 16.155485153198242 0 -72.691078186035156
v 17.107366561889648 0 -72.691078186035156
v 18.059247970581055 0 -72.691078186035156
v 13.545485496520996 0 -67.962379455566406
v 14.313132286071777 0 -65.720848083496094
v 15.080779075622559 0 -63.479320526123047
v 16.037298202514648 0 -63.479320526123047
v 16.993818283081055 0 -63.479320526123047
v 15.080779075622559 0 -63.172260284423828
v 17.950336456298828 0 -63.172260284423828
v 16.037298202514648 0 -63.172260284423828
v 16.993818283081055 0 -63.172260284423828
v 12.317251205444336 0 -63.172260284423828
v 24.221839904785156 0 -60.602336883544922
v 21.086088180541992 0 -61.887298583984375
v 19.837421417236328 0 -61.244815826416016
v 13.699014663696289 0 -63.172260284423828
v 13.545485496520996 0 -72.691078186035156
v 14.374544143676758 0 -72.691078186035156
v 13.545485496520996 0 -70.480255126953125
v 15.32642650604248 0 -71.585670471191406
v 20.909358978271484 0 -52.869140625
v 19.343358993530273 0 -52.869140625
v 14.614654541015625 0 -59.01031494140625
v 20.602298736572266 0 -52.869140625
v 20.602298736572266 0 -59.01031494140625
v 16.979005813598633 0 -55.939727783203125
v 22.014768600463867 0 -52.562080383300781
v 24.329660415649414 0 -47.631435394287109
v 26.644550323486328 0 -42.700790405273438
v 14.614654541015625 0 -52.869140625
v 14.614654541015625 0 -55.939727783203125
v 16.579830169677734 0 -52.869140625
v 17.501007080078125 0 -52.869140625
v 18.422182083129883 0 -52.869140625
v 14.614654541015625 0 -57.475021362304688
v 16.057830810546875 0 -54.404434204101562
v 16.51841926574707 0 -55.172080993652344
v 19.343358993530273 0 -52.562080383300781
v 15.65865421295166 0 -52.562080383300781
v 15.65865421295166 0 -52.869140625
v 16.579830169677734 0 -52.562080383300781
v 17.501007080078125 0 -52.562080383300781
v 18.422182083129883 0 -52.562080383300781
v 14.614654541015625 0 -50.7197265625
v 16.979005813598633 0 -51.640903472900391
v 20.67906379699707 0 -52.562080383300781
v 19.396249771118164 0 -46.403202056884766
v 24.177845001220703 0 -42.086673736572266
v 34.824653625488281 0 -46.775325775146484
v 27.301322937011719 0 -32.611560821533203
v 28.130382537841797 0 -32.611560821533203
v 26.814868927001953 0 -30.822063446044922
v 26.328413009643555 0 -29.032566070556641
v 23.985088348388672 0 -32.980030059814453
v 28.652381896972656 0 -32.980030059814453
v 28.652381896972656 0 -35.2215576171875
v 28.652381896972656 0 -37.463088989257812
v 25.090499877929688 0 -32.980030059814453
v 26.195911407470703 0 -32.980030059814453
v 28.652381896972656 0 -36.342323303222656
v 26.318735122680664 0 -35.2215576171875
v 27.147794723510742 0 -34.100795745849609
v 26.733264923095703 0 -34.661174774169922
v 22.57261848449707 0 -32.980030059814453
v 22.57261848449707 0 -37.463088989257812
v 23.985088348388672 0 -32.611560821533203
v 27.301322937011719 0 -32.980030059814453
v 25.090499877929688 0 -32.611560821533203
v 26.195911407470703 0 -32.611560821533203
v 23.286111831665039 0 -29.927314758300781
v 20.730266571044922 0 -32.611560821533203
v 23.870542526245117 0 -4.1186709403991699
v 23.870542526245117 0 -5.6539645195007324
v 27.860607147216797 0 -1.3600075244903564
v 31.850673675537109 0 1.3986556529998779
v 29.190629959106445 0 -6.3155097961425781
v 26.530586242675781 0 -5.9847373962402344
v 23.870542526245117 0 -5.1421999931335449
v 23.870542526245117 0 -4.6304354667663574
v 25.865573883056641 0 -4.3206915855407715
v 25.865573883056641 0 -5.1113677024841309
v 24.868057250976562 0 -4.6035046577453613
v 24.868057250976562 0 -5.1907544136047363
v 23.870542526245117 0 -7.4349050521850586
v 24.85624885559082 0 -10.43016529083252
v 26.530586242675781 0 -7.1720309257507324
v 29.190629959106445 0 -6.9091567993164062
v 23.486776351928711 0 -5.6539645195007324
v 23.379247665405273 0 -4.1186709403991699
v 23.486776351928711 0 -6.990504264831543
v 21.652070999145508 0 -6.990504264831543
v 19.817365646362305 0 -6.990504264831543
v 23.415090560913086 0 -4.6304354667663574
v 23.450933456420898 0 -5.1421999931335449
v 20.734718322753906 0 -6.990504264831543
v 22.54254150390625 0 -5.9384112358093262
v 22.070425033569336 0 -5.7464995384216309
v 21.598306655883789 0 -5.5545878410339355
v 19.448896408081055 0 -7.4349050521850586
v 14.8154296875 0 -10.43016529083252
v 10.181962966918945 0 -13.42542552947998
v 20.730266571044922 0 -32.980030059814453
v 16.185798645019531 0 -37.463088989257812
v 22.265560150146484 0 -32.980030059814453
v 22.265560150146484 0 -37.463088989257812
v 18.458032608032227 0 -35.2215576171875
v 16.185798645019531 0 -32.980030059814453
v 18.560384750366211 0 -32.980030059814453
v 19.645326614379883 0 -32.980030059814453
v 9.614741325378418 0 -37.770145416259766
v 10.438655853271484 0 -46.666553497314453
v 12.526655197143555 0 -48.693141937255859
v 10.164017677307129 0 -43.701084136962891
v 9.8893795013427734 0 -40.735614776611328
v 19.287090301513672 0 -37.770145416259766
v 14.614654541015625 0 -52.562080383300781
v 15.878739356994629 0 -37.463088989257812
v 15.878739356994629 0 -35.2215576171875
v 15.878739356994629 0 -32.980030059814453
v 10.167447090148926 0 -36.848968505859375
v 14.527680397033691 0 -32.980030059814453
v 13.023093223571777 0 -37.156028747558594
v 12.347563743591309 0 -34.914501190185547
v 17.475444793701172 0 -32.611560821533203
v 10.181962966918945 0 -27.243068695068359
v 19.645326614379883 0 -32.611560821533203
v 18.560384750366211 0 -32.611560821533203
v 15.044283866882324 0 -30.822063446044922
v 12.613122940063477 0 -29.032566070556641
v 5.0785479545593262 0 -6.8207874298095703
v 19.448896408081055 0 -6.8207874298095703
v 11.211446762084961 0 -32.980030059814453
v 14.527680397033691 0 -32.611560821533203
v 10.689446449279785 0 -34.914501190185547
v 12.869563102722168 0 -32.795795440673828
v 17.475444793701172 0 -32.980030059814453
v 19.448896408081055 0 1.4697978496551514
v 19.448896408081055 0 -6.5137290954589844
v 5.0785479545593262 0 -6.5137290954589844
v 12.26372241973877 0 -2.521965503692627
v 32.219142913818359 0 -5.6022830009460449
v 32.219142913818359 0 1.2144204378128052
v 65.135841369628906 0 12.821240425109863
v 64.460311889648438 0 12.821240425109863
v 65.135841369628906 0 3.7630078792572021
v 63.017131805419922 0 7.1099481582641602
v 65.135841369628906 0 -5.2952241897583008
v 61.573959350585938 0 1.3986556529998779
v 64.690605163574219 0 -4.4584894180297852
v 64.245368957519531 0 -3.6217544078826904
v 63.800132751464844 0 -2.7850193977355957
v 63.354896545410156 0 -1.948284387588501
v 62.909664154052734 0 -1.1115493774414062
v 62.464427947998047 0 -0.27481433749198914
v 62.019191741943359 0 0.56192070245742798
v 64.076484680175781 0 5.4364781379699707
v 65.135841369628906 0 -0.76610827445983887
v 63.715690612792969 0 1.7440967559814453
v 60.714191436767578 0 13.005475044250488
v 60.714191436767578 0 12.698416709899902
v 64.460311889648438 0 13.865240097045898
v 63.211605072021484 0 12.780299186706543
v 61.962898254394531 0 12.739357948303223
v 61.962898254394531 0 13.29206371307373
v 63.211605072021484 0 13.578651428222656
v 64.890190124511719 0 -5.2952241897583008
v 61.573959350585938 0 1.3065381050109863
v 63.784778594970703 0 -3.0946369171142578
v 63.232074737548828 0 -1.9943431615829468
v 62.679367065429688 0 -0.89404940605163574
v 62.126663208007812 0 0.2062443345785141
v 64.644546508789062 0 -6.3392238616943359
v 61.287368774414062 0 -6.3392238616943359
v 57.930194854736328 0 -6.3392238616943359
v 65.135841369628906 0 20.559120178222656
v 54.388782501220703 0 13.005475044250488
v 54.388782501220703 0 16.782297134399414
v 54.388782501220703 0 20.559120178222656
v 62.925014495849609 0 16.782297134399414
v 53.774665832519531 0 1.3986556529998779
v 57.674312591552734 0 1.3986556529998779
v 57.244430541992188 0 7.0485363006591797
v 60.130783081054688 0 7.0792422294616699
v 61.359016418457031 0 9.9195356369018555
v 58.687606811523438 0 7.0638890266418457
v 60.169162750244141 0 9.8965063095092773
v 61.573959350585938 0 7.0945949554443359
v 62.548870086669922 0 9.9425649642944336
v 64.910659790039062 0 18.327827453613281
v 64.68548583984375 0 16.096532821655273
v 59.424545288085938 0 24.612295150756836
v 64.890190124511719 0 24.612295150756836
v 64.890190124511719 0 20.927591323852539
v 60.550430297851562 0 24.612295150756836
v 61.676311492919922 0 24.612295150756836
v 62.157367706298828 0 22.769943237304688
v 65.135841369628906 0 17.212179183959961
v 65.135841369628906 0 13.865240097045898
v 54.695842742919922 0 24.612295150756836
v 59.793018341064453 0 22.769943237304688
v 55.862667083740234 0 24.612295150756836
v 57.029487609863281 0 24.612295150756836
v 58.196311950683594 0 24.612295150756836
v 58.196311950683594 0 25.287824630737305
v 54.695842742919922 0 24.980766296386719
v 55.862667083740234 0 25.083118438720703
v 57.029487609863281 0 25.185470581054688
v 62.802192687988281 0 24.980766296386719
v 59.424545288085938 0 25.287824630737305
v 62.802192687988281 0 24.612295150756836
v 60.550430297851562 0 25.185470581054688
v 61.676311492919922 0 25.083118438720703
v 53.590431213378906 0 12.698416709899902
v 53.682548522949219 0 7.0485363006591797
v 54.08172607421875 0 13.005475044250488
v 53.590431213378906 0 13.005475044250488
v 54.08172607421875 0 20.559120178222656
v 54.08172607421875 0 18.670709609985352
v 54.08172607421875 0 16.782297134399414
v 54.08172607421875 0 14.893886566162109
v 53.713253021240234 0 14.893886566162109
v 53.836078643798828 0 16.782297134399414
v 53.958900451660156 0 18.670709609985352
v 53.774665832519531 0 1.3065381050109863
v 51.963020324707031 0 7.0485363006591797
v 53.774665832519531 0 1.2144204378128052
v 50.335609436035156 0 1.3986556529998779
v 50.274196624755859 0 12.698416709899902
v 50.274196624755859 0 12.790534019470215
v 50.274196624755859 0 12.882652282714844
v 51.93231201171875 0 12.790534019470215
v 50.304901123046875 0 7.0485363006591797
v 43.150432586669922 0 20.559120178222656
v 48.616081237792969 0 20.559120178222656
v 46.712314605712891 0 16.72088623046875
v 51.93231201171875 0 12.944063186645508
v 53.860641479492188 0 -0.29630842804908752
v 53.946617126464844 0 -1.807037353515625
v 54.032596588134766 0 -3.3177661895751953
v 54.118572235107422 0 -4.8284950256347656
v 54.204547882080078 0 1.2144204378128052
v 54.204547882080078 0 -1.3034610748291016
v 54.204547882080078 0 -3.8213424682617188
v 51.93231201171875 0 24.612295150756836
v 48.493255615234375 0 24.857942581176758
v 58.411251068115234 0 22.769943237304688
v 48.493255615234375 0 24.735118865966797
v 48.493255615234375 0 24.612295150756836
v 56.691722869873047 0 22.769943237304688
v 50.212783813476562 0 24.735118865966797
v 51.93231201171875 0 25.287824630737305
v 50.212783813476562 0 25.072883605957031
v 46.343845367431641 0 29.586647033691406
v 46.343845367431641 0 24.857942581176758
v 47.418552398681641 0 27.222293853759766
v 46.343845367431641 0 27.222293853759766
v 45.729728698730469 0 24.857942581176758
v 46.036785125732422 0 24.857942581176758
v 42.352081298828125 0 24.857942581176758
v 44.194435119628906 0 27.222293853759766
v 46.036785125732422 0 29.586647033691406
v 43.3756103515625 0 24.857942581176758
v 45.42266845703125 0 24.612295150756836
v 31.727849960327148 0 20.927591323852539
v 36.292789459228516 0 22.155824661254883
v 40.857730865478516 0 23.384059906005859
v 48.30902099609375 0 20.927591323852539
v 64.890190124511719 0 29.586647033691406
v 59.056076049804688 0 29.586647033691406
v 64.890190124511719 0 24.980766296386719
v 60.929134368896484 0 27.283706665039062
v 59.240310668945312 0 27.437234878540039
v 58.687606811523438 0 25.287824630737305
v 58.687606811523438 0 29.586647033691406
v 58.360076904296875 0 26.72076416015625
v 58.523841857910156 0 28.153705596923828
v 58.687606811523438 0 28.153705596923828
v 58.687606811523438 0 26.72076416015625
v 59.056076049804688 0 25.287824630737305
v 57.889251708984375 0 40.732879638671875
v 56.024642944335938 0 40.640758514404297
v 60.150360107421875 0 37.969348907470703
v 64.276077270507812 0 36.034877777099609
v 64.276077270507812 0 35.666408538818359
v 64.276077270507812 0 35.297939300537109
v 60.018192291259766 0 39.166877746582031
v 62.147132873535156 0 37.600879669189453
v 63.244644165039062 0 35.965789794921875
v 62.213214874267578 0 36.633644104003906
v 61.181785583496094 0 37.301498413085938
v 59.118930816650391 0 38.637203216552734
v 58.087501525878906 0 39.3050537109375
v 57.056072235107422 0 39.972908020019531
v 64.890190124511719 0 40.732879638671875
v 64.890190124511719 0 36.034877777099609
v 64.069580078125 0 50.033058166503906
v 46.567234039306641 0 49.357528686523438
v 64.990760803222656 0 50.033058166503906
v 64.990760803222656 0 49.357528686523438
v 55.318408966064453 0 49.695293426513672
v 64.622283935546875 0 48.866233825683594
v 56.024642944335938 0 48.866233825683594
v 64.758934020996094 0 44.953086853027344
v 64.895584106445312 0 41.039936065673828
v 57.889251708984375 0 41.039936065673828
v 56.956947326660156 0 44.953086853027344
v 56.691722869873047 0 27.283706665039062
v 55.717582702636719 0 40.640758514404297
v 63.206264495849609 0 35.965789794921875
v 62.136451721191406 0 36.633644104003906
v 61.066638946533203 0 37.301498413085938
v 59.996829986572266 0 37.969348907470703
v 58.927017211914062 0 38.637203216552734
v 57.857208251953125 0 39.3050537109375
v 56.787395477294922 0 39.972908020019531
v 53.875232696533203 0 41.039936065673828
v 53.875232696533203 0 40.886405944824219
v 53.875232696533203 0 40.732879638671875
v 59.075653076171875 0 38.015407562255859
v 53.875232696533203 0 40.809642791748047
v 56.936031341552734 0 39.427879333496094
v 58.005840301513672 0 38.721641540527344
v 46.567234039306641 0 40.732879638671875
v 32.649024963378906 0 35.297939300537109
v 37.288429260253906 0 37.109584808349609
v 41.927829742431641 0 38.921230316162109
v 52.300785064697266 0 29.586647033691406
v 52.177959442138672 0 28.153705596923828
v 52.055137634277344 0 26.72076416015625
v 52.546432495117188 0 24.980766296386719
v 52.546432495117188 0 29.586647033691406
v 46.567234039306641 0 45.365764617919922
v 45.891704559326172 0 43.953292846679688
v 45.216175079345703 0 42.2337646484375
v 45.216175079345703 0 42.540824890136719
v 52.300785064697266 0 27.437234878540039
v 52.300785064697266 0 25.287824630737305
v 55.717582702636719 0 48.866233825683594
v 46.812881469726562 0 48.866233825683594
v 50.34405517578125 0 44.953086853027344
v 51.265232086181641 0 48.866233825683594
v 55.717582702636719 0 44.753498077392578
v 53.030818939208984 0 44.853290557861328
v 64.069580078125 0 50.769996643066406
v 52.094291687011719 0 50.769996643066406
v 40.118999481201172 0 50.769996643066406
v 64.069580078125 0 50.401527404785156
v 53.706348419189453 0 50.232643127441406
v 43.343116760253906 0 50.063762664794922
v 46.812881469726562 0 41.039936065673828
v 46.567234039306641 0 47.515174865722656
v 46.567234039306641 0 45.672821044921875
v 43.435234069824219 0 45.672821044921875
v 41.777118682861328 0 48.221408843994141
v 43.742294311523438 0 45.365764617919922
v 43.742294311523438 0 42.540824890136719
v 42.106433868408203 0 24.612295150756836
v 45.42266845703125 0 24.857942581176758
v 44.399139404296875 0 24.857942581176758
v 44.317256927490234 0 24.612295150756836
v 43.211845397949219 0 24.612295150756836
v 42.53631591796875 0 1.2144204378128052
v 39.281494140625 0 1.3986556529998779
v 42.659141540527344 0 -0.67399066686630249
v 42.781963348388672 0 -2.5624017715454102
v 42.904788970947266 0 -4.450812816619873
v 42.53631591796875 0 1.3986556529998779
v 42.413494110107422 0 12.698416709899902
v 40.847492218017578 0 7.0485363006591797
v 42.474906921386719 0 7.0485363006591797
v 43.027610778808594 0 1.2144204378128052
v 43.027610778808594 0 -0.67399066686630249
v 43.027610778808594 0 -2.5624017715454102
v 43.027610778808594 0 -4.450812816619873
v 39.220081329345703 0 12.698416709899902
v 31.727849960327148 0 12.698416709899902
v 31.809732437133789 0 5.1652426719665527
v 31.768791198730469 0 8.9318294525146484
v 39.250789642333984 0 7.0485363006591797
v 27.102193832397461 0 14.13794994354248
v 27.102193832397461 0 13.554537773132324
v 27.102193832397461 0 12.971126556396484
v 30.267847061157227 0 5.2561459541320801
v 28.685020446777344 0 9.1136360168457031
v 29.415021896362305 0 13.418183326721191
v 39.220081329345703 0 12.882652282714844
v 40.816787719726562 0 12.790534019470215
v 42.413494110107422 0 12.882652282714844
v 42.904788970947266 0 20.559120178222656
v 42.413494110107422 0 12.790534019470215
v 41.737964630126953 0 14.755709648132324
v 42.075729370117188 0 13.77312183380127
v 42.198551177978516 0 15.738298416137695
v 42.413494110107422 0 12.836592674255371
v 42.306022644042969 0 14.287446022033691
v 42.359756469726562 0 13.562019348144531
v 42.421169281005859 0 14.544607162475586
v 42.413494110107422 0 12.859622955322266
v 42.417331695556641 0 13.702115058898926
v 42.415412902832031 0 13.280868530273438
v 42.446117401123047 0 13.772162437438965
v 42.413494110107422 0 12.871137619018555
v 42.429805755615234 0 13.321649551391602
v 42.386627197265625 0 13.199306488037109
v 42.388545989990234 0 13.63206672668457
v 42.413494110107422 0 12.84810733795166
v 42.401020050048828 0 13.240087509155273
v 42.244609832763672 0 13.281827926635742
v 42.190876007080078 0 14.03028392791748
v 42.413494110107422 0 12.813563346862793
v 42.30218505859375 0 13.421923637390137
v 41.277374267578125 0 13.77312183380127
v 42.413494110107422 0 12.744475364685059
v 41.845436096191406 0 13.258798599243164
v 42.421649932861328 0 13.096393585205078
v 42.437004089355469 0 13.342040061950684
v 42.413494110107422 0 12.876894950866699
v 42.425247192382812 0 13.109467506408691
v 42.414451599121094 0 13.070245742797852
v 42.422607421875 0 13.30125904083252
v 42.413494110107422 0 12.86538028717041
v 42.418052673339844 0 13.083319664001465
v 42.407257080078125 0 13.044097900390625
v 42.408214569091797 0 13.260478019714355
v 42.413494110107422 0 12.853865623474121
v 42.410854339599609 0 13.057171821594238
v 42.419368743896484 0 12.993181228637695
v 42.427047729492188 0 13.116004943847656
v 42.413494110107422 0 12.879773139953613
v 42.420269012451172 0 12.997888565063477
v 42.417572021484375 0 12.983765602111816
v 42.423450469970703 0 13.102931022644043
v 42.413494110107422 0 12.874015808105469
v 42.418472290039062 0 12.988472938537598
v 42.415771484375 0 12.974349975585938
v 42.419849395751953 0 13.089856147766113
v 42.413494110107422 0 12.868258476257324
v 42.416671752929688 0 12.979057312011719
v 42.413974761962891 0 12.964934349060059
v 42.416252136230469 0 13.0767822265625
v 42.413494110107422 0 12.86250114440918
v 42.414871215820312 0 12.96964168548584
v 42.412174224853516 0 12.95551872253418
v 42.412654876708984 0 13.063708305358887
v 42.413494110107422 0 12.856743812561035
v 42.413074493408203 0 12.960226058959961
v 40.448318481445312 0 15.441474914550781
v 41.676551818847656 0 18.000297546386719
v 42.806529998779297 0 19.023826599121094
v 42.708271026611328 0 17.488533020019531
v 42.610012054443359 0 15.953239440917969
v 42.511753082275391 0 14.417945861816406
v 42.904788970947266 0 18.000297546386719
v 42.904788970947266 0 15.441474914550781
v 42.904788970947266 0 12.882652282714844
v 27.102193832397461 0 17.515596389770508
v 26.825839996337891 0 17.515596389770508
v 29.415021896362305 0 15.107006072998047
v 26.964017868041992 0 15.826772689819336
v 29.415021896362305 0 19.221593856811523
v 26.825839996337891 0 14.13794994354248
v 26.825839996337891 0 15.826772689819336
v 32.157733917236328 0 12.882652282714844
v 32.157733917236328 0 16.72088623046875
v 32.157733917236328 0 20.559120178222656
v 23.870542526245117 0 2.9436798095703125
v 23.870542526245117 0 1.9917976856231689
v 23.870542526245117 0 1.0399156808853149
v 27.860607147216797 0 1.2192857265472412
v 25.486368179321289 0 7.9574031829833984
v 43.150432586669922 0 12.882652282714844
v 23.379247665405273 0 1.0399156808853149
v 23.379247665405273 0 -0.43396618962287903
v 23.870542526245117 0 -0.43396618962287903
v 23.870542526245117 0 0.30297476053237915
v 23.379247665405273 0 0.30297476053237915
v 19.817365646362305 0 -1.9078480005264282
v 23.379247665405273 0 -1.9078480005264282
v 19.817365646362305 0 2.4523859024047852
v 21.598306655883789 0 1.0092098712921143
v 23.870542526245117 0 -2.2763185501098633
v 19.817365646362305 0 -2.7062008380889893
v 21.598306655883789 0 -2.7062008380889893
v 23.379247665405273 0 -2.7062008380889893
v 26.825839996337891 0 13.554537773132324
v 23.901105880737305 0 13.738773345947266
v 26.825839996337891 0 13.339596748352051
v 20.976371765136719 0 13.339596748352051
v 19.448896408081055 0 2.9436798095703125
v 23.275545120239258 0 7.9574031829833984
v -6.3672070503234863 0 12.971126556396484
v 4.9557242393493652 0 1.7768566608428955
v 12.202310562133789 0 2.3602681159973145
v -0.70574122667312622 0 7.3739914894104004
v 19.448896408081055 0 1.7768566608428955
v 23.379247665405273 0 2.4523859024047852
v 20.976371765136719 0 31.394649505615234
v 20.976371765136719 0 22.367122650146484
v 23.901105880737305 0 24.455121994018555
v 40.571140289306641 0 24.612295150756836
v 39.035846710205078 0 24.612295150756836
v 35.381847381591797 0 22.769943237304688
v 39.895610809326172 0 29.586647033691406
v 39.895610809326172 0 27.222293853759766
v 39.895610809326172 0 24.857942581176758
v 39.035846710205078 0 24.857942581176758
v 36.02667236328125 0 24.612295150756836
v 36.02667236328125 0 24.857942581176758
v 38.283554077148438 0 24.612295150756836
v 37.531261444091797 0 24.612295150756836
v 36.778964996337891 0 24.612295150756836
v 36.778964996337891 0 24.857942581176758
v 37.531261444091797 0 24.857942581176758
v 38.283554077148438 0 24.857942581176758
v 39.64996337890625 0 29.156764984130859
v 39.64996337890625 0 27.007352828979492
v 39.64996337890625 0 24.857942581176758
v 38.590610504150391 0 25.932647705078125
v 37.83831787109375 0 27.007352828979492
v 39.64996337890625 0 28.082057952880859
v 38.214466094970703 0 26.470001220703125
v 43.435234069824219 0 42.2337646484375
v 40.118999481201172 0 40.640758514404297
v 43.343116760253906 0 40.686820983886719
v 31.727849960327148 0 29.586647033691406
v 39.64996337890625 0 29.586647033691406
v 33.877262115478516 0 27.222293853759766
v 36.384014129638672 0 37.969348907470703
v 31.420791625976562 0 24.612295150756836
v 34.967319488525391 0 23.230531692504883
v 36.625434875488281 0 23.921413421630859
v 35.174583435058594 0 23.000236511230469
v 36.917140960693359 0 23.806266784667969
v 31.727849960327148 0 24.857942581176758
v 27.102193832397461 0 25.007827758789062
v 27.102193832397461 0 32.50006103515625
v 29.261491775512695 0 28.556177139282227
v 26.825839996337891 0 32.50006103515625
v 26.630674362182617 0 35.789234161376953
v 26.825839996337891 0 31.61323356628418
v 23.811199188232422 0 31.61323356628418
v 20.796558380126953 0 31.61323356628418
v 26.695730209350586 0 34.692840576171875
v 26.760786056518555 0 33.596450805664062
v 22.303878784179688 0 31.61323356628418
v 23.713617324829102 0 33.70123291015625
v 25.269729614257812 0 32.878940582275391
v 24.491672515869141 0 33.290088653564453
v 31.420791625976562 0 34.438175201416016
v 26.937734603881836 0 35.789234161376953
v 31.420791625976562 0 29.525234222412109
v 27.047374725341797 0 33.596450805664062
v 26.9925537109375 0 34.692840576171875
v 29.220376968383789 0 31.834939956665039
v 31.420791625976562 0 27.068765640258789
v 29.240934371948242 0 30.195558547973633
v 26.825839996337891 0 31.394649505615234
v 31.543615341186523 0 40.640758514404297
v 32.649024963378906 0 34.868057250976562
v 31.482202529907227 0 37.539466857910156
v 32.649024963378906 0 34.438175201416016
v 32.096321105957031 0 37.969348907470703
v 26.937734603881836 0 50.220993041992188
v 31.543615341186523 0 50.220993041992188
v 29.24067497253418 0 45.430877685546875
v 26.937734603881836 0 43.005111694335938
v 20.796558380126953 0 50.220993041992188
v 26.630674362182617 0 50.220993041992188
v 26.630674362182617 0 43.005111694335938
v 20.796558380126953 0 40.9171142578125
v 23.713617324829102 0 50.220993041992188
v 23.713617324829102 0 41.961112976074219
v 11.211446762084961 0 -32.611560821533203
v 10.696704864501953 0 -29.927314758300781
v 12.869563102722168 0 -32.611560821533203
v 2.85984206199646 0 -72.998138427734375
v 9.9785089492797852 0 -74.234146118164062
v 4.7534146308898926 0 -75.470146179199219
v 3.9652535915374756 0 -72.998138427734375
v 10.689839363098145 0 -72.998138427734375
v 13.23842716217041 0 -68.269432067871094
v 0.95607805252075195 0 -68.269432067871094
v 13.23842716217041 0 -72.691078186035156
v 6.1760764122009277 0 -72.691078186035156
v 3.5660772323608398 0 -70.480255126953125
v 6.1760764122009277 0 -72.998138427734375
v 2.85984206199646 0 -72.691078186035156
v 5.0706648826599121 0 -72.998138427734375
v 3.9652535915374756 0 -72.691078186035156
v 5.0706648826599121 0 -72.691078186035156
v 13.23842716217041 0 -67.962379455566406
v 12.317251205444336 0 -63.479320526123047
v 5.3609294891357422 0 -63.479320526123047
v 9.8172311782836914 0 -63.479320526123047
v 10.612594604492188 0 -66.468025207519531
v 7.9867620468139648 0 -64.973670959472656
v 12.777838706970215 0 -65.720848083496094
v 10.650570869445801 0 -63.479320526123047
v 11.48391056060791 0 -63.479320526123047
v 0.95607805252075195 0 -72.691078186035156
v 1.907960057258606 0 -72.691078186035156
v 0.95607805252075195 0 -70.480255126953125
v 2.7370185852050781 0 -71.585670471191406
v 13.23842716217041 0 -63.479320526123047
v 9.8172311782836914 0 -63.172260284423828
v 10.650570869445801 0 -63.172260284423828
v 11.48391056060791 0 -63.172260284423828
v 7.5890798568725586 0 -63.172260284423828
v 6.8811941146850586 0 -62.208538055419922
v 5.3609294891357422 0 -63.172260284423828
v 0.029365044087171555 0 -59.317371368408203
v 6.5272507667541504 0 -61.726676940917969
v 8.974217414855957 0 -62.690399169921875
v 9.1097478866577148 0 -62.449470520019531
v 4.1253271102905273 0 -60.602336883544922
v 8.2212886810302734 0 -61.887298583984375
v 3.5837411880493164 0 -61.887298583984375
v 1.8065531253814697 0 -60.602336883544922
v 2.4913716316223145 0 -63.479320526123047
v 2.4913716316223145 0 -63.172260284423828
v 4.4044103622436523 0 -63.479320526123047
v 3.4478909969329834 0 -63.479320526123047
v 3.4478909969329834 0 -63.172260284423828
v 4.4044103622436523 0 -63.172260284423828
v 0.64901930093765259 0 -63.172260284423828
v 1.5701954364776611 0 -63.172260284423828
v 0.33919218182563782 0 -61.244815826416016
v 0.95607805252075195 0 -67.962379455566406
v 1.7237248420715332 0 -65.720848083496094
v 14.307595252990723 0 -51.026786804199219
v -0.058272697031497955 0 -51.026786804199219
v 14.307595252990723 0 -55.018550872802734
v 14.307595252990723 0 -59.01031494140625
v 0.029365044087171555 0 -59.01031494140625
v 0.00015246355906128883 0 -56.349136352539062
v -0.029060117900371552 0 -53.687961578369141
v 7.168480396270752 0 -59.01031494140625
v 7.1465706825256348 0 -55.018550872802734
v 14.307595252990723 0 -57.014430999755859
v 7.1575255393981934 0 -57.014430999755859
v 7.1246614456176758 0 -51.026786804199219
v 14.307595252990723 0 -53.022666931152344
v 7.1356163024902344 0 -53.022666931152344
v 13.545485496520996 0 -63.479320526123047
v -0.47167941927909851 0 -84.873916625976562
v -3.0202667713165283 0 -84.873916625976562
v -3.0202667713165283 0 -79.561798095703125
v -5.5688543319702148 0 -84.873916625976562
v -5.5688543319702148 0 -82.417449951171875
v -3.0816786289215088 0 -77.750152587890625
v 1.7544306516647339 0 -72.998138427734375
v -5.6916775703430176 0 -78.794151306152344
v 0.64901930093765259 0 -72.998138427734375
v -2.5213291645050049 0 -75.896148681640625
v -5.9373245239257812 0 -82.417449951171875
v -5.9987363815307617 0 -77.258857727050781
v -23.255435943603516 0 -80.268035888671875
v -5.9987363815307617 0 -78.794151306152344
v -18.987319946289062 0 -81.557685852050781
v -14.627086639404297 0 -78.763450622558594
v -12.49302864074707 0 -80.175918579101562
v -21.121377944946289 0 -80.912857055664062
v -5.9987363815307617 0 -78.026504516601562
v -12.462322235107422 0 -81.987564086914062
v -17.912614822387695 0 -60.861923217773438
v -21.167436599731445 0 -65.037925720214844
v -12.262734413146973 0 -60.861923217773438
v -12.262734413146973 0 -62.949924468994141
v -12.262734413146973 0 -65.037925720214844
v -20.082496643066406 0 -63.645923614501953
v -18.997554779052734 0 -62.253925323486328
v -12.262734413146973 0 -63.993923187255859
v -16.715085983276367 0 -65.037925720214844
v -15.90138053894043 0 -62.949924468994141
v -16.308233261108398 0 -63.993923187255859
v -5.6916775703430176 0 -60.554866790771484
v -2.5213291645050049 0 -61.863563537597656
v -5.6916775703430176 0 -69.674507141113281
v 0.95607805252075195 0 -63.479320526123047
v 0.95607805252075195 0 -65.720848083496094
v -5.9987363815307617 0 -65.037925720214844
v -5.9987363815307617 0 -62.949924468994141
v -5.9987363815307617 0 -60.861923217773438
v -11.955676078796387 0 -65.037925720214844
v -9.8983821868896484 0 -62.949924468994141
v -7.8410887718200684 0 -60.861923217773438
v -11.955676078796387 0 -60.861923217773438
v -11.495087623596191 0 -60.861923217773438
v -9.9700288772583008 0 -60.861923217773438
v -8.9055585861206055 0 -60.861923217773438
v 3.2579615116119385 0 -47.157848358154297
v 1.722667932510376 0 -47.157848358154297
v 4.6704316139221191 0 -50.7197265625
v 0.43302124738693237 0 -50.7197265625
v 3.9641964435577393 0 -48.938789367675781
v 2.4903147220611572 0 -47.157848358154297
v 1.0778446197509766 0 -48.938789367675781
v 9.8904294967651367 0 -50.7197265625
v 9.1534891128540039 0 -48.938789367675781
v 8.4165477752685547 0 -47.157848358154297
v 5.5301961898803711 0 -50.7197265625
v 6.2671370506286621 0 -48.938789367675781
v 7.0040779113769531 0 -47.157848358154297
v 7.7103128433227539 0 -47.157848358154297
v -2.8311562538146973 0 -59.936119079589844
v -2.8311562538146973 0 -59.782588958740234
v -5.7695651054382324 0 -57.280178070068359
v -3.8658008575439453 0 -55.195713043212891
v -1.9620367288589478 0 -53.111251831054688
v -5.730621337890625 0 -58.917522430419922
v -0.058272697031497955 0 -46.666553497314453
v -2.9139187335968018 0 -51.574188232421875
v -2.9139187335968018 0 -47.735954284667969
v -5.7695651054382324 0 -52.121589660644531
v -5.7695651054382324 0 -48.805355072021484
v -5.7695651054382324 0 -51.016178131103516
v -5.7695651054382324 0 -49.9107666015625
v 5.5301961898803711 0 -47.157848358154297
v 8.4165477752685547 0 -46.666553497314453
v 7.0040779113769531 0 -46.666553497314453
v 7.7103128433227539 0 -46.666553497314453
v 9.8904294967651367 0 -47.157848358154297
v 0.43302124738693237 0 -47.157848358154297
v 0.43302124738693237 0 -48.938789367675781
v 3.2579615116119385 0 -46.666553497314453
v 1.722667932510376 0 -46.666553497314453
v 2.4903147220611572 0 -46.666553497314453
v -5.8660488128662109 0 -38.140556335449219
v -8.7348642349243164 0 -42.858837127685547
v -11.603680610656738 0 -47.577121734619141
v -2.9139187335968018 0 -47.121837615966797
v -5.7695651054382324 0 -47.577121734619141
v -2.9621608257293701 0 -42.403553009033203
v 4.6704316139221191 0 -47.157848358154297
v 10.438655853271484 0 -50.7197265625
v -7.8410887718200684 0 -60.554866790771484
v -11.603680610656738 0 -57.280178070068359
v -9.0952863693237305 0 -59.463302612304688
v -10.349483489990234 0 -58.371738433837891
v -7.8410887718200684 0 -60.708393096923828
v -11.034499168395996 0 -60.554866790771484
v -8.9055585861206055 0 -60.759571075439453
v -9.9700288772583008 0 -60.657218933105469
v -11.319089889526367 0 -58.917522430419922
v -11.034499168395996 0 -60.861923217773438
v -17.1307373046875 0 -57.280178070068359
v -17.912614822387695 0 -60.554866790771484
v -14.367209434509277 0 -57.280178070068359
v -21.920854568481445 0 -57.280178070068359
v -21.044612884521484 0 -60.923336029052734
v -18.956613540649414 0 -60.677688598632812
v -20.000614166259766 0 -60.800514221191406
v -21.482734680175781 0 -59.101757049560547
v -19.525794982910156 0 -57.280178070068359
v -21.613794326782227 0 -52.244415283203125
v -21.613794326782227 0 -56.973117828369141
v -17.437795639038086 0 -47.884181976318359
v -17.437795639038086 0 -56.973117828369141
v -19.525794982910156 0 -50.064296722412109
v -17.1307373046875 0 -47.577121734619141
v -6.0766234397888184 0 -52.121589660644531
v -11.296622276306152 0 -47.884181976318359
v -6.0766234397888184 0 -56.973117828369141
v -11.296622276306152 0 -56.973117828369141
v -8.6866226196289062 0 -50.002887725830078
v -6.0766234397888184 0 -48.805355072021484
v -6.0766234397888184 0 -51.016178131103516
v -6.0766234397888184 0 -49.9107666015625
v -6.0766234397888184 0 -47.884181976318359
v -6.0766234397888184 0 -48.344768524169922
v -11.700164794921875 0 -38.140556335449219
v -14.415451049804688 0 -42.858837127685547
v -5.9373245239257812 0 -84.873916625976562
v -18.987319946289062 0 -84.873916625976562
v -21.535907745361328 0 -81.926155090332031
v -23.255435943603516 0 -84.873916625976562
v -19.325084686279297 0 -81.926155090332031
v -19.325084686279297 0 -84.873916625976562
v -22.395671844482422 0 -83.400032043457031
v -21.535907745361328 0 -81.557685852050781
v -22.825553894042969 0 -81.926155090332031
v -22.825553894042969 0 -81.557685852050781
v -22.180730819702148 0 -81.926155090332031
v -22.180730819702148 0 -81.557685852050781
v -23.255435943603516 0 -81.926155090332031
v -30.502021789550781 0 -80.575096130371094
v -32.467197418212891 0 -88.497207641601562
v -23.562496185302734 0 -80.575096130371094
v -23.562496185302734 0 -88.497207641601562
v -31.484609603881836 0 -84.536148071289062
v -23.255435943603516 0 -81.557685852050781
v -23.255435943603516 0 -81.496269226074219
v -23.040494918823242 0 -80.912857055664062
v -41.617549896240234 0 -77.258857727050781
v -30.502021789550781 0 -80.268035888671875
v -34.207199096679688 0 -79.264976501464844
v -37.912372589111328 0 -78.261917114257812
v -26.878728866577148 0 -80.268035888671875
v -23.808141708374023 0 -77.258857727050781
v -32.221549987792969 0 -80.268035888671875
v -32.221549987792969 0 -80.575096130371094
v -31.361785888671875 0 -80.575096130371094
v -31.361785888671875 0 -80.268035888671875
v -21.965789794921875 0 -65.222160339355469
v -22.334260940551758 0 -61.230396270751953
v -31.361785888671875 0 -65.222160339355469
v -25.83473014831543 0 -60.989845275878906
v -22.1500244140625 0 -63.226276397705078
v -28.598258972167969 0 -63.106002807617188
v -24.667905807495117 0 -61.070026397705078
v -23.501083374023438 0 -61.150211334228516
v -26.663787841796875 0 -65.222160339355469
v -32.467197418212891 0 -80.575096130371094
v -34.862255096435547 0 -80.575096130371094
v -41.617549896240234 0 -88.620033264160156
v -33.019905090332031 0 -80.636505126953125
v -32.712844848632812 0 -88.620033264160156
v -33.941078186035156 0 -80.605796813964844
v -39.36578369140625 0 -85.938385009765625
v -37.114021301269531 0 -83.256736755371094
v -32.976039886474609 0 -81.777008056640625
v -32.932174682617188 0 -82.917510986328125
v -32.8883056640625 0 -84.058013916015625
v -32.844440460205078 0 -85.198524475097656
v -32.800575256347656 0 -86.339027404785156
v -32.756710052490234 0 -87.479530334472656
v -37.165195465087891 0 -88.620033264160156
v -32.712844848632812 0 -80.636505126953125
v -32.712844848632812 0 -82.233207702636719
v -32.712844848632812 0 -83.829917907714844
v -32.712844848632812 0 -85.426620483398438
v -32.712844848632812 0 -87.023330688476562
v -41.617549896240234 0 -80.575096130371094
v -41.617549896240234 0 -84.597564697265625
v -33.019905090332031 0 -80.268035888671875
v -34.862255096435547 0 -80.268035888671875
v -33.941078186035156 0 -80.268035888671875
v -32.037315368652344 0 -64.792274475097656
v -36.090492248535156 0 -62.520042419433594
v -32.037315368652344 0 -65.406394958496094
v -36.090492248535156 0 -65.406394958496094
v -34.06390380859375 0 -63.656158447265625
v -31.791669845581055 0 -60.682785034179688
v -31.791669845581055 0 -64.792274475097656
v -33.941078186035156 0 -61.601413726806641
v -32.6207275390625 0 -80.268035888671875
v -34.340255737304688 0 -79.515739440917969
v -35.885784149169922 0 -79.264976501464844
v -38.751667022705078 0 -78.261917114257812
v -35.200019836425781 0 -79.139595031738281
v -32.851020812988281 0 -79.891891479492188
v -33.065963745117188 0 -79.703811645507812
v -41.617549896240234 0 -80.268035888671875
v -41.617549896240234 0 -78.763450622558594
v -38.239902496337891 0 -80.268035888671875
v -37.779315948486328 0 -79.515739440917969
v -36.397548675537109 0 -62.520042419433594
v -44.074016571044922 0 -58.960922241210938
v -36.397548675537109 0 -67.371566772460938
v -40.235782623291016 0 -67.371566772460938
v -44.074016571044922 0 -67.371566772460938
v -40.235782623291016 0 -60.740482330322266
v -21.167436599731445 0 -64.608039855957031
v -21.044612884521484 0 -61.230396270751953
v -21.658731460571289 0 -64.608039855957031
v -21.658731460571289 0 -61.230396270751953
v -21.106025695800781 0 -62.919216156005859
v -18.956613540649414 0 -60.984748840332031
v -20.000614166259766 0 -61.107570648193359
v -21.167436599731445 0 -64.822982788085938
v -25.83473014831543 0 -60.682785034179688
v -22.334260940551758 0 -60.923336029052734
v -24.667905807495117 0 -60.762969970703125
v -23.501083374023438 0 -60.843151092529297
v -21.965789794921875 0 -61.230396270751953
v -31.361785888671875 0 -60.989845275878906
v -25.83473014831543 0 -57.402999877929688
v -23.877792358398438 0 -57.341590881347656
v -24.084495544433594 0 -59.163169860839844
v -21.920854568481445 0 -52.244415283203125
v -21.920854568481445 0 -47.884181976318359
v -21.920854568481445 0 -50.064296722412109
v -25.83473014831543 0 -47.968223571777344
v -21.920854568481445 0 -47.577121734619141
v -23.877792358398438 0 -50.106319427490234
v -23.877792358398438 0 -47.772670745849609
v -17.421319961547852 0 -38.140556335449219
v -22.262985229492188 0 -38.140556335449219
v -24.644147872924805 0 -44.692333221435547
v -23.45356559753418 0 -41.41644287109375
v -18.921165466308594 0 -41.286079406738281
v -20.421009063720703 0 -44.431598663330078
v -32.415908813476562 0 -57.402999877929688
v -36.274726867675781 0 -59.388042449951172
v -36.888843536376953 0 -59.388042449951172
v -36.182609558105469 0 -60.95404052734375
v -36.643196105957031 0 -60.95404052734375
v -34.345317840576172 0 -58.395523071289062
v -36.888843536376953 0 -58.960922241210938
v -40.481430053710938 0 -59.174484252929688
v -36.888843536376953 0 -58.653865814208984
v -44.074016571044922 0 -58.653865814208984
v -36.888843536376953 0 -58.344043731689453
v -40.481430053710938 0 -58.498954772949219
v -36.581783294677734 0 -55.030570983886719
v -44.074016571044922 0 -49.257869720458984
v -36.735313415527344 0 -56.687309265136719
v -44.074016571044922 0 -53.955867767333984
v -40.327899932861328 0 -52.144218444824219
v -36.274726867675781 0 -58.344043731689453
v -36.274726867675781 0 -55.030570983886719
v -34.345317840576172 0 -56.216785430908203
v -36.274726867675781 0 -56.687309265136719
v -36.274726867675781 0 -47.968223571777344
v -32.415908813476562 0 -47.968223571777344
v -36.397548675537109 0 -38.203754425048828
v -36.888843536376953 0 -47.968223571777344
v -34.406730651855469 0 -43.085987091064453
v -36.790584564208984 0 -46.015327453613281
v -36.692325592041016 0 -44.062435150146484
v -36.594066619873047 0 -42.109542846679688
v -36.495807647705078 0 -40.156646728515625
v -36.581783294677734 0 -49.257869720458984
v -40.327899932861328 0 -49.257869720458984
v -37.011669158935547 0 -38.203754425048828
v -36.888843536376953 0 -48.766574859619141
v -40.020843505859375 0 -48.766574859619141
v -36.980960845947266 0 -40.644870758056641
v -36.95025634765625 0 -43.085987091064453
v -36.919548034667969 0 -45.527103424072266
v -38.516254425048828 0 -43.485164642333984
v -29.12531852722168 0 -47.968223571777344
v -26.085309982299805 0 -37.282577514648438
v -24.17414665222168 0 -37.711566925048828
v -29.250608444213867 0 -42.625400543212891
v -26.64973258972168 0 -42.839893341064453
v -30.770614624023438 0 -47.968223571777344
v -27.950170516967773 0 -42.732646942138672
v -27.480024337768555 0 -47.968223571777344
v -25.349294662475586 0 -42.947139739990234
v 9.4276018142700195 0 -46.666553497314453
v 7.8742990493774414 0 -43.701084136962891
v 8.7445201873779297 0 -40.735614776611328
v 10.167447090148926 0 -37.463088989257812
v 9.8603878021240234 0 -36.848968505859375
v 9.8603878021240234 0 -32.980030059814453
v -5.8660488128662109 0 -36.789497375488281
v 9.614741325378418 0 -32.611560821533203
v 1.874346137046814 0 -37.955352783203125
v -0.70578551292419434 0 -35.3968505859375
v 4.4544777870178223 0 -34.004203796386719
v 5.6687045097351074 0 -42.218349456787109
v 5.1310195922851562 0 -46.666553497314453
v 5.5342831611633301 0 -43.330402374267578
v 3.8203873634338379 0 -44.998477935791016
v 5.6014938354492188 0 -42.774375915527344
v 3.7580366134643555 0 -44.720462799072266
v 9.8983516693115234 0 -29.927314758300781
v -5.8660488128662109 0 -33.2271728515625
v -5.8660488128662109 0 -35.602054595947266
v -5.8660488128662109 0 -34.414615631103516
v -0.70578551292419434 0 -33.021968841552734
v 4.4544777870178223 0 -32.816764831542969
v -5.8660488128662109 0 -23.708353042602539
v -0.51671165227890015 0 -24.886590957641602
v 4.8326253890991211 0 -26.064830780029297
v -6.1731076240539551 0 -33.2271728515625
v -6.1731076240539551 0 -36.789497375488281
v -6.1731076240539551 0 -35.602054595947266
v -6.1731076240539551 0 -34.414615631103516
v 10.181962966918945 0 -20.334247589111328
v -6.024510383605957 0 -21.804590225219727
v -6.1829714775085449 0 -19.900825500488281
v 1.9994953870773315 0 -16.663125991821289
v 2.078726053237915 0 -21.069417953491211
v 10.181962966918945 0 -23.788658142089844
v 2.1183414459228516 0 -23.272563934326172
v 10.181962966918945 0 -16.879837036132812
v 2.0391108989715576 0 -18.86627197265625
v -2.0323150157928467 0 -19.859489440917969
v 2.0589184761047363 0 -19.967845916748047
v -1.9728920459747314 0 -21.437004089355469
v -2.0026035308837891 0 -20.648246765136719
v 2.0193030834197998 0 -17.764698028564453
v -2.0620265007019043 0 -19.070732116699219
v -6.1731076240539551 0 -37.311496734619141
v -8.783106803894043 0 -35.53033447265625
v -6.1731076240539551 0 -37.83349609375
v -11.393105506896973 0 -37.83349609375
v -6.1731076240539551 0 -28.314233779907227
v -8.783106803894043 0 -28.314233779907227
v -11.393105506896973 0 -28.314233779907227
v -17.421319961547852 0 -28.314233779907227
v -11.700164794921875 0 -28.314233779907227
v -18.148397445678711 0 -24.015411376953125
v -20.052162170410156 0 -26.011293411254883
v -21.955924987792969 0 -28.007175445556641
v -6.1731076240539551 0 -24.015411376953125
v -6.1731076240539551 0 -26.011293411254883
v -6.1731076240539551 0 -28.007175445556641
v -6.1731076240539551 0 -27.009235382080078
v -14.064517021179199 0 -28.007175445556641
v -13.112634658813477 0 -26.011293411254883
v -13.58857536315918 0 -27.009235382080078
v -6.1731076240539551 0 -25.01335334777832
v -12.160752296447754 0 -24.015411376953125
v -12.636693954467773 0 -25.01335334777832
v -7.9332065582275391 0 -19.900825500488281
v -12.938263893127441 0 -19.900825500488281
v -8.2234535217285156 0 -22.439178466796875
v -10.58085823059082 0 -21.170001983642578
v -11.853322982788086 0 -19.900825500488281
v -10.76838207244873 0 -19.900825500488281
v -9.683441162109375 0 -19.900825500488281
v -9.683441162109375 0 -19.593767166137695
v -12.938263893127441 0 -19.593767166137695
v -11.853322982788086 0 -19.593767166137695
v -10.76838207244873 0 -19.593767166137695
v -14.105086326599121 0 -19.593767166137695
v -17.421319961547852 0 -19.286708831787109
v -14.105086326599121 0 -19.900825500488281
v -17.421319961547852 0 -19.900825500488281
v -15.763203620910645 0 -19.440237045288086
v -15.763203620910645 0 -19.900825500488281
v -16.126741409301758 0 -21.804590225219727
v -18.148397445678711 0 -23.708353042602539
v -13.306734085083008 0 -19.593767166137695
v -13.306734085083008 0 -11.855886459350586
v -11.495087623596191 0 -15.724826812744141
v -20.798967361450195 0 -19.900825500488281
v -19.473682403564453 0 -21.804590225219727
v -13.736616134643555 0 -11.855886459350586
v -13.736616134643555 0 -19.593767166137695
v -15.57896900177002 0 -15.571297645568848
v -6.1829714775085449 0 -11.303181648254395
v -5.0568199157714844 0 -10.854942321777344
v -3.9306676387786865 0 -10.406702041625977
v -2.8045158386230469 0 -9.9584627151489258
v -1.6783638000488281 0 -9.510223388671875
v -0.55221188068389893 0 -9.0619840621948242
v 0.57394009828567505 0 -8.6137447357177734
v 1.700092077255249 0 -8.1655054092407227
v 2.8262441158294678 0 -7.7172660827636719
v 3.9523959159851074 0 -7.2690267562866211
v -6.1829714775085449 0 -15.60200309753418
v 0.72364181280136108 0 -12.862554550170898
v 0.085714966058731079 0 -10.96226978302002
v -2.7296650409698486 0 -14.232278823852539
v -6.1829714775085449 0 -13.452591896057129
v -3.0486283302307129 0 -12.207430839538574
v 4.1769485473632812 0 -11.492831230163574
v 3.2200582027435303 0 -9.7171087265014648
v 4.9557242393493652 0 1.4697978496551514
v 3.9523959159851074 0 -6.9926738739013672
v 2.8262441158294678 0 -7.4716191291809082
v 1.700092077255249 0 -7.9505643844604492
v 0.57394009828567505 0 -8.4295101165771484
v -0.55221188068389893 0 -8.9084548950195312
v -1.6783638000488281 0 -9.3874006271362305
v -2.8045158386230469 0 -9.8663454055786133
v -3.9306676387786865 0 -10.345291137695312
v -5.0568199157714844 0 -10.824235916137695
v -0.61362361907958984 0 -4.916691780090332
v 12.202310562133789 0 1.4697978496551514
v -6.3672070503234863 0 8.5942239761352539
v -0.70574122667312622 0 5.0320110321044922
v -13.736616134643555 0 -1.477302074432373
v -9.9597940444946289 0 -6.3902416229248047
v -10.051911354064941 0 3.5584609508514404
v 0.14243802428245544 0 28.675865173339844
v 0.14243802428245544 0 27.031394958496094
v 0.14243802428245544 0 25.386924743652344
v 0.14243802428245544 0 23.742454528808594
v 0.14243802428245544 0 22.097984313964844
v 0.14243802428245544 0 20.453514099121094
v 0.14243802428245544 0 18.809043884277344
v 0.14243802428245544 0 17.164573669433594
v 0.14243802428245544 0 15.52010440826416
v 0.14243802428245544 0 13.87563419342041
v -0.16462069749832153 0 13.87563419342041
v -0.14100079238414764 0 15.014113426208496
v -0.11738089472055435 0 16.152591705322266
v -0.09376099705696106 0 17.291070938110352
v -0.07014109194278717 0 18.429550170898438
v -0.046521194279193878 0 19.568029403686523
v -0.022901291027665138 0 20.706508636474609
v 0.00071861041942611337 0 21.844987869262695
v 0.024338511750102043 0 22.983467102050781
v 0.047958415001630783 0 24.1219482421875
v 0.071578316390514374 0 25.260427474975586
v 0.095198214054107666 0 26.398906707763672
v 0.11881811916828156 0 27.537385940551758
v 0.14243802428245544 0 44.458683013916016
v -3.2352080345153809 0 44.458683013916016
v -6.61285400390625 0 44.458683013916016
v 0.14243802428245544 0 29.105747222900391
v -3.2352080345153809 0 30.948099136352539
v -6.61285400390625 0 32.790451049804688
v -6.61285400390625 0 13.87563419342041
v -0.16462069749832153 0 13.138692855834961
v -3.3887372016906738 0 13.138692855834961
v -6.61285400390625 0 13.138692855834961
v -4.4634428024291992 0 13.87563419342041
v -2.3140318393707275 0 13.87563419342041
v -6.61285400390625 0 17.314691543579102
v -6.61285400390625 0 28.675865173339844
v -3.2352080345153809 0 28.675865173339844
v -3.3887372016906738 0 15.595162391662598
v -6.61285400390625 0 22.995277404785156
v -3.3119726181030273 0 22.135513305664062
v -1.5463849306106567 0 28.675865173339844
v -1.661531925201416 0 21.705631256103516
v -3.2735903263092041 0 25.405689239501953
v -1.6039584875106812 0 25.19074821472168
v -3.3503549098968506 0 18.865337371826172
v -1.7191054821014404 0 18.220514297485352
v -7.1041479110717773 0 13.87563419342041
v -6.9403829574584961 0 15.021986961364746
v -6.776618480682373 0 16.168338775634766
v -6.5514421463012695 0 -12.285769462585449
v -6.5514421463012695 0 -19.593767166137695
v -6.7970890998840332 0 -12.285769462585449
v -6.6742653846740723 0 -15.939767837524414
v -10.051911354064941 0 -12.070828437805176
v -6.7970890998840332 0 -11.855886459350586
v -18.342496871948242 0 3.4356374740600586
v -21.842966079711914 0 -0.43330246210098267
v -14.166498184204102 0 3.4356374740600586
v -14.166498184204102 0 -0.9860081672668457
v -20.092731475830078 0 1.5011675357818604
v -15.701791763305664 0 -0.87546700239181519
v -17.237085342407227 0 -0.76492589712142944
v -18.772378921508789 0 -0.65438473224639893
v -20.307672500610352 0 -0.54384362697601318
v -7.1041479110717773 0 17.314691543579102
v -13.736616134643555 0 3.7426960468292236
v -18.342496871948242 0 3.7426960468292236
v -10.420381546020508 0 8.8091650009155273
v -7.1041479110717773 0 16.168338775634766
v -7.1041479110717773 0 15.021986961364746
v -16.039556503295898 0 3.7426960468292236
v -12.723322868347168 0 10.528694152832031
v -11.571852684020996 0 9.6689291000366211
v -12.147587776184082 0 10.098812103271484
v -9.3380002975463867 0 12.632045745849609
v -9.6258678436279297 0 13.276869773864746
v -10.996116638183594 0 9.2390470504760742
v -9.0501327514648438 0 11.987222671508789
v -17.789791107177734 0 -19.286708831787109
v -20.369085311889648 0 -11.855886459350586
v -19.079437255859375 0 -15.571297645568848
v -7.1041479110717773 0 8.5942239761352539
v -10.420381546020508 0 6.1684598922729492
v -7.1041479110717773 0 32.790451049804688
v -6.61285400390625 0 29.597040176391602
v -7.1041479110717773 0 29.597040176391602
v -6.61285400390625 0 31.725980758666992
v -6.61285400390625 0 30.661510467529297
v -7.1041479110717773 0 30.661510467529297
v -7.1041479110717773 0 31.725980758666992
v -6.61285400390625 0 29.35139274597168
v -6.61285400390625 0 29.105747222900391
v -7.1041479110717773 0 40.83538818359375
v -7.1041479110717773 0 48.880329132080078
v -18.710968017578125 0 39.238685607910156
v -30.317787170410156 0 48.880329132080078
v -12.907557487487793 0 40.037036895751953
v -7.1041479110717773 0 36.812919616699219
v -10.005852699279785 0 35.615390777587891
v -11.456705093383789 0 35.016628265380859
v -8.5550003051757812 0 33.404567718505859
v -9.2804269790649414 0 32.706008911132812
v -26.571670532226562 0 3.6198725700378418
v -16.837909698486328 0 10.467282295227051
v -16.837909698486328 0 16.608455657958984
v -17.72838020324707 0 -37.83349609375
v -19.842153549194336 0 -37.83349609375
v -21.955924987792969 0 -37.83349609375
v -21.955924987792969 0 -37.219379425048828
v -20.546743392944336 0 -37.424083709716797
v -19.137561798095703 0 -37.628791809082031
v -22.262985229492188 0 -33.2271728515625
v -22.109455108642578 0 -33.2271728515625
v -21.955924987792969 0 -33.2271728515625
v -20.546743392944336 0 -34.762615203857422
v -19.137561798095703 0 -36.298057556152344
v -22.109455108642578 0 -35.223278045654297
v -22.262985229492188 0 -37.219379425048828
v -22.262985229492188 0 -35.223278045654297
v -21.955924987792969 0 -28.314233779907227
v -19.842153549194336 0 -28.314233779907227
v -17.72838020324707 0 -28.314233779907227
v -32.344375610351562 0 -37.282577514648438
v -32.380142211914062 0 -42.625400543212891
v -26.085309982299805 0 -23.914241790771484
v -24.17414665222168 0 -37.250980377197266
v -24.17414665222168 0 -28.570709228515625
v -36.397548675537109 0 -32.369640350341797
v -34.370964050292969 0 -34.826107025146484
v -36.458961486816406 0 -29.299051284790039
v -34.401668548583984 0 -26.606647491455078
v -32.344375610351562 0 -23.914241790771484
v -32.344375610351562 0 -30.598409652709961
v -36.418022155761719 0 -31.346109390258789
v -36.438491821289062 0 -30.322580337524414
v -21.955924987792969 0 -24.015411376953125
v -21.587455749511719 0 -24.015411376953125
v -20.195455551147461 0 -24.015411376953125
v -19.171926498413086 0 -24.015411376953125
v -21.218984603881836 0 -23.708353042602539
v -21.218984603881836 0 -24.015411376953125
v -20.195455551147461 0 -23.708353042602539
v -19.171926498413086 0 -23.708353042602539
v -22.262985229492188 0 -23.708353042602539
v -21.740983963012695 0 -23.708353042602539
v -21.530975341796875 0 -21.804590225219727
v -30.317787170410156 0 -17.014472961425781
v -25.558376312255859 0 -18.457649230957031
v -28.201547622680664 0 -20.464357376098633
v -32.344375610351562 0 -17.014472961425781
v -32.344375610351562 0 -20.464357376098633
v -31.668846130371094 0 -17.014472961425781
v -30.993316650390625 0 -17.014472961425781
v -29.214841842651367 0 -23.914241790771484
v -30.272960662841797 0 -20.464357376098633
v -31.30866813659668 0 -20.464357376098633
v -30.802021026611328 0 -18.739416122436523
v -31.573198318481445 0 -18.739416122436523
v -29.237255096435547 0 -20.464357376098633
v -30.030843734741211 0 -18.739416122436523
v -37.073078155517578 0 -29.299051284790039
v -36.704608917236328 0 -32.369640350341797
v -36.827430725097656 0 -31.346109390258789
v -36.95025634765625 0 -30.322580337524414
v -36.458961486816406 0 -27.702346801757812
v -34.401668548583984 0 -25.808294296264648
v -36.704608917236328 0 -36.852695465087891
v -44.074016571044922 0 -36.852695465087891
v -40.389312744140625 0 -34.611167907714844
v -37.011669158935547 0 -37.282577514648438
v -40.020843505859375 0 -37.282577514648438
v -37.073078155517578 0 -28.869169235229492
v -37.073078155517578 0 -28.621294021606445
v -44.074016571044922 0 -28.621294021606445
v -40.57354736328125 0 -28.960172653198242
v -44.074016571044922 0 -32.736995697021484
v -40.481430053710938 0 -31.785669326782227
v -44.074016571044922 0 -30.679143905639648
v -40.527488708496094 0 -30.372920989990234
v -44.074016571044922 0 -34.794845581054688
v -40.435371398925781 0 -33.198417663574219
v -36.581783294677734 0 -24.506706237792969
v -37.073078155517578 0 -27.702346801757812
v -36.888843536376953 0 -24.506706237792969
v -36.520374298095703 0 -26.104526519775391
v -36.980960845947266 0 -26.104526519775391
v -37.134490966796875 0 -21.74317741394043
v -36.888843536376953 0 -21.74317741394043
v -36.888843536376953 0 -23.124942779541016
v -36.970726013183594 0 -23.585529327392578
v -37.052608489990234 0 -22.66435432434082
v -44.074016571044922 0 -28.314233779907227
v -39.406726837158203 0 -27.906309127807617
v -41.740371704101562 0 -28.110271453857422
v -42.277725219726562 0 -27.36235237121582
v -40.481430053710938 0 -26.410470962524414
v -38.685138702392578 0 -25.458587646484375
v -36.581783294677734 0 -19.77800178527832
v -34.463081359863281 0 -21.846122741699219
v -44.074016571044922 0 -20.146472930908203
v -44.074016571044922 0 -24.230354309082031
v -40.542842864990234 0 -23.677648544311523
v -44.074016571044922 0 -22.188413619995117
v -40.57354736328125 0 -22.311237335205078
v -44.074016571044922 0 -26.272293090820312
v -40.512138366699219 0 -25.044059753417969
v -41.760841369628906 0 -20.678707122802734
v -39.447666168212891 0 -21.210943222045898
v -37.073078155517578 0 -28.314233779907227
v -39.406726837158203 0 -28.314233779907227
v -41.740371704101562 0 -28.314233779907227
v -17.789791107177734 0 -19.593767166137695
v -20.369085311889648 0 -19.593767166137695
v -21.842966079711914 0 -1.477302074432373
v -21.842966079711914 0 -11.303181648254395
v -30.317787170410156 0 -16.707414627075195
v -20.798967361450195 0 -16.707414627075195
v -20.798967361450195 0 -14.37376880645752
v -32.774257659912109 0 -12.040122032165527
v -20.798967361450195 0 -12.040122032165527
v -31.13661003112793 0 -15.151650428771973
v -31.955432891845703 0 -13.59588623046875
v -26.172494888305664 0 -14.37376880645752
v -20.798967361450195 0 -15.540591239929199
v -25.558376312255859 0 -16.707414627075195
v -25.865436553955078 0 -15.540591239929199
v -26.786611557006836 0 -12.040122032165527
v -20.798967361450195 0 -13.206945419311523
v -26.47955322265625 0 -13.206945419311523
v -20.798967361450195 0 -17.014472961425781
v -25.558376312255859 0 -17.014472961425781
v -21.658731460571289 0 3.3128139972686768
v -20.553319931030273 0 3.353754997253418
v -19.447908401489258 0 3.3946962356567383
v -21.78155517578125 0 0.81540298461914062
v -21.720142364501953 0 2.0641083717346191
v -21.658731460571289 0 3.6198725700378418
v -20.553319931030273 0 3.6608138084411621
v -19.447908401489258 0 3.7017550468444824
v -14.381439208984375 0 10.467282295227051
v -24.19708251953125 0 3.6198725700378418
v -25.384376525878906 0 3.6198725700378418
v -19.586084365844727 0 7.0435771942138672
v -18.211997985839844 0 8.7554302215576172
v -22.188407897949219 0 5.3317251205444336
v -21.946598052978516 0 6.1876511573791504
v -18.899040222167969 0 7.8995037078857422
v -22.067502975463867 0 5.7596879005432129
v -22.334260940551758 0 3.6198725700378418
v -17.524953842163086 0 9.6113557815551758
v -21.825695037841797 0 6.6156144142150879
v -23.976064682006836 0 5.1177434921264648
v -21.765241622924805 0 6.8295960426330566
v -24.057147979736328 0 5.2247343063354492
v -16.725320816040039 0 -0.9860081672668457
v -19.284143447875977 0 -0.9860081672668457
v -21.842966079711914 0 -0.9860081672668457
v -22.027202606201172 0 -0.43330246210098267
v -22.027202606201172 0 1.4397556781768799
v -22.027202606201172 0 3.3128139972686768
v -23.009790420532227 0 3.3128139972686768
v -26.571670532226562 0 3.3128139972686768
v -22.702730178833008 0 3.3128139972686768
v -23.59320068359375 0 2.2381083965301514
v -22.395671844482422 0 3.3128139972686768
v -22.395671844482422 0 1.1634029150009155
v -22.395671844482422 0 -0.9860081672668457
v -25.384376525878906 0 3.3128139972686768
v -24.19708251953125 0 3.3128139972686768
v -23.78767204284668 0 0.44693252444267273
v -25.179670333862305 0 1.8798732757568359
v -32.344375610351562 0 -16.707414627075195
v -31.668846130371094 0 -16.707414627075195
v -30.993316650390625 0 -16.707414627075195
v -39.406726837158203 0 -17.014472961425781
v -37.994255065917969 0 -18.396238327026367
v -37.134490966796875 0 -20.822002410888672
v -36.888843536376953 0 -20.822002410888672
v -36.888843536376953 0 -20.484237670898438
v -36.888843536376953 0 -20.146472930908203
v -39.447666168212891 0 -20.596824645996094
v -41.760841369628906 0 -20.371648788452148
v -39.406726837158203 0 -19.77800178527832
v -39.406726837158203 0 -18.396238327026367
v -23.009790420532227 0 3.6198725700378418
v -30.317787170410156 0 3.6198725700378418
v -30.317787170410156 0 26.250101089477539
v -32.559314727783203 0 -16.707414627075195
v -32.052669525146484 0 -15.540591239929199
v -32.774257659912109 0 -16.707414627075195
v -32.774257659912109 0 -14.37376880645752
v -30.37919807434082 0 3.3128139972686768
v -30.37919807434082 0 1.1634029150009155
v -30.37919807434082 0 -0.9860081672668457
f 7 1 3 4 5 2 6
f 11 2 9 12 10 8
f 20 13 15 16 1 17 18 14 19
f 24 29 22 26 27 21 25 23 28
f 32 31 1 16 23
f 18 17 1 7 6 2 34 33 35 36 14
f 37 41 10 12 9 38 42 45 39 40
f 62 58 38 9 60 59 61
f 67 63 65 66 64
f 71 31 32 23 25 21
f 26 22 72 73 21 27
f 75 74 78 76 77
f 10 41 37 40 39 80 81 82 83 79
f 88 80 85 86 87 84
f 11 8 96 89 92 93 94 95 90 91 2
f 82 81 80 88 84 97 98
f 102 89 100 101 99
f 92 89 104 105 106 103 90 95 94 93
f 108 107 109 106 105 104 89 102 99
f 114 111 113 76 78 74 112
f 114 112 118 119 116 120 121 117 115 111
f 123 76 113 111
f 127 124 117 121 120 116 125 126
f 19 14 128 129 130 112 13 20
f 91 90 33 34 2
f 135 132 131 133 134
f 139 136 137 140 138 70
f 144 145 142 143 146 141
f 147 150 151 148 149 145 144 141
f 67 64 136 139 70 63
f 159 152 153 154 155 156 134 138 157 158
f 156 155 154 162 160 161 132 135 134
f 167 169 158 157 138 140 137 168
f 151 150 147 170 167 168 137 171
f 185 188 175 178 179 180 181 182 183 184 173 176 177 172 186 174
f 203 194 198 199 196 200 197 201 195 202
f 200 196 204 197
f 206 207 205 194 203 202 195
f 127 126 125 208 209 210 211 124
f 213 212 209 208 125 215 216 214
f 198 194 124 211 218 217 196 199
f 219 141 146 143 220
f 222 221 224 167 170 147 223 214
f 231 225 227 229 230 228 226
f 233 232 234 236 237 235
f 244 238 242 243 240 241 245 246 239
f 240 243 242 238 249 248 247
f 253 254 251 252 255 250
f 260 256 258 254 253 250 257 259
f 262 261 265 263 264
f 269 239 246 245 241 268 267 266
f 241 271 260 259 257 270 268
f 278 272 274 275 276 273 277
f 282 283 279 284 280 281 272 278 277 273
f 287 239 269 266 285 280 288 14 286
f 292 250 255 252 290 291 289
f 300 261 58 295 296 297 294 293 298 299
f 301 302 303 304 305 289 291 290 252
f 304 303 306 308 309 307 289 305
f 313 268 311 312 307 309 314 310
f 316 315 317 263 265 261 300 299 298 293
f 282 273 319 279 283
f 324 320 322 323 321
f 326 327 14 288 280 284 279 325
f 333 329 328 330 331 332 320 324 321
f 341 336 320 332 331 330 338 337 339 340
f 311 268 270 257 307 312
f 346 14 327 326 325 344 336 343 342 345
f 347 239 287 286 14 36 35 33
f 351 116 119 118 112 130 129 128 349 348 350
f 354 358 355 359 352 356 357 353
f 362 352 359 355 363
f 367 348 365 357 356 352 364 366
f 368 116 351 350 348 367 366 364 369
f 375 371 376 377 370 372 373 221 374
f 385 221 222 214 216 215 125 383 382 384
f 384 382 371 375 374 221 385
f 389 393 390 396 387 391 392 386 388
f 398 397 382 383 125 399
f 370 377 376 371 386 392 391 387
f 404 400 402 403 401
f 405 406 407 400 404 401
f 413 14 346 345 342 410 409 411 412 408
f 341 340 414 342 343 336
f 416 415 420 418 421 419 417
f 425 422 426 427 423 116 368 369 424
f 398 399 428 429 397
f 432 430 433 431 419 421 418
f 406 434 422 425 424 369 400 407
f 438 435 436 437
f 228 230 439 440 226
f 443 455 445 447 448 449 450 451 452 453 446 444 442 441
f 457 462 463 459 442 460 461 458
f 447 445 464 173 184 183 182 181 180 179 178 175 465 446 453 452 451 450 449 448
f 472 172 177 176 173 470 471
f 477 457 474 475 476 473
f 479 478 480 458 461 460 442 444 446
f 488 459 463 462 457 477 473 487
f 492 493 490 491 494 489
f 487 473 495 496 459 488
f 494 491 498 497 499 500 489
f 505 502 501 500 499 497 503 504
f 510 506 508 493 492 489 507 509
f 511 458 480 478 512
f 518 513 514 519 520 521 515 516 517
f 512 478 522 524 525 523 511
f 530 526 527 528 529 511 523 525
f 534 528 533 531 532 515 521 520 519 514
f 514 511 529 528 534
f 537 538 236 234 232 525 524 535 536
f 535 524 539 540 541 236 538 537 536
f 548 542 544 491 547 546 545 543
f 548 543 550 549 542
f 497 498 491 544 542
f 554 551 553 543 552
f 556 555 560 557 558 559
f 546 547 491 565 562 563 564 561
f 569 567 566 568 506
f 509 507 570 567 569 506 510
f 576 571 502 573 574 572 575
f 577 567 570 507
f 591 579 578 584 585 581 582 583 586 587 588 580 589 590
f 578 592 593 581 585 584
f 598 594 596 597 595
f 599 601 602 603 604 600
f 573 502 505 504 503 605 572 574
f 586 583 607 608 609 610 611 612 613 606 579 591 590 589 580 588 587
f 618 615 614 606 613 612 611 610 609 608 607 583 617 616
f 624 621 616 617 583 622 623
f 625 626 627 549 550 543 553 551
f 605 503 628 629 572
f 631 630 621 632 633
f 626 625 634 635 549 627
f 578 579 600 604 603
f 639 636 640 606 614 638 637
f 643 642 645 594 598 595 647 644
f 648 637 638 614
f 647 595 649 650 651 652 644
f 654 653 630 631 633
f 557 560 657 656 561 658 659 655
f 661 660 662 663 664 225 231 226
f 668 665 660 661 667 666
f 525 665 668 666 526 530
f 672 225 664 663 662 660 669 670 671
f 676 674 673 677 661 373 675
f 683 674 676 675 373 681 682 680 679 678
f 685 666 667 661 677 673 684
f 708 688 711 666 685 684 745 746 687 747 748 749 750 686 727 715 731 700 735 719 739 696 743 723 704 692
f 747 687 751 752 753 686 750 749 748
f 754 756 674 683 678 757 755
f 758 562 674 756 754
f 759 760 755 757 678
f 745 684 761 762 763 687 746
f 765 764 768 680 682 681 373 767 766
f 769 531 533 528
f 774 770 766 773 772 771
f 776 775 777 778 771
f 372 370 779 773 766 767 373
f 390 780 781 782 387 396
f 759 783 785 786 784
f 787 788 680 768 764
f 789 680 788 787 791 790 792
f 793 790 791 787
f 778 777 794 774 771
f 797 755 760 759 784 786 796 795
f 799 798 659 658 561 564 563 562 800
f 802 801 559 558 557 803
f 799 807 808 809 805 806 810 811 812 804
f 818 814 815 812 811 810 806 817 813
f 822 821 820 632 621
f 652 651 820 821 644
f 825 823 824 813 817 806
f 623 622 826 821 822 621 624
f 808 807 799 800 562 827 809
f 832 823 825 806
f 758 754 833 834 835 827 562
f 839 843 840 844 837 841 842 836 838
f 849 853 827 835 834 850 851 848 847
f 797 795 855 755
f 860 622 857 859 847 858 856
f 863 861 862 856
f 860 856 821 826 622
f 863 856 858 847 848 864 861
f 848 851 850 834 836 842 841 837
f 868 865 869 866 867 837 844 840
f 872 423 427 426 422 431 873 871
f 874 877 878 294 875 876 59
f 883 880 879 881 882
f 884 886 877 874 885 887 888 882
f 895 889 893 894 891 892 896 897 890
f 899 898 900 880 883 882 888 887
f 902 889 895 890
f 896 892 903 904 905 310 890 897
f 913 914 310 905 904 906 908 915 916 909
f 922 908 891 919 920 917 918 921
f 925 909 916 915 908 922 921 924 923
f 926 927 917 920 919 891 894 893 889
f 939 928 940 930 937 931 935 932 933 934 929
f 302 301 942 303
f 59 943 944 946 947 945
f 874 59 948 950 952 951 949
f 953 950 948 59 945 947
f 958 954 961 956 959 957 960 955
f 959 956 950 953 962 957
f 967 971 964 968 969 963 965 966 970
f 976 974 975 923 951 952 950
f 978 977 917 927 926
f 980 979 982 983 984 981
f 295 58 62 61 59 876 875 294 297 296
f 986 987 988 984 983 982 985
f 994 989 993 991 992 995 990
f 997 996 999 1000 1001 1002 998
f 932 909 1003 974 1004
f 1003 909 925 923 975 974
f 1008 1005 1006 1007 929 934 933 932 1004 974
f 1011 1009 929 1010 1012 1014 1015 1013
f 1016 1001 1000 999
f 1017 998 1002 1001 1018 1019
f 1020 996 997 998
f 1022 1021 990 995 992
f 1023 989 994 990 1024 1025
f 1027 1026 1031 1009 1029 1030 1028
f 993 989 1032 991
f 1013 1030 1029 1009 1011
f 1033 409 410 342
f 974 1034 1036 1037 1035 1005 1008
f 1037 1036 1034 1038 984 1040 1041 1039 1042 1035
f 1040 984 988 987 1043 1039 1041
f 1045 1044 1046 1035 1042 1039
f 1049 1050 1048 1051 1047 1052 1044 1045
f 1054 1053 1057 1055 1056
f 1028 1035 1046 1044 1058
f 1063 1059 1061 1062 1060
f 1014 1012 1059 1065 1066 1064 1013 1015
f 1066 1065 1059 1063 1060 1067 1068
f 1006 1005 1012 1010 929 1007
f 1027 1028 1058 1070 1069 1026
f 962 953 1071 1072 957
f 1077 1073 1075 1076 1074
f 1078 1073 1081 1079 1080 1082
f 1083 1081 1073 1077 1074
f 1088 1084 1086 1087 1085
f 1091 1080 1089 1090 955
f 1091 955 960 957 1078 1082 1080
f 1095 1092 1097 954 958 955 1096 1093 1094
f 1099 1098 1101 1093 1084 1100
f 1108 1109 1103 1106 1102 1110 1104 1107 1105
f 1088 1085 1111 1100 1084
f 1118 1112 1116 1114 1119 1120 1121 1122 1123 1124 1115 1125 1113 1117
f 1120 1119 1114 1126 1127 1128 1129 1130 1115 1124 1123 1122 1121
f 1132 1131 1112 1118 1117 1113
f 1135 1133 1114 1116 1112 1134
f 1140 1136 1138 1139 1137
f 1143 1141 1142 1136 1140 1137
f 1146 1147 1092 1095 1094 1093 1101 1098 1144 1133
f 1153 1151 1152 1092 1147 1146 1133 1135 1134
f 1160 1155 1157 1158 1159 1156
f 1165 1161 1163 1164 1162
f 963 1166 1167 1162 1048 1050 1049 1045
f 1168 1161 1165 1162 1167 1166 963 969 968 964
f 1108 1105 1169 1171 1172 1170 1103 1109
f 1173 1102 1106 1103
f 1174 1105 1107 1104
f 1176 1047 1051 1048 1170 1177 1175
f 1057 1053 1178 1180 1179 1055
f 1183 1181 1184 1182 1179 1180 1178
f 1183 1178 1047 1176 1175 1181
f 1171 1169 1175 1177 1170 1172
f 1190 1182 1184 1181 1187 1188 1186 1185 1189
f 1195 1193 1192 1194 1137 1155
f 1194 1192 1196 1191 1141 1143 1137
f 1197 1193 1198 1156
f 1160 1156 1198 1193 1195 1155
f 1199 1200 1202 1201
f 1207 1203 1205 1201 1202 1200 1206 1204
f 1196 1192 1208 1211 1209 1210 1191
f 1210 1209 1212 1213 1191
f 1220 1214 1216 1213 1212 1215 1217 1218 1219
f 1205 1203 1209 1211 1208 1201
f 1222 1221 1203 1207 1204
f 1228 1215 1224 1225 1229 1223 1226 1227
f 1237 1230 1235 1213 1233 1231 1232 1186 1188 1187 1181
f 1070 1058 1182 1190 1189 1185 1069
f 1241 408 412 411 409 1239 1019 1018 1240
f 1242 418 420 415
f 432 418 1243 1244 430
f 1245 1248 1249 1246 408 1247 1026
f 1031 1026 1247 408 1250 1024 1009
f 1025 1024 1250 408 1241 1240 1018 1251
f 872 871 1246 1256 423
f 871 873 431 433 430
f 1248 1245 1258 1259 1257 1260 1261 1246 1249
f 1260 1257 1262 1263 1264 423 1256 1246 1261
f 1268 1265 1257 1259 1258 1245 1266 1267
f 1269 1274 423 1264 1263 1262 1270 1271 1272 399 1276
f 1285 1265 1268 1284 1286 1287
f 1288 1265 1285 1287 1290 1289
f 1303 1297 1299 1298 1300 1295 1294 1293 1304 1296
f 1270 1262 1308 1309 1307 1310 1311 1306 1271
f 1312 1311 1310 1307 1314 1315 1316 1313
f 1321 1317 1319 1322 1320 1318
f 1307 1309 1308 1262 1324 1323 1319
f 1316 1315 1325 1326 1327 1313
f 1320 1322 1319 1323 1324 1329 1328
f 1332 1330 1331 1317 1321 1318
f 1343 1347 1333 1334 1335 1336 1337 1338 1339 1340 1341 1342 428 399 1272 1271
f 438 437 1352 1353 1354 1355 1356 1357 1358 1359 1360 1333 1361 1351 1362 435
f 792 790 1351 1364 1363 789
f 1353 1352 437 428 1342 1341 1340 1339 1338 1337 1336 1335 1334 1333 1360 1359 1358 1357 1356 1355 1354
f 1364 1351 1361 1333 1366 1365 1367 1363
f 1390 1368 1369 1370 1371 1372 1373 1374 1375 1376 1377 1378 1379 1380 1381 1382 1383 1384 1385 1386 1387 1388 1389
f 1392 1391 1394 1395 1396 1393
f 1402 1378 1398 1399 1400 1397 1401
f 1387 1386 1385 1384 1383 1382 1381 1380 1379 1378 1406 1403 1407 1404 1405 1409 1368 1390 1389 1388
f 1401 1397 1415 1416 1417 1403 1406 1378 1402
f 1418 1419 1421 1420
f 1313 1327 1326 1422 1420 1421 1419
f 1423 1420 1422 1326
f 1431 1432 1425 1428 1424 1426 1427 1429 1430
f 1435 1440 1433 1437 1438 1415 1436 1434 1439
f 1332 1318 1447 1449 1448 1330
f 1451 1450 1363 1367 1365 1434
f 1396 1455 1456 1453 1454 1457 1458 1452
f 1460 1459 1455 1396 1395 1394
f 1437 1433 1403 1417 1416 1415 1438
f 1461 1466 1458 1457 1454 1463 1464 1462
f 1473 1454 1433 1472 1471
f 1450 1451 1434 1436 1415
f 1479 1474 1475 1476 1477 1478
f 1479 1478 1477 1485 1480 1481 1482 1483 1484 1474
f 1486 1487 1480 1485 1477
f 1483 1482 1488 1489 1490 1474 1484
f 1233 1213 1492 1491 1231
f 1494 1231 1493 1495 1480 1487 1486
f 1232 1231 1494 1486 1186
f 1216 1214 1496 1497 1491 1492 1213
f 1503 1498 1499 1500 1501 1491 1497 1496 1502
f 1506 1507 1293 1294 1295 1504 1505
f 1508 1510 1511 1324 1293 1507 1506 1509
f 1510 1513 1512 1514 1328 1329 1324 1511
f 1516 1328 1514 1512 1493 1517 1515
f 1512 1480 1495 1493
f 1500 1519 1518 1520 1521 1515 1517 1493 1522
f 1498 1503 1502 1496 1530 1531 1532 1529
f 1499 1498 1533 1534 1500
f 1537 1530 1535 1536
f 1538 1223 1229 1225 1539
f 1541 1540 1529 1543 1542
f 1544 1546 1542 1543 1529 1532 1531 1530 1537 1536 1548
f 1217 1215 1228 1227 1226 1223 1214 1220 1219 1218
f 1553 1533 1551 1554 1552 1550
f 1558 1559 1555 1556 1557 1552
f 1565 1552 1554 1551 1561 1562 1560 1563 1564
f 1567 1500 1534 1533 1553 1550 1566
f 1569 1571 1568 1575 1576 1555 1559 1558 1552 1565 1564 1563 1560 1573
f 1579 1560 1562 1561 1551 1577 1578
f 1449 1447 1580 1581 1448
f 1582 1365 1366 1333 1583
f 1586 1592 1585 1593 1584 1589 1590 1587 1595 1588 1596
f 1599 1598 1328 1516 1515
f 1602 1424 1428 1425 1603 1604 1600 1601
f 1605 1606 1607 1435 1424 1602 1601 1600
f 1433 1608 1605 1617 1609 1610 1471 1472
f 1429 1427 1623 1624 1625 1425 1432 1431 1430
f 1603 1425 1626 1627 1628 1600 1604
f 1631 1633 1634 1635 1638 1639 1630 1636 1637 1629
f 1642 1584 1515 1521 1520 1518 1640 1641
f 1643 1518 1519 1500 1567 1566 1644
f 1646 1645 1649 1650 1568 1648 1647
f 1649 1645 1555 1576 1575 1568 1650
f 1652 1643 1644 1566 1651
f 1609 1653 1629 1637 1636 1630 1471 1610
f 1471 1654 1655 1464 1463 1454 1473
f 1656 1658 1659 1587 1590 1589 1584 1642 1641
f 1630 1639 1638 1635 1662 1661 1660
f 1606 1605 1608 1433 1440 1435 1607
f 913 909 268 313 310 914
f 69 68 63 70
f 1191 1175 1169 1141
f 1185 1291 1292 1069
