# Rhino

g Door
v 55.936172485351562 7.0319223403930664 -67
v 55.936172485351562 5.0319223403930664 -67
v 54.936172485351562 7.0319223403930664 -67
v 54.936172485351562 5.0319223403930664 -67
f 4 2 1 3
g Door
v 47.570774078369141 7.0319223403930664 -70.999954223632812
v 47.570774078369141 5.0319223403930664 -70.999954223632812
v 46.570774078369141 7.0319223403930664 -70.999954223632812
v 46.570774078369141 5.0319223403930664 -70.999954223632812
f 8 6 5 7
g Door
v 42 7.0319223403930664 -79.790496826171875
v 42 5.0319223403930664 -79.790496826171875
v 42 7.0319223403930664 -80.790496826171875
v 42 5.0319223403930664 -80.790496826171875
f 12 10 9 11
g Door
v 41.912467956542969 7.0319223403930664 -94
v 41.912467956542969 5.0319223403930664 -94
v 40.912467956542969 7.0319223403930664 -94
v 40.912467956542969 5.0319223403930664 -94
f 16 14 13 15
g Door
v 34.387317657470703 7.0319223403930664 -56.99993896484375
v 34.387317657470703 5.0319223403930664 -56.99993896484375
v 33.387317657470703 7.0319223403930664 -56.99993896484375
v 33.387317657470703 5.0319223403930664 -56.99993896484375
f 20 18 17 19
g Door
v 47.570774078369141 7.0319223403930664 -79
v 47.570774078369141 5.0319223403930664 -79
v 46.570774078369141 7.0319223403930664 -79
v 46.570774078369141 5.0319223403930664 -79
f 24 22 21 23
g Door
v 48.000175476074219 7.0319223403930664 -73.105560302734375
v 48.000175476074219 5.0319223403930664 -73.105560302734375
v 48.000175476074219 7.0319223403930664 -74.105560302734375
v 48.000175476074219 5.0319223403930664 -74.105560302734375
f 28 26 25 27
g Door
v 33.138729095458984 7.0319223403930664 -70.997627258300781
v 33.138729095458984 5.0319223403930664 -70.997627258300781
v 32.138729095458984 7.0319223403930664 -70.997627258300781
v 32.138729095458984 5.0319223403930664 -70.997627258300781
f 32 30 29 31
g Door
v 43.092910766601562 7.0319223403930664 -87.000167846679688
v 43.092910766601562 5.0319223403930664 -87.000167846679688
v 42.092910766601562 7.0319223403930664 -87.000167846679688
v 42.092910766601562 5.0319223403930664 -87.000167846679688
f 36 34 33 35
g Door
v 49.087051391601562 7.0319223403930664 -86.999847412109375
v 49.087051391601562 5.0319223403930664 -86.999847412109375
v 48.087051391601562 7.0319223403930664 -86.999847412109375
v 48.087051391601562 5.0319223403930664 -86.999847412109375
f 40 38 37 39
g Door
v 47.999851226806641 7.0319223403930664 -65.635406494140625
v 47.999851226806641 5.0319223403930664 -65.635406494140625
v 47.999851226806641 7.0319223403930664 -66.635406494140625
v 47.999851226806641 5.0319223403930664 -66.635406494140625
f 44 42 41 43
g Door
v -3.9361717700958252 7.0319223403930664 -67
v -3.9361717700958252 5.0319223403930664 -67
v -2.9361717700958252 7.0319223403930664 -67
v -2.9361717700958252 5.0319223403930664 -67
f 48 47 45 46
g Door
v 4.4292259216308594 7.0319223403930664 -70.999954223632812
v 4.4292259216308594 5.0319223403930664 -70.999954223632812
v 5.4292259216308594 7.0319223403930664 -70.999954223632812
v 5.4292259216308594 5.0319223403930664 -70.999954223632812
f 52 51 49 50
g Door
v 9.9999990463256836 7.0319223403930664 -79.790496826171875
v 9.9999990463256836 5.0319223403930664 -79.790496826171875
v 9.9999990463256836 7.0319223403930664 -80.790496826171875
v 9.9999990463256836 5.0319223403930664 -80.790496826171875
f 56 55 53 54
g Door
v 10.087533950805664 7.0319223403930664 -94
v 10.087533950805664 5.0319223403930664 -94
v 11.087533950805664 7.0319223403930664 -94
v 11.087533950805664 5.0319223403930664 -94
f 60 59 57 58
g Door
v 17.61268424987793 7.0319223403930664 -56.99993896484375
v 17.61268424987793 5.0319223403930664 -56.99993896484375
v 18.61268424987793 7.0319223403930664 -56.99993896484375
v 18.61268424987793 5.0319223403930664 -56.99993896484375
f 64 63 61 62
g Door
v 4.4292259216308594 7.0319223403930664 -79
v 4.4292259216308594 5.0319223403930664 -79
v 5.4292259216308594 7.0319223403930664 -79
v 5.4292259216308594 5.0319223403930664 -79
f 68 67 65 66
g Door
v 3.9998245239257812 7.0319223403930664 -73.105560302734375
v 3.9998245239257812 5.0319223403930664 -73.105560302734375
v 3.9998245239257812 7.0319223403930664 -74.105560302734375
v 3.9998245239257812 5.0319223403930664 -74.105560302734375
f 72 71 69 70
g Door
v 18.861270904541016 7.0319223403930664 -70.997627258300781
v 18.861270904541016 5.0319223403930664 -70.997627258300781
v 19.861270904541016 7.0319223403930664 -70.997627258300781
v 19.861270904541016 5.0319223403930664 -70.997627258300781
f 76 75 73 74
g Door
v 8.9070892333984375 7.0319223403930664 -87.000167846679688
v 8.9070892333984375 5.0319223403930664 -87.000167846679688
v 9.9070892333984375 7.0319223403930664 -87.000167846679688
v 9.9070892333984375 5.0319223403930664 -87.000167846679688
f 80 79 77 78
g Door
v 2.9129476547241211 7.0319223403930664 -86.999847412109375
v 2.9129476547241211 5.0319223403930664 -86.999847412109375
v 3.9129476547241211 7.0319223403930664 -86.999847412109375
v 3.9129476547241211 5.0319223403930664 -86.999847412109375
f 84 83 81 82
g Door
v 4.0001487731933594 7.0319223403930664 -65.635406494140625
v 4.0001487731933594 5.0319223403930664 -65.635406494140625
v 4.0001487731933594 7.0319223403930664 -66.635406494140625
v 4.0001487731933594 5.0319223403930664 -66.635406494140625
f 88 87 85 86
g Door
v 55.936172485351562 7.0319223403930664 -35.000003814697266
v 55.936172485351562 5.0319223403930664 -35.000003814697266
v 54.936172485351562 7.0319223403930664 -35.000003814697266
v 54.936172485351562 5.0319223403930664 -35.000003814697266
f 92 91 89 90
g Door
v 47.570774078369141 7.0319223403930664 -31.000049591064453
v 47.570774078369141 5.0319223403930664 -31.000049591064453
v 46.570774078369141 7.0319223403930664 -31.000049591064453
v 46.570774078369141 5.0319223403930664 -31.000049591064453
f 96 95 93 94
g Door
v 42 7.0319223403930664 -22.209499359130859
v 42 5.0319223403930664 -22.209499359130859
v 42 7.0319223403930664 -21.209499359130859
v 42 5.0319223403930664 -21.209499359130859
f 100 99 97 98
g Door
v 41.912467956542969 7.0319223403930664 -8
v 41.912467956542969 5.0319223403930664 -8
v 40.912467956542969 7.0319223403930664 -8
v 40.912467956542969 5.0319223403930664 -8
f 104 103 101 102
g Door
v 34.387317657470703 7.0319223403930664 -45.00006103515625
v 34.387317657470703 5.0319223403930664 -45.00006103515625
v 33.387317657470703 7.0319223403930664 -45.00006103515625
v 33.387317657470703 5.0319223403930664 -45.00006103515625
f 108 107 105 106
g Door
v 47.570774078369141 7.0319223403930664 -23.000001907348633
v 47.570774078369141 5.0319223403930664 -23.000001907348633
v 46.570774078369141 7.0319223403930664 -23.000001907348633
v 46.570774078369141 5.0319223403930664 -23.000001907348633
f 112 111 109 110
g Door
v 48.000175476074219 7.0319223403930664 -28.894441604614258
v 48.000175476074219 5.0319223403930664 -28.894441604614258
v 48.000175476074219 7.0319223403930664 -27.894441604614258
v 48.000175476074219 5.0319223403930664 -27.894441604614258
f 116 115 113 114
g Door
v 33.138729095458984 7.0319223403930664 -31.002368927001953
v 33.138729095458984 5.0319223403930664 -31.002368927001953
v 32.138729095458984 7.0319223403930664 -31.002368927001953
v 32.138729095458984 5.0319223403930664 -31.002368927001953
f 120 119 117 118
g Door
v 43.092910766601562 7.0319223403930664 -14.999832153320312
v 43.092910766601562 5.0319223403930664 -14.999832153320312
v 42.092910766601562 7.0319223403930664 -14.999832153320312
v 42.092910766601562 5.0319223403930664 -14.999832153320312
f 124 123 121 122
g Door
v 49.087051391601562 7.0319223403930664 -15.000154495239258
v 49.087051391601562 5.0319223403930664 -15.000154495239258
v 48.087051391601562 7.0319223403930664 -15.000154495239258
v 48.087051391601562 5.0319223403930664 -15.000154495239258
f 128 127 125 126
g Door
v 47.999851226806641 7.0319223403930664 -36.364593505859375
v 47.999851226806641 5.0319223403930664 -36.364593505859375
v 47.999851226806641 7.0319223403930664 -35.364593505859375
v 47.999851226806641 5.0319223403930664 -35.364593505859375
f 132 131 129 130
g Door
v -3.9361717700958252 7.0319223403930664 -35.000003814697266
v -3.9361717700958252 5.0319223403930664 -35.000003814697266
v -2.9361717700958252 7.0319223403930664 -35.000003814697266
v -2.9361717700958252 5.0319223403930664 -35.000003814697266
f 136 134 133 135
g Door
v 4.4292259216308594 7.0319223403930664 -31.000049591064453
v 4.4292259216308594 5.0319223403930664 -31.000049591064453
v 5.4292259216308594 7.0319223403930664 -31.000049591064453
v 5.4292259216308594 5.0319223403930664 -31.000049591064453
f 140 138 137 139
g Door
v 9.9999990463256836 7.0319223403930664 -22.209499359130859
v 9.9999990463256836 5.0319223403930664 -22.209499359130859
v 9.9999990463256836 7.0319223403930664 -21.209499359130859
v 9.9999990463256836 5.0319223403930664 -21.209499359130859
f 144 142 141 143
g Door
v 10.087533950805664 7.0319223403930664 -8
v 10.087533950805664 5.0319223403930664 -8
v 11.087533950805664 7.0319223403930664 -8
v 11.087533950805664 5.0319223403930664 -8
f 148 146 145 147
g Door
v 17.61268424987793 7.0319223403930664 -45.00006103515625
v 17.61268424987793 5.0319223403930664 -45.00006103515625
v 18.61268424987793 7.0319223403930664 -45.00006103515625
v 18.61268424987793 5.0319223403930664 -45.00006103515625
f 152 150 149 151
g Door
v 4.4292259216308594 7.0319223403930664 -23.000001907348633
v 4.4292259216308594 5.0319223403930664 -23.000001907348633
v 5.4292259216308594 7.0319223403930664 -23.000001907348633
v 5.4292259216308594 5.0319223403930664 -23.000001907348633
f 156 154 153 155
g Door
v 3.9998245239257812 7.0319223403930664 -28.894441604614258
v 3.9998245239257812 5.0319223403930664 -28.894441604614258
v 3.9998245239257812 7.0319223403930664 -27.894441604614258
v 3.9998245239257812 5.0319223403930664 -27.894441604614258
f 160 158 157 159
g Door
v 18.861270904541016 7.0319223403930664 -31.002368927001953
v 18.861270904541016 5.0319223403930664 -31.002368927001953
v 19.861270904541016 7.0319223403930664 -31.002368927001953
v 19.861270904541016 5.0319223403930664 -31.002368927001953
f 164 162 161 163
g Door
v 8.9070892333984375 7.0319223403930664 -14.999832153320312
v 8.9070892333984375 5.0319223403930664 -14.999832153320312
v 9.9070892333984375 7.0319223403930664 -14.999832153320312
v 9.9070892333984375 5.0319223403930664 -14.999832153320312
f 168 166 165 167
g Door
v 2.9129476547241211 7.0319223403930664 -15.000154495239258
v 2.9129476547241211 5.0319223403930664 -15.000154495239258
v 3.9129476547241211 7.0319223403930664 -15.000154495239258
v 3.9129476547241211 5.0319223403930664 -15.000154495239258
f 172 170 169 171
g Door
v 4.0001487731933594 7.0319223403930664 -36.364593505859375
v 4.0001487731933594 5.0319223403930664 -36.364593505859375
v 4.0001487731933594 7.0319223403930664 -35.364593505859375
v 4.0001487731933594 5.0319223403930664 -35.364593505859375
f 176 174 173 175
g Door
v 55.936172485351562 2.0290684700012207 -67
v 55.936172485351562 0.029068488627672195 -67
v 54.936172485351562 2.0290684700012207 -67
v 54.936172485351562 0.029068488627672195 -67
f 180 178 177 179
g Door
v 47.570774078369141 2.0290684700012207 -70.999954223632812
v 47.570774078369141 0.029068488627672195 -70.999954223632812
v 46.570774078369141 2.0290684700012207 -70.999954223632812
v 46.570774078369141 0.029068488627672195 -70.999954223632812
f 184 182 181 183
g Door
v 42 2.0290684700012207 -79.790496826171875
v 42 0.029068488627672195 -79.790496826171875
v 42 2.0290684700012207 -80.790496826171875
v 42 0.029068488627672195 -80.790496826171875
f 188 186 185 187
g Door
v 41.912467956542969 2.0290684700012207 -94
v 41.912467956542969 0.029068488627672195 -94
v 40.912467956542969 2.0290684700012207 -94
v 40.912467956542969 0.029068488627672195 -94
f 192 190 189 191
g Door
v 34.387317657470703 2.0290684700012207 -56.99993896484375
v 34.387317657470703 0.029068488627672195 -56.99993896484375
v 33.387317657470703 2.0290684700012207 -56.99993896484375
v 33.387317657470703 0.029068488627672195 -56.99993896484375
f 196 194 193 195
g Door
v 47.570774078369141 2.0290684700012207 -79
v 47.570774078369141 0.029068488627672195 -79
v 46.570774078369141 2.0290684700012207 -79
v 46.570774078369141 0.029068488627672195 -79
f 200 198 197 199
g Door
v 48.000175476074219 2.0290684700012207 -73.105560302734375
v 48.000175476074219 0.029068488627672195 -73.105560302734375
v 48.000175476074219 2.0290684700012207 -74.105560302734375
v 48.000175476074219 0.029068488627672195 -74.105560302734375
f 204 202 201 203
g Door
v 33.138729095458984 2.0290684700012207 -70.997627258300781
v 33.138729095458984 0.029068488627672195 -70.997627258300781
v 32.138729095458984 2.0290684700012207 -70.997627258300781
v 32.138729095458984 0.029068488627672195 -70.997627258300781
f 208 206 205 207
g Door
v 43.092910766601562 2.0290684700012207 -87.000167846679688
v 43.092910766601562 0.029068488627672195 -87.000167846679688
v 42.092910766601562 2.0290684700012207 -87.000167846679688
v 42.092910766601562 0.029068488627672195 -87.000167846679688
f 212 210 209 211
g Door
v 49.087051391601562 2.0290684700012207 -86.999847412109375
v 49.087051391601562 0.029068488627672195 -86.999847412109375
v 48.087051391601562 2.0290684700012207 -86.999847412109375
v 48.087051391601562 0.029068488627672195 -86.999847412109375
f 216 214 213 215
g Door
v 47.999851226806641 2.0290684700012207 -65.635406494140625
v 47.999851226806641 0.029068488627672195 -65.635406494140625
v 47.999851226806641 2.0290684700012207 -66.635406494140625
v 47.999851226806641 0.029068488627672195 -66.635406494140625
f 220 218 217 219
g Door
v -3.9361717700958252 2.0290684700012207 -67
v -3.9361717700958252 0.029068488627672195 -67
v -2.9361717700958252 2.0290684700012207 -67
v -2.9361717700958252 0.029068488627672195 -67
f 224 223 221 222
g Door
v 4.4292259216308594 2.0290684700012207 -70.999954223632812
v 4.4292259216308594 0.029068488627672195 -70.999954223632812
v 5.4292259216308594 2.0290684700012207 -70.999954223632812
v 5.4292259216308594 0.029068488627672195 -70.999954223632812
f 228 227 225 226
g Door
v 9.9999990463256836 2.0290684700012207 -79.790496826171875
v 9.9999990463256836 0.029068488627672195 -79.790496826171875
v 9.9999990463256836 2.0290684700012207 -80.790496826171875
v 9.9999990463256836 0.029068488627672195 -80.790496826171875
f 232 231 229 230
g Door
v 10.087533950805664 2.0290684700012207 -94
v 10.087533950805664 0.029068488627672195 -94
v 11.087533950805664 2.0290684700012207 -94
v 11.087533950805664 0.029068488627672195 -94
f 236 235 233 234
g Door
v 17.61268424987793 2.0290684700012207 -56.99993896484375
v 17.61268424987793 0.029068488627672195 -56.99993896484375
v 18.61268424987793 2.0290684700012207 -56.99993896484375
v 18.61268424987793 0.029068488627672195 -56.99993896484375
f 240 239 237 238
g Door
v 4.4292259216308594 2.0290684700012207 -79
v 4.4292259216308594 0.029068488627672195 -79
v 5.4292259216308594 2.0290684700012207 -79
v 5.4292259216308594 0.029068488627672195 -79
f 244 243 241 242
g Door
v 3.9998245239257812 2.0290684700012207 -73.105560302734375
v 3.9998245239257812 0.029068488627672195 -73.105560302734375
v 3.9998245239257812 2.0290684700012207 -74.105560302734375
v 3.9998245239257812 0.029068488627672195 -74.105560302734375
f 248 247 245 246
g Door
v 18.861270904541016 2.0290684700012207 -70.997627258300781
v 18.861270904541016 0.029068488627672195 -70.997627258300781
v 19.861270904541016 2.0290684700012207 -70.997627258300781
v 19.861270904541016 0.029068488627672195 -70.997627258300781
f 252 251 249 250
g Door
v 8.9070892333984375 2.0290684700012207 -87.000167846679688
v 8.9070892333984375 0.029068488627672195 -87.000167846679688
v 9.9070892333984375 2.0290684700012207 -87.000167846679688
v 9.9070892333984375 0.029068488627672195 -87.000167846679688
f 256 255 253 254
g Door
v 2.9129476547241211 2.0290684700012207 -86.999847412109375
v 2.9129476547241211 0.029068488627672195 -86.999847412109375
v 3.9129476547241211 2.0290684700012207 -86.999847412109375
v 3.9129476547241211 0.029068488627672195 -86.999847412109375
f 260 259 257 258
g Door
v 4.0001487731933594 2.0290684700012207 -65.635406494140625
v 4.0001487731933594 0.029068488627672195 -65.635406494140625
v 4.0001487731933594 2.0290684700012207 -66.635406494140625
v 4.0001487731933594 0.029068488627672195 -66.635406494140625
f 264 263 261 262
g Door
v 55.936172485351562 2.0290684700012207 -35.000003814697266
v 55.936172485351562 0.029068488627672195 -35.000003814697266
v 54.936172485351562 2.0290684700012207 -35.000003814697266
v 54.936172485351562 0.029068488627672195 -35.000003814697266
f 268 267 265 266
g Door
v 47.570774078369141 2.0290684700012207 -31.000049591064453
v 47.570774078369141 0.029068488627672195 -31.000049591064453
v 46.570774078369141 2.0290684700012207 -31.000049591064453
v 46.570774078369141 0.029068488627672195 -31.000049591064453
f 272 271 269 270
g Door
v 42 2.0290684700012207 -22.209499359130859
v 42 0.029068488627672195 -22.209499359130859
v 42 2.0290684700012207 -21.209499359130859
v 42 0.029068488627672195 -21.209499359130859
f 276 275 273 274
g Door
v 41.912467956542969 2.0290684700012207 -8
v 41.912467956542969 0.029068488627672195 -8
v 40.912467956542969 2.0290684700012207 -8
v 40.912467956542969 0.029068488627672195 -8
f 280 279 277 278
g Door
v 34.387317657470703 2.0290684700012207 -45.00006103515625
v 34.387317657470703 0.029068488627672195 -45.00006103515625
v 33.387317657470703 2.0290684700012207 -45.00006103515625
v 33.387317657470703 0.029068488627672195 -45.00006103515625
f 284 283 281 282
g Door
v 47.570774078369141 2.0290684700012207 -23.000001907348633
v 47.570774078369141 0.029068488627672195 -23.000001907348633
v 46.570774078369141 2.0290684700012207 -23.000001907348633
v 46.570774078369141 0.029068488627672195 -23.000001907348633
f 288 287 285 286
g Door
v 48.000175476074219 2.0290684700012207 -28.894441604614258
v 48.000175476074219 0.029068488627672195 -28.894441604614258
v 48.000175476074219 2.0290684700012207 -27.894441604614258
v 48.000175476074219 0.029068488627672195 -27.894441604614258
f 292 291 289 290
g Door
v 33.138729095458984 2.0290684700012207 -31.002368927001953
v 33.138729095458984 0.029068488627672195 -31.002368927001953
v 32.138729095458984 2.0290684700012207 -31.002368927001953
v 32.138729095458984 0.029068488627672195 -31.002368927001953
f 296 295 293 294
g Door
v 43.092910766601562 2.0290684700012207 -14.999832153320312
v 43.092910766601562 0.029068488627672195 -14.999832153320312
v 42.092910766601562 2.0290684700012207 -14.999832153320312
v 42.092910766601562 0.029068488627672195 -14.999832153320312
f 300 299 297 298
g Door
v 49.087051391601562 2.0290684700012207 -15.000154495239258
v 49.087051391601562 0.029068488627672195 -15.000154495239258
v 48.087051391601562 2.0290684700012207 -15.000154495239258
v 48.087051391601562 0.029068488627672195 -15.000154495239258
f 304 303 301 302
g Door
v 47.999851226806641 2.0290684700012207 -36.364593505859375
v 47.999851226806641 0.029068488627672195 -36.364593505859375
v 47.999851226806641 2.0290684700012207 -35.364593505859375
v 47.999851226806641 0.029068488627672195 -35.364593505859375
f 308 307 305 306
g Door
v -3.9361717700958252 2.0290684700012207 -35.000003814697266
v -3.9361717700958252 0.029068488627672195 -35.000003814697266
v -2.9361717700958252 2.0290684700012207 -35.000003814697266
v -2.9361717700958252 0.029068488627672195 -35.000003814697266
f 312 310 309 311
g Door
v 4.4292259216308594 2.0290684700012207 -31.000049591064453
v 4.4292259216308594 0.029068488627672195 -31.000049591064453
v 5.4292259216308594 2.0290684700012207 -31.000049591064453
v 5.4292259216308594 0.029068488627672195 -31.000049591064453
f 316 314 313 315
g Door
v 9.9999990463256836 2.0290684700012207 -22.209499359130859
v 9.9999990463256836 0.029068488627672195 -22.209499359130859
v 9.9999990463256836 2.0290684700012207 -21.209499359130859
v 9.9999990463256836 0.029068488627672195 -21.209499359130859
f 320 318 317 319
g Door
v 10.087533950805664 2.0290684700012207 -8
v 10.087533950805664 0.029068488627672195 -8
v 11.087533950805664 2.0290684700012207 -8
v 11.087533950805664 0.029068488627672195 -8
f 324 322 321 323
g Door
v 17.61268424987793 2.0290684700012207 -45.00006103515625
v 17.61268424987793 0.029068488627672195 -45.00006103515625
v 18.61268424987793 2.0290684700012207 -45.00006103515625
v 18.61268424987793 0.029068488627672195 -45.00006103515625
f 328 326 325 327
g Door
v 4.4292259216308594 2.0290684700012207 -23.000001907348633
v 4.4292259216308594 0.029068488627672195 -23.000001907348633
v 5.4292259216308594 2.0290684700012207 -23.000001907348633
v 5.4292259216308594 0.029068488627672195 -23.000001907348633
f 332 330 329 331
g Door
v 3.9998245239257812 2.0290684700012207 -28.894441604614258
v 3.9998245239257812 0.029068488627672195 -28.894441604614258
v 3.9998245239257812 2.0290684700012207 -27.894441604614258
v 3.9998245239257812 0.029068488627672195 -27.894441604614258
f 336 334 333 335
g Door
v 18.861270904541016 2.0290684700012207 -31.002368927001953
v 18.861270904541016 0.029068488627672195 -31.002368927001953
v 19.861270904541016 2.0290684700012207 -31.002368927001953
v 19.861270904541016 0.029068488627672195 -31.002368927001953
f 340 338 337 339
g Door
v 8.9070892333984375 2.0290684700012207 -14.999832153320312
v 8.9070892333984375 0.029068488627672195 -14.999832153320312
v 9.9070892333984375 2.0290684700012207 -14.999832153320312
v 9.9070892333984375 0.029068488627672195 -14.999832153320312
f 344 342 341 343
g Door
v 2.9129476547241211 2.0290684700012207 -15.000154495239258
v 2.9129476547241211 0.029068488627672195 -15.000154495239258
v 3.9129476547241211 2.0290684700012207 -15.000154495239258
v 3.9129476547241211 0.029068488627672195 -15.000154495239258
f 348 346 345 347
g Door
v 4.0001487731933594 2.0290684700012207 -36.364593505859375
v 4.0001487731933594 0.029068488627672195 -36.364593505859375
v 4.0001487731933594 2.0290684700012207 -35.364593505859375
v 4.0001487731933594 0.029068488627672195 -35.364593505859375
f 352 350 349 351
