# Rhino

g Exterior_Corridor
v 16 -0.045047171413898468 -45
v 16 10.041156768798828 -45
v 20 -0.045047171413898468 -45
v 20 10.041156768798828 -45
v 20 -0.045047171413898468 -41
v 20 10.041156768798828 -41
v 32 -0.045047171413898468 -41
v 32 10.041156768798828 -41
v 32 -0.045047171413898468 -45
v 32 10.041156768798828 -45
v 36 -0.045047171413898468 -45
v 36 10.041156768798828 -45
v 36 -0.045047171413898468 -57
v 36 10.041156768798828 -57
v 32 -0.045047171413898468 -57
v 32 10.041156768798828 -57
v 32 -0.045047171413898468 -61
v 32 10.041156768798828 -61
v 20 -0.045047171413898468 -61
v 20 10.041156768798828 -61
v 20 -0.045047171413898468 -57
v 20 10.041156768798828 -57
v 16 -0.045047171413898468 -57
v 16 10.041156768798828 -57
f 19 17 15 13 11 9 7 5 3 1 23 21
f 16 18 20 22 24 2 4 6 8 10 12 14
f 1 3 4 2
f 3 5 6 4
f 5 7 8 6
f 7 9 10 8
f 9 11 12 10
f 11 13 14 12
f 13 15 16 14
f 15 17 18 16
f 17 19 20 18
f 19 21 22 20
f 21 23 24 22
f 23 1 2 24
g Living_Room
v 48 5.0028538703918457 -71
v 48 10.002853393554688 -71
v 32 5.0028538703918457 -71
v 32 10.002853393554688 -71
v 32 5.0028538703918457 -57
v 32 10.002853393554688 -57
v 48 5.0028538703918457 -57
v 48 10.002853393554688 -57
f 27 25 31 29
f 32 26 28 30
f 25 27 28 26
f 27 29 30 28
f 29 31 32 30
f 31 25 26 32
g Bedroom
v 52 5.0028538703918457 -102
v 52 10.002853393554688 -102
v 42 5.0028538703918457 -102
v 42 10.002853393554688 -102
v 42 5.0028538703918457 -87
v 42 10.002853393554688 -87
v 52 5.0028538703918457 -87
v 52 10.002853393554688 -87
f 35 33 39 37
f 40 34 36 38
f 33 35 36 34
f 35 37 38 36
f 37 39 40 38
f 39 33 34 40
g Bathroom
v 42 5.0028538703918457 -102
v 42 10.002853393554688 -102
v 34 5.0028538703918457 -102
v 34 10.002853393554688 -102
v 34 5.0028538703918457 -94
v 34 10.002853393554688 -94
v 42 5.0028538703918457 -94
v 42 10.002853393554688 -94
f 43 41 47 45
f 48 42 44 46
f 41 43 44 42
f 43 45 46 44
f 45 47 48 46
f 47 41 42 48
g Bedroom
v 42 5.0028538703918457 -94
v 42 10.002853393554688 -94
v 32 5.0028538703918457 -94
v 32 10.002853393554688 -94
v 32 5.0028538703918457 -79
v 32 10.002853393554688 -79
v 42 5.0028538703918457 -79
v 42 10.002853393554688 -79
f 51 49 55 53
f 56 50 52 54
f 49 51 52 50
f 51 53 54 52
f 53 55 56 54
f 55 49 50 56
g Bathroom
v 56 5.0028538703918457 -87
v 56 10.002853393554688 -87
v 48 5.0028538703918457 -87
v 48 10.002853393554688 -87
v 48 5.0028538703918457 -81
v 48 10.002853393554688 -81
v 56 5.0028538703918457 -81
v 56 10.002853393554688 -81
f 59 57 63 61
f 64 58 60 62
f 57 59 60 58
f 59 61 62 60
f 61 63 64 62
f 63 57 58 64
g Dining_Room
v 48 5.0028538703918457 -79
v 48 10.002853393554688 -79
v 32 5.0028538703918457 -79
v 32 10.002853393554688 -79
v 32 5.0028538703918457 -71
v 32 10.002853393554688 -71
v 48 5.0028538703918457 -71
v 48 10.002853393554688 -71
f 67 65 71 69
f 72 66 68 70
f 65 67 68 66
f 67 69 70 68
f 69 71 72 70
f 71 65 66 72
g Bathroom
v 56 5.0028538703918457 -73
v 56 10.002853393554688 -73
v 48 5.0028538703918457 -73
v 48 10.002853393554688 -73
v 48 5.0028538703918457 -67
v 48 10.002853393554688 -67
v 56 5.0028538703918457 -67
v 56 10.002853393554688 -67
f 75 73 79 77
f 80 74 76 78
f 73 75 76 74
f 75 77 78 76
f 77 79 80 78
f 79 73 74 80
g Kitchen
v 62 5.0028538703918457 -81
v 62 10.002853393554688 -81
v 48 5.0028538703918457 -81
v 48 10.002853393554688 -81
v 48 5.0028538703918457 -73
v 48 10.002853393554688 -73
v 62 5.0028538703918457 -73
v 62 10.002853393554688 -73
f 83 81 87 85
f 88 82 84 86
f 81 83 84 82
f 83 85 86 84
f 85 87 88 86
f 87 81 82 88
g Bedroom
v 63 5.0028538703918457 -67
v 63 10.002853393554688 -67
v 48 5.0028538703918457 -67
v 48 10.002853393554688 -67
v 48 5.0028538703918457 -57
v 48 10.002853393554688 -57
v 63 5.0028538703918457 -57
v 63 10.002853393554688 -57
f 91 89 95 93
f 96 90 92 94
f 89 91 92 90
f 91 93 94 92
f 93 95 96 94
f 95 89 90 96
g Interior_Corridor
v 48 5.0028538703918457 -87
v 48 10.002853393554688 -87
v 42 5.0028538703918457 -87
v 42 10.002853393554688 -87
v 42 5.0028538703918457 -79
v 42 10.002853393554688 -79
v 48 5.0028538703918457 -79
v 48 10.002853393554688 -79
f 99 97 103 101
f 104 98 100 102
f 97 99 100 98
f 99 101 102 100
f 101 103 104 102
f 103 97 98 104
g Bedroom
v 0 5.0028538703918457 -102
v 0 10.002853393554688 -102
v 0 5.0028538703918457 -87
v 0 10.002853393554688 -87
v 10 5.0028538703918457 -87
v 10 10.002853393554688 -87
v 10 5.0028538703918457 -102
v 10 10.002853393554688 -102
f 105 111 109 107
f 110 112 106 108
f 105 107 108 106
f 107 109 110 108
f 109 111 112 110
f 111 105 106 112
g Bathroom
v 10 5.0028538703918457 -102
v 10 10.002853393554688 -102
v 10 5.0028538703918457 -94
v 10 10.002853393554688 -94
v 18 5.0028538703918457 -94
v 18 10.002853393554688 -94
v 18 5.0028538703918457 -102
v 18 10.002853393554688 -102
f 113 119 117 115
f 118 120 114 116
f 113 115 116 114
f 115 117 118 116
f 117 119 120 118
f 119 113 114 120
g Bedroom
v 10 5.0028538703918457 -94
v 10 10.002853393554688 -94
v 10 5.0028538703918457 -79
v 10 10.002853393554688 -79
v 20 5.0028538703918457 -79
v 20 10.002853393554688 -79
v 20 5.0028538703918457 -94
v 20 10.002853393554688 -94
f 121 127 125 123
f 126 128 122 124
f 121 123 124 122
f 123 125 126 124
f 125 127 128 126
f 127 121 122 128
g Bathroom
v -4 5.0028538703918457 -87
v -4 10.002853393554688 -87
v -4 5.0028538703918457 -81
v -4 10.002853393554688 -81
v 4 5.0028538703918457 -81
v 4 10.002853393554688 -81
v 4 5.0028538703918457 -87
v 4 10.002853393554688 -87
f 129 135 133 131
f 134 136 130 132
f 129 131 132 130
f 131 133 134 132
f 133 135 136 134
f 135 129 130 136
g Dining_Room
v 4 5.0028538703918457 -79
v 4 10.002853393554688 -79
v 4 5.0028538703918457 -71
v 4 10.002853393554688 -71
v 20 5.0028538703918457 -71
v 20 10.002853393554688 -71
v 20 5.0028538703918457 -79
v 20 10.002853393554688 -79
f 137 143 141 139
f 142 144 138 140
f 137 139 140 138
f 139 141 142 140
f 141 143 144 142
f 143 137 138 144
g Bathroom
v -4 5.0028538703918457 -73
v -4 10.002853393554688 -73
v -4 5.0028538703918457 -67
v -4 10.002853393554688 -67
v 4 5.0028538703918457 -67
v 4 10.002853393554688 -67
v 4 5.0028538703918457 -73
v 4 10.002853393554688 -73
f 145 151 149 147
f 150 152 146 148
f 145 147 148 146
f 147 149 150 148
f 149 151 152 150
f 151 145 146 152
g Kitchen
v -10 5.0028538703918457 -81
v -10 10.002853393554688 -81
v -10 5.0028538703918457 -73
v -10 10.002853393554688 -73
v 4 5.0028538703918457 -73
v 4 10.002853393554688 -73
v 4 5.0028538703918457 -81
v 4 10.002853393554688 -81
f 153 159 157 155
f 158 160 154 156
f 153 155 156 154
f 155 157 158 156
f 157 159 160 158
f 159 153 154 160
g Bedroom
v -11 5.0028538703918457 -67
v -11 10.002853393554688 -67
v -11 5.0028538703918457 -57
v -11 10.002853393554688 -57
v 4 5.0028538703918457 -57
v 4 10.002853393554688 -57
v 4 5.0028538703918457 -67
v 4 10.002853393554688 -67
f 161 167 165 163
f 166 168 162 164
f 161 163 164 162
f 163 165 166 164
f 165 167 168 166
f 167 161 162 168
g Living_Room
v 4 5.0028538703918457 -71
v 4 10.002853393554688 -71
v 4 5.0028538703918457 -57
v 4 10.002853393554688 -57
v 20 5.0028538703918457 -57
v 20 10.002853393554688 -57
v 20 5.0028538703918457 -71
v 20 10.002853393554688 -71
f 169 175 173 171
f 174 176 170 172
f 169 171 172 170
f 171 173 174 172
f 173 175 176 174
f 175 169 170 176
g Interior_Corridor
v 4 5.0028538703918457 -87
v 4 10.002853393554688 -87
v 4 5.0028538703918457 -79
v 4 10.002853393554688 -79
v 10 5.0028538703918457 -79
v 10 10.002853393554688 -79
v 10 5.0028538703918457 -87
v 10 10.002853393554688 -87
f 177 183 181 179
f 182 184 178 180
f 177 179 180 178
f 179 181 182 180
f 181 183 184 182
f 183 177 178 184
g Bedroom
v 52 5.0028538703918457 0
v 52 10.002853393554688 0
v 52 5.0028538703918457 -15
v 52 10.002853393554688 -15
v 42 5.0028538703918457 -15
v 42 10.002853393554688 -15
v 42 5.0028538703918457 0
v 42 10.002853393554688 0
f 185 191 189 187
f 190 192 186 188
f 185 187 188 186
f 187 189 190 188
f 189 191 192 190
f 191 185 186 192
g Bathroom
v 42 5.0028538703918457 0
v 42 10.002853393554688 0
v 42 5.0028538703918457 -8
v 42 10.002853393554688 -8
v 34 5.0028538703918457 -8
v 34 10.002853393554688 -8
v 34 5.0028538703918457 0
v 34 10.002853393554688 0
f 193 199 197 195
f 198 200 194 196
f 193 195 196 194
f 195 197 198 196
f 197 199 200 198
f 199 193 194 200
g Bedroom
v 42 5.0028538703918457 -8
v 42 10.002853393554688 -8
v 42 5.0028538703918457 -23
v 42 10.002853393554688 -23
v 32 5.0028538703918457 -23
v 32 10.002853393554688 -23
v 32 5.0028538703918457 -8
v 32 10.002853393554688 -8
f 201 207 205 203
f 206 208 202 204
f 201 203 204 202
f 203 205 206 204
f 205 207 208 206
f 207 201 202 208
g Bathroom
v 56 5.0028538703918457 -15
v 56 10.002853393554688 -15
v 56 5.0028538703918457 -21
v 56 10.002853393554688 -21
v 48 5.0028538703918457 -21
v 48 10.002853393554688 -21
v 48 5.0028538703918457 -15
v 48 10.002853393554688 -15
f 209 215 213 211
f 214 216 210 212
f 209 211 212 210
f 211 213 214 212
f 213 215 216 214
f 215 209 210 216
g Dining_Room
v 48 5.0028538703918457 -23
v 48 10.002853393554688 -23
v 48 5.0028538703918457 -31
v 48 10.002853393554688 -31
v 32 5.0028538703918457 -31
v 32 10.002853393554688 -31
v 32 5.0028538703918457 -23
v 32 10.002853393554688 -23
f 217 223 221 219
f 222 224 218 220
f 217 219 220 218
f 219 221 222 220
f 221 223 224 222
f 223 217 218 224
g Bathroom
v 56 5.0028538703918457 -29
v 56 10.002853393554688 -29
v 56 5.0028538703918457 -35
v 56 10.002853393554688 -35
v 48 5.0028538703918457 -35
v 48 10.002853393554688 -35
v 48 5.0028538703918457 -29
v 48 10.002853393554688 -29
f 225 231 229 227
f 230 232 226 228
f 225 227 228 226
f 227 229 230 228
f 229 231 232 230
f 231 225 226 232
g Kitchen
v 62 5.0028538703918457 -21
v 62 10.002853393554688 -21
v 62 5.0028538703918457 -29
v 62 10.002853393554688 -29
v 48 5.0028538703918457 -29
v 48 10.002853393554688 -29
v 48 5.0028538703918457 -21
v 48 10.002853393554688 -21
f 233 239 237 235
f 238 240 234 236
f 233 235 236 234
f 235 237 238 236
f 237 239 240 238
f 239 233 234 240
g Bedroom
v 63 5.0028538703918457 -35
v 63 10.002853393554688 -35
v 63 5.0028538703918457 -45
v 63 10.002853393554688 -45
v 48 5.0028538703918457 -45
v 48 10.002853393554688 -45
v 48 5.0028538703918457 -35
v 48 10.002853393554688 -35
f 241 247 245 243
f 246 248 242 244
f 241 243 244 242
f 243 245 246 244
f 245 247 248 246
f 247 241 242 248
g Living_Room
v 48 5.0028538703918457 -31
v 48 10.002853393554688 -31
v 48 5.0028538703918457 -45
v 48 10.002853393554688 -45
v 32 5.0028538703918457 -45
v 32 10.002853393554688 -45
v 32 5.0028538703918457 -31
v 32 10.002853393554688 -31
f 249 255 253 251
f 254 256 250 252
f 249 251 252 250
f 251 253 254 252
f 253 255 256 254
f 255 249 250 256
g Interior_Corridor
v 48 5.0028538703918457 -15
v 48 10.002853393554688 -15
v 48 5.0028538703918457 -23
v 48 10.002853393554688 -23
v 42 5.0028538703918457 -23
v 42 10.002853393554688 -23
v 42 5.0028538703918457 -15
v 42 10.002853393554688 -15
f 257 263 261 259
f 262 264 258 260
f 257 259 260 258
f 259 261 262 260
f 261 263 264 262
f 263 257 258 264
g Bedroom
v 0 5.0028538703918457 0
v 0 10.002853393554688 0
v 10 5.0028538703918457 0
v 10 10.002853393554688 0
v 10 5.0028538703918457 -15
v 10 10.002853393554688 -15
v 0 5.0028538703918457 -15
v 0 10.002853393554688 -15
f 267 265 271 269
f 272 266 268 270
f 265 267 268 266
f 267 269 270 268
f 269 271 272 270
f 271 265 266 272
g Bathroom
v 10 5.0028538703918457 0
v 10 10.002853393554688 0
v 18 5.0028538703918457 0
v 18 10.002853393554688 0
v 18 5.0028538703918457 -8
v 18 10.002853393554688 -8
v 10 5.0028538703918457 -8
v 10 10.002853393554688 -8
f 275 273 279 277
f 280 274 276 278
f 273 275 276 274
f 275 277 278 276
f 277 279 280 278
f 279 273 274 280
g Bedroom
v 10 5.0028538703918457 -8
v 10 10.002853393554688 -8
v 20 5.0028538703918457 -8
v 20 10.002853393554688 -8
v 20 5.0028538703918457 -23
v 20 10.002853393554688 -23
v 10 5.0028538703918457 -23
v 10 10.002853393554688 -23
f 283 281 287 285
f 288 282 284 286
f 281 283 284 282
f 283 285 286 284
f 285 287 288 286
f 287 281 282 288
g Bathroom
v -4 5.0028538703918457 -15
v -4 10.002853393554688 -15
v 4 5.0028538703918457 -15
v 4 10.002853393554688 -15
v 4 5.0028538703918457 -21
v 4 10.002853393554688 -21
v -4 5.0028538703918457 -21
v -4 10.002853393554688 -21
f 291 289 295 293
f 296 290 292 294
f 289 291 292 290
f 291 293 294 292
f 293 295 296 294
f 295 289 290 296
g Dining_Room
v 4 5.0028538703918457 -23
v 4 10.002853393554688 -23
v 20 5.0028538703918457 -23
v 20 10.002853393554688 -23
v 20 5.0028538703918457 -31
v 20 10.002853393554688 -31
v 4 5.0028538703918457 -31
v 4 10.002853393554688 -31
f 299 297 303 301
f 304 298 300 302
f 297 299 300 298
f 299 301 302 300
f 301 303 304 302
f 303 297 298 304
g Bathroom
v -4 5.0028538703918457 -29
v -4 10.002853393554688 -29
v 4 5.0028538703918457 -29
v 4 10.002853393554688 -29
v 4 5.0028538703918457 -35
v 4 10.002853393554688 -35
v -4 5.0028538703918457 -35
v -4 10.002853393554688 -35
f 307 305 311 309
f 312 306 308 310
f 305 307 308 306
f 307 309 310 308
f 309 311 312 310
f 311 305 306 312
g Kitchen
v -10 5.0028538703918457 -21
v -10 10.002853393554688 -21
v 4 5.0028538703918457 -21
v 4 10.002853393554688 -21
v 4 5.0028538703918457 -29
v 4 10.002853393554688 -29
v -10 5.0028538703918457 -29
v -10 10.002853393554688 -29
f 315 313 319 317
f 320 314 316 318
f 313 315 316 314
f 315 317 318 316
f 317 319 320 318
f 319 313 314 320
g Bedroom
v -11 5.0028538703918457 -35
v -11 10.002853393554688 -35
v 4 5.0028538703918457 -35
v 4 10.002853393554688 -35
v 4 5.0028538703918457 -45
v 4 10.002853393554688 -45
v -11 5.0028538703918457 -45
v -11 10.002853393554688 -45
f 323 321 327 325
f 328 322 324 326
f 321 323 324 322
f 323 325 326 324
f 325 327 328 326
f 327 321 322 328
g Living_Room
v 4 5.0028538703918457 -31
v 4 10.002853393554688 -31
v 20 5.0028538703918457 -31
v 20 10.002853393554688 -31
v 20 5.0028538703918457 -45
v 20 10.002853393554688 -45
v 4 5.0028538703918457 -45
v 4 10.002853393554688 -45
f 331 329 335 333
f 336 330 332 334
f 329 331 332 330
f 331 333 334 332
f 333 335 336 334
f 335 329 330 336
g Interior_Corridor
v 4 5.0028538703918457 -15
v 4 10.002853393554688 -15
v 10 5.0028538703918457 -15
v 10 10.002853393554688 -15
v 10 5.0028538703918457 -23
v 10 10.002853393554688 -23
v 4 5.0028538703918457 -23
v 4 10.002853393554688 -23
f 339 337 343 341
f 344 338 340 342
f 337 339 340 338
f 339 341 342 340
f 341 343 344 342
f 343 337 338 344
g Living_Room
v 48 0 -71
v 48 5 -71
v 32 0 -71
v 32 5 -71
v 32 0 -57
v 32 5 -57
v 48 0 -57
v 48 5 -57
f 347 345 351 349
f 352 346 348 350
f 345 347 348 346
f 347 349 350 348
f 349 351 352 350
f 351 345 346 352
g Bedroom
v 52 0 -102
v 52 5 -102
v 42 0 -102
v 42 5 -102
v 42 0 -87
v 42 5 -87
v 52 0 -87
v 52 5 -87
f 355 353 359 357
f 360 354 356 358
f 353 355 356 354
f 355 357 358 356
f 357 359 360 358
f 359 353 354 360
g Bathroom
v 42 0 -102
v 42 5 -102
v 34 0 -102
v 34 5 -102
v 34 0 -94
v 34 5 -94
v 42 0 -94
v 42 5 -94
f 363 361 367 365
f 368 362 364 366
f 361 363 364 362
f 363 365 366 364
f 365 367 368 366
f 367 361 362 368
g Bedroom
v 42 0 -94
v 42 5 -94
v 32 0 -94
v 32 5 -94
v 32 0 -79
v 32 5 -79
v 42 0 -79
v 42 5 -79
f 371 369 375 373
f 376 370 372 374
f 369 371 372 370
f 371 373 374 372
f 373 375 376 374
f 375 369 370 376
g Bathroom
v 56 0 -87
v 56 5 -87
v 48 0 -87
v 48 5 -87
v 48 0 -81
v 48 5 -81
v 56 0 -81
v 56 5 -81
f 379 377 383 381
f 384 378 380 382
f 377 379 380 378
f 379 381 382 380
f 381 383 384 382
f 383 377 378 384
g Dining_Room
v 48 0 -79
v 48 5 -79
v 32 0 -79
v 32 5 -79
v 32 0 -71
v 32 5 -71
v 48 0 -71
v 48 5 -71
f 387 385 391 389
f 392 386 388 390
f 385 387 388 386
f 387 389 390 388
f 389 391 392 390
f 391 385 386 392
g Bathroom
v 56 0 -73
v 56 5 -73
v 48 0 -73
v 48 5 -73
v 48 0 -67
v 48 5 -67
v 56 0 -67
v 56 5 -67
f 395 393 399 397
f 400 394 396 398
f 393 395 396 394
f 395 397 398 396
f 397 399 400 398
f 399 393 394 400
g Kitchen
v 62 0 -81
v 62 5 -81
v 48 0 -81
v 48 5 -81
v 48 0 -73
v 48 5 -73
v 62 0 -73
v 62 5 -73
f 403 401 407 405
f 408 402 404 406
f 401 403 404 402
f 403 405 406 404
f 405 407 408 406
f 407 401 402 408
g Bedroom
v 63 0 -67
v 63 5 -67
v 48 0 -67
v 48 5 -67
v 48 0 -57
v 48 5 -57
v 63 0 -57
v 63 5 -57
f 411 409 415 413
f 416 410 412 414
f 409 411 412 410
f 411 413 414 412
f 413 415 416 414
f 415 409 410 416
g Interior_Corridor
v 48 0 -87
v 48 5 -87
v 42 0 -87
v 42 5 -87
v 42 0 -79
v 42 5 -79
v 48 0 -79
v 48 5 -79
f 419 417 423 421
f 424 418 420 422
f 417 419 420 418
f 419 421 422 420
f 421 423 424 422
f 423 417 418 424
g Bedroom
v 0 0 -102
v 0 5 -102
v 0 0 -87
v 0 5 -87
v 10 0 -87
v 10 5 -87
v 10 0 -102
v 10 5 -102
f 425 431 429 427
f 430 432 426 428
f 425 427 428 426
f 427 429 430 428
f 429 431 432 430
f 431 425 426 432
g Bathroom
v 10 0 -102
v 10 5 -102
v 10 0 -94
v 10 5 -94
v 18 0 -94
v 18 5 -94
v 18 0 -102
v 18 5 -102
f 433 439 437 435
f 438 440 434 436
f 433 435 436 434
f 435 437 438 436
f 437 439 440 438
f 439 433 434 440
g Bedroom
v 10 0 -94
v 10 5 -94
v 10 0 -79
v 10 5 -79
v 20 0 -79
v 20 5 -79
v 20 0 -94
v 20 5 -94
f 441 447 445 443
f 446 448 442 444
f 441 443 444 442
f 443 445 446 444
f 445 447 448 446
f 447 441 442 448
g Bathroom
v -4 0 -87
v -4 5 -87
v -4 0 -81
v -4 5 -81
v 4 0 -81
v 4 5 -81
v 4 0 -87
v 4 5 -87
f 449 455 453 451
f 454 456 450 452
f 449 451 452 450
f 451 453 454 452
f 453 455 456 454
f 455 449 450 456
g Dining_Room
v 4 0 -79
v 4 5 -79
v 4 0 -71
v 4 5 -71
v 20 0 -71
v 20 5 -71
v 20 0 -79
v 20 5 -79
f 457 463 461 459
f 462 464 458 460
f 457 459 460 458
f 459 461 462 460
f 461 463 464 462
f 463 457 458 464
g Bathroom
v -4 0 -73
v -4 5 -73
v -4 0 -67
v -4 5 -67
v 4 0 -67
v 4 5 -67
v 4 0 -73
v 4 5 -73
f 465 471 469 467
f 470 472 466 468
f 465 467 468 466
f 467 469 470 468
f 469 471 472 470
f 471 465 466 472
g Kitchen
v -10 0 -81
v -10 5 -81
v -10 0 -73
v -10 5 -73
v 4 0 -73
v 4 5 -73
v 4 0 -81
v 4 5 -81
f 473 479 477 475
f 478 480 474 476
f 473 475 476 474
f 475 477 478 476
f 477 479 480 478
f 479 473 474 480
g Bedroom
v -11 0 -67
v -11 5 -67
v -11 0 -57
v -11 5 -57
v 4 0 -57
v 4 5 -57
v 4 0 -67
v 4 5 -67
f 481 487 485 483
f 486 488 482 484
f 481 483 484 482
f 483 485 486 484
f 485 487 488 486
f 487 481 482 488
g Living_Room
v 4 0 -71
v 4 5 -71
v 4 0 -57
v 4 5 -57
v 20 0 -57
v 20 5 -57
v 20 0 -71
v 20 5 -71
f 489 495 493 491
f 494 496 490 492
f 489 491 492 490
f 491 493 494 492
f 493 495 496 494
f 495 489 490 496
g Interior_Corridor
v 4 0 -87
v 4 5 -87
v 4 0 -79
v 4 5 -79
v 10 0 -79
v 10 5 -79
v 10 0 -87
v 10 5 -87
f 497 503 501 499
f 502 504 498 500
f 497 499 500 498
f 499 501 502 500
f 501 503 504 502
f 503 497 498 504
g Bedroom
v 52 0 0
v 52 5 0
v 52 0 -15
v 52 5 -15
v 42 0 -15
v 42 5 -15
v 42 0 0
v 42 5 0
f 505 511 509 507
f 510 512 506 508
f 505 507 508 506
f 507 509 510 508
f 509 511 512 510
f 511 505 506 512
g Bathroom
v 42 0 0
v 42 5 0
v 42 0 -8
v 42 5 -8
v 34 0 -8
v 34 5 -8
v 34 0 0
v 34 5 0
f 513 519 517 515
f 518 520 514 516
f 513 515 516 514
f 515 517 518 516
f 517 519 520 518
f 519 513 514 520
g Bedroom
v 42 0 -8
v 42 5 -8
v 42 0 -23
v 42 5 -23
v 32 0 -23
v 32 5 -23
v 32 0 -8
v 32 5 -8
f 521 527 525 523
f 526 528 522 524
f 521 523 524 522
f 523 525 526 524
f 525 527 528 526
f 527 521 522 528
g Bathroom
v 56 0 -15
v 56 5 -15
v 56 0 -21
v 56 5 -21
v 48 0 -21
v 48 5 -21
v 48 0 -15
v 48 5 -15
f 529 535 533 531
f 534 536 530 532
f 529 531 532 530
f 531 533 534 532
f 533 535 536 534
f 535 529 530 536
g Dining_Room
v 48 0 -23
v 48 5 -23
v 48 0 -31
v 48 5 -31
v 32 0 -31
v 32 5 -31
v 32 0 -23
v 32 5 -23
f 537 543 541 539
f 542 544 538 540
f 537 539 540 538
f 539 541 542 540
f 541 543 544 542
f 543 537 538 544
g Bathroom
v 56 0 -29
v 56 5 -29
v 56 0 -35
v 56 5 -35
v 48 0 -35
v 48 5 -35
v 48 0 -29
v 48 5 -29
f 545 551 549 547
f 550 552 546 548
f 545 547 548 546
f 547 549 550 548
f 549 551 552 550
f 551 545 546 552
g Kitchen
v 62 0 -21
v 62 5 -21
v 62 0 -29
v 62 5 -29
v 48 0 -29
v 48 5 -29
v 48 0 -21
v 48 5 -21
f 553 559 557 555
f 558 560 554 556
f 553 555 556 554
f 555 557 558 556
f 557 559 560 558
f 559 553 554 560
g Bedroom
v 63 0 -35
v 63 5 -35
v 63 0 -45
v 63 5 -45
v 48 0 -45
v 48 5 -45
v 48 0 -35
v 48 5 -35
f 561 567 565 563
f 566 568 562 564
f 561 563 564 562
f 563 565 566 564
f 565 567 568 566
f 567 561 562 568
g Living_Room
v 48 0 -31
v 48 5 -31
v 48 0 -45
v 48 5 -45
v 32 0 -45
v 32 5 -45
v 32 0 -31
v 32 5 -31
f 569 575 573 571
f 574 576 570 572
f 569 571 572 570
f 571 573 574 572
f 573 575 576 574
f 575 569 570 576
g Interior_Corridor
v 48 0 -15
v 48 5 -15
v 48 0 -23
v 48 5 -23
v 42 0 -23
v 42 5 -23
v 42 0 -15
v 42 5 -15
f 577 583 581 579
f 582 584 578 580
f 577 579 580 578
f 579 581 582 580
f 581 583 584 582
f 583 577 578 584
g Bedroom
v 0 0 0
v 0 5 0
v 10 0 0
v 10 5 0
v 10 0 -15
v 10 5 -15
v 0 0 -15
v 0 5 -15
f 587 585 591 589
f 592 586 588 590
f 585 587 588 586
f 587 589 590 588
f 589 591 592 590
f 591 585 586 592
g Bathroom
v 10 0 0
v 10 5 0
v 18 0 0
v 18 5 0
v 18 0 -8
v 18 5 -8
v 10 0 -8
v 10 5 -8
f 595 593 599 597
f 600 594 596 598
f 593 595 596 594
f 595 597 598 596
f 597 599 600 598
f 599 593 594 600
g Bedroom
v 10 0 -8
v 10 5 -8
v 20 0 -8
v 20 5 -8
v 20 0 -23
v 20 5 -23
v 10 0 -23
v 10 5 -23
f 603 601 607 605
f 608 602 604 606
f 601 603 604 602
f 603 605 606 604
f 605 607 608 606
f 607 601 602 608
g Bathroom
v -4 0 -15
v -4 5 -15
v 4 0 -15
v 4 5 -15
v 4 0 -21
v 4 5 -21
v -4 0 -21
v -4 5 -21
f 611 609 615 613
f 616 610 612 614
f 609 611 612 610
f 611 613 614 612
f 613 615 616 614
f 615 609 610 616
g Dining_Room
v 4 0 -23
v 4 5 -23
v 20 0 -23
v 20 5 -23
v 20 0 -31
v 20 5 -31
v 4 0 -31
v 4 5 -31
f 619 617 623 621
f 624 618 620 622
f 617 619 620 618
f 619 621 622 620
f 621 623 624 622
f 623 617 618 624
g Bathroom
v -4 0 -29
v -4 5 -29
v 4 0 -29
v 4 5 -29
v 4 0 -35
v 4 5 -35
v -4 0 -35
v -4 5 -35
f 627 625 631 629
f 632 626 628 630
f 625 627 628 626
f 627 629 630 628
f 629 631 632 630
f 631 625 626 632
g Kitchen
v -10 0 -21
v -10 5 -21
v 4 0 -21
v 4 5 -21
v 4 0 -29
v 4 5 -29
v -10 0 -29
v -10 5 -29
f 635 633 639 637
f 640 634 636 638
f 633 635 636 634
f 635 637 638 636
f 637 639 640 638
f 639 633 634 640
g Bedroom
v -11 0 -35
v -11 5 -35
v 4 0 -35
v 4 5 -35
v 4 0 -45
v 4 5 -45
v -11 0 -45
v -11 5 -45
f 643 641 647 645
f 648 642 644 646
f 641 643 644 642
f 643 645 646 644
f 645 647 648 646
f 647 641 642 648
g Living_Room
v 4 0 -31
v 4 5 -31
v 20 0 -31
v 20 5 -31
v 20 0 -45
v 20 5 -45
v 4 0 -45
v 4 5 -45
f 651 649 655 653
f 656 650 652 654
f 649 651 652 650
f 651 653 654 652
f 653 655 656 654
f 655 649 650 656
g Interior_Corridor
v 4 0 -15
v 4 5 -15
v 10 0 -15
v 10 5 -15
v 10 0 -23
v 10 5 -23
v 4 0 -23
v 4 5 -23
f 659 657 663 661
f 664 658 660 662
f 657 659 660 658
f 659 661 662 660
f 661 663 664 662
f 663 657 658 664
