# Rhino

g window
v 20.000055313110352 5.0608968734741211 -62.249507904052734
v 20.000055313110352 5.0608968734741211 -63.749507904052734
v 20.000055313110352 9.3761510848999023 -62.249507904052734
v 20.000055313110352 9.3761510848999023 -63.749507904052734
f 4 3 1 2
g window
v 31.999944686889648 5.0608968734741211 -62.249507904052734
v 31.999944686889648 5.0608968734741211 -63.749507904052734
v 31.999944686889648 9.3761510848999023 -62.249507904052734
v 31.999944686889648 9.3761510848999023 -63.749507904052734
f 8 6 5 7
g window
v 20.000055313110352 5.0608968734741211 -39.750492095947266
v 20.000055313110352 5.0608968734741211 -38.250492095947266
v 20.000055313110352 9.3761510848999023 -39.750492095947266
v 20.000055313110352 9.3761510848999023 -38.250492095947266
f 12 10 9 11
g window
v 31.999944686889648 5.0608968734741211 -39.750492095947266
v 31.999944686889648 5.0608968734741211 -38.250492095947266
v 31.999944686889648 9.3761510848999023 -39.750492095947266
v 31.999944686889648 9.3761510848999023 -38.250492095947266
f 16 15 13 14
g window
v 32.000022888183594 5.0608968734741211 -77.094734191894531
v 32.000022888183594 5.0608968734741211 -78.594734191894531
v 32.000022888183594 9.3761510848999023 -77.094734191894531
v 32.000022888183594 9.3761510848999023 -78.594734191894531
f 20 18 17 19
g window
v 62 5.0608968734741211 -79.250137329101562
v 62 5.0608968734741211 -80.750137329101562
v 62 9.3761510848999023 -79.250137329101562
v 62 9.3761510848999023 -80.750137329101562
f 24 22 21 23
g window
v 31.999998092651367 5.0608968734741211 -92.247001647949219
v 31.999998092651367 5.0608968734741211 -93.747001647949219
v 31.999998092651367 9.3761510848999023 -92.247001647949219
v 31.999998092651367 9.3761510848999023 -93.747001647949219
f 28 26 25 27
g window
v 60.985305786132812 7.2837991714477539 -81.000030517578125
v 60.985305786132812 5.7837991714477539 -81.000030517578125
v 58.985305786132812 7.2837991714477539 -81.000030517578125
v 58.985305786132812 5.7837991714477539 -81.000030517578125
f 32 30 29 31
g window
v 33.772365570068359 7.2837991714477539 -94.000015258789062
v 33.772365570068359 5.7837991714477539 -94.000015258789062
v 32.223186492919922 7.2837991714477539 -94.000015258789062
v 32.223186492919922 5.7837991714477539 -94.000015258789062
f 36 34 33 35
g window
v 63.000022888183594 5.0608968734741211 -57.250530242919922
v 63.000022888183594 5.0608968734741211 -58.750530242919922
v 63.000022888183594 9.3761510848999023 -57.250530242919922
v 63.000022888183594 9.3761510848999023 -58.750530242919922
f 40 38 37 39
g window
v 32 5.0608968734741211 -68.249977111816406
v 32 5.0608968734741211 -69.749977111816406
v 32 9.3761510848999023 -68.249977111816406
v 32 9.3761510848999023 -69.749977111816406
f 44 42 41 43
g window
v 31.999927520751953 5.0608968734741211 -71.250053405761719
v 31.999927520751953 5.0608968734741211 -72.750053405761719
v 31.999927520751953 9.3761510848999023 -71.250053405761719
v 31.999927520751953 9.3761510848999023 -72.750053405761719
f 48 46 45 47
g window
v 51.999992370605469 5.0608968734741211 -87.707038879394531
v 51.999992370605469 5.0608968734741211 -89.207038879394531
v 51.999992370605469 9.3761510848999023 -87.707038879394531
v 51.999992370605469 9.3761510848999023 -89.207038879394531
f 52 50 49 51
g window
v 44.150947570800781 7.2837991714477539 -101.99998474121094
v 44.150947570800781 5.7837991714477539 -101.99998474121094
v 42.150947570800781 7.2837991714477539 -101.99998474121094
v 42.150947570800781 5.7837991714477539 -101.99998474121094
f 56 54 53 55
g window
v 61.9066162109375 7.2837991714477539 -56.999996185302734
v 61.9066162109375 5.7837991714477539 -56.999996185302734
v 59.9066162109375 7.2837991714477539 -56.999996185302734
v 59.9066162109375 5.7837991714477539 -56.999996185302734
f 60 58 57 59
g window
v 50.679058074951172 7.2837991714477539 -56.999996185302734
v 50.679058074951172 5.7837991714477539 -56.999996185302734
v 48.679058074951172 7.2837991714477539 -56.999996185302734
v 48.679058074951172 5.7837991714477539 -56.999996185302734
f 64 62 61 63
g window
v 46.546176910400391 7.2837991714477539 -56.999996185302734
v 46.546176910400391 5.7837991714477539 -56.999996185302734
v 44.546176910400391 7.2837991714477539 -56.999996185302734
v 44.546176910400391 5.7837991714477539 -56.999996185302734
f 68 66 65 67
g window
v 38.688266754150391 7.2837991714477539 -56.999996185302734
v 38.688266754150391 5.7837991714477539 -56.999996185302734
v 36.688266754150391 7.2837991714477539 -56.999996185302734
v 36.688266754150391 5.7837991714477539 -56.999996185302734
f 72 70 69 71
g window
v 19.999977111816406 5.0608968734741211 -77.094734191894531
v 19.999977111816406 5.0608968734741211 -78.594734191894531
v 19.999977111816406 9.3761510848999023 -77.094734191894531
v 19.999977111816406 9.3761510848999023 -78.594734191894531
f 76 75 73 74
g window
v -9.9999980926513672 5.0608968734741211 -79.250137329101562
v -9.9999980926513672 5.0608968734741211 -80.750137329101562
v -9.9999980926513672 9.3761510848999023 -79.250137329101562
v -9.9999980926513672 9.3761510848999023 -80.750137329101562
f 80 79 77 78
g window
v 20.000001907348633 5.0608968734741211 -92.247001647949219
v 20.000001907348633 5.0608968734741211 -93.747001647949219
v 20.000001907348633 9.3761510848999023 -92.247001647949219
v 20.000001907348633 9.3761510848999023 -93.747001647949219
f 84 83 81 82
g window
v -8.9853067398071289 7.2837991714477539 -81.000030517578125
v -8.9853067398071289 5.7837991714477539 -81.000030517578125
v -6.9853072166442871 7.2837991714477539 -81.000030517578125
v -6.9853072166442871 5.7837991714477539 -81.000030517578125
f 88 87 85 86
g window
v 18.227632522583008 7.2837991714477539 -94.000015258789062
v 18.227632522583008 5.7837991714477539 -94.000015258789062
v 19.776815414428711 7.2837991714477539 -94.000015258789062
v 19.776815414428711 5.7837991714477539 -94.000015258789062
f 92 91 89 90
g window
v -11.000021934509277 5.0608968734741211 -57.250530242919922
v -11.000021934509277 5.0608968734741211 -58.750530242919922
v -11.000021934509277 9.3761510848999023 -57.250530242919922
v -11.000021934509277 9.3761510848999023 -58.750530242919922
f 96 95 93 94
g window
v 20 5.0608968734741211 -68.249977111816406
v 20 5.0608968734741211 -69.749977111816406
v 20 9.3761510848999023 -68.249977111816406
v 20 9.3761510848999023 -69.749977111816406
f 100 99 97 98
g window
v 20.000072479248047 5.0608968734741211 -71.250053405761719
v 20.000072479248047 5.0608968734741211 -72.750053405761719
v 20.000072479248047 9.3761510848999023 -71.250053405761719
v 20.000072479248047 9.3761510848999023 -72.750053405761719
f 104 103 101 102
g window
v 6.0471738834166899E-06 5.0608968734741211 -87.707038879394531
v 6.0471738834166899E-06 5.0608968734741211 -89.207038879394531
v 6.0471738834166899E-06 9.3761510848999023 -87.707038879394531
v 6.0471738834166899E-06 9.3761510848999023 -89.207038879394531
f 108 107 105 106
g window
v 7.8490519523620605 7.2837991714477539 -101.99998474121094
v 7.8490519523620605 5.7837991714477539 -101.99998474121094
v 9.8490514755249023 7.2837991714477539 -101.99998474121094
v 9.8490514755249023 5.7837991714477539 -101.99998474121094
f 112 111 109 110
g window
v -9.9066171646118164 7.2837991714477539 -56.999996185302734
v -9.9066171646118164 5.7837991714477539 -56.999996185302734
v -7.9066171646118164 7.2837991714477539 -56.999996185302734
v -7.9066171646118164 5.7837991714477539 -56.999996185302734
f 116 115 113 114
g window
v 1.3209419250488281 7.2837991714477539 -56.999996185302734
v 1.3209419250488281 5.7837991714477539 -56.999996185302734
v 3.3209419250488281 7.2837991714477539 -56.999996185302734
v 3.3209419250488281 5.7837991714477539 -56.999996185302734
f 120 119 117 118
g window
v 5.4538226127624512 7.2837991714477539 -56.999996185302734
v 5.4538226127624512 5.7837991714477539 -56.999996185302734
v 7.4538226127624512 7.2837991714477539 -56.999996185302734
v 7.4538226127624512 5.7837991714477539 -56.999996185302734
f 124 123 121 122
g window
v 13.311734199523926 7.2837991714477539 -56.999996185302734
v 13.311734199523926 5.7837991714477539 -56.999996185302734
v 15.311734199523926 7.2837991714477539 -56.999996185302734
v 15.311734199523926 5.7837991714477539 -56.999996185302734
f 128 127 125 126
g window
v 32.000022888183594 5.0608968734741211 -24.905263900756836
v 32.000022888183594 5.0608968734741211 -23.405263900756836
v 32.000022888183594 9.3761510848999023 -24.905263900756836
v 32.000022888183594 9.3761510848999023 -23.405263900756836
f 132 131 129 130
g window
v 62 5.0608968734741211 -22.749860763549805
v 62 5.0608968734741211 -21.249860763549805
v 62 9.3761510848999023 -22.749860763549805
v 62 9.3761510848999023 -21.249860763549805
f 136 135 133 134
g window
v 31.999998092651367 5.0608968734741211 -9.7530012130737305
v 31.999998092651367 5.0608968734741211 -8.2530012130737305
v 31.999998092651367 9.3761510848999023 -9.7530012130737305
v 31.999998092651367 9.3761510848999023 -8.2530012130737305
f 140 139 137 138
g window
v 60.985305786132812 7.2837991714477539 -20.999969482421875
v 60.985305786132812 5.7837991714477539 -20.999969482421875
v 58.985305786132812 7.2837991714477539 -20.999969482421875
v 58.985305786132812 5.7837991714477539 -20.999969482421875
f 144 143 141 142
g window
v 33.772365570068359 7.2837991714477539 -7.9999837875366211
v 33.772365570068359 5.7837991714477539 -7.9999837875366211
v 32.223186492919922 7.2837991714477539 -7.9999837875366211
v 32.223186492919922 5.7837991714477539 -7.9999837875366211
f 148 147 145 146
g window
v 63.000022888183594 5.0608968734741211 -44.749469757080078
v 63.000022888183594 5.0608968734741211 -43.249469757080078
v 63.000022888183594 9.3761510848999023 -44.749469757080078
v 63.000022888183594 9.3761510848999023 -43.249469757080078
f 152 151 149 150
g window
v 32 5.0608968734741211 -33.750022888183594
v 32 5.0608968734741211 -32.250022888183594
v 32 9.3761510848999023 -33.750022888183594
v 32 9.3761510848999023 -32.250022888183594
f 156 155 153 154
g window
v 31.999927520751953 5.0608968734741211 -30.749950408935547
v 31.999927520751953 5.0608968734741211 -29.249950408935547
v 31.999927520751953 9.3761510848999023 -30.749950408935547
v 31.999927520751953 9.3761510848999023 -29.249950408935547
f 160 159 157 158
g window
v 51.999992370605469 5.0608968734741211 -14.292964935302734
v 51.999992370605469 5.0608968734741211 -12.792964935302734
v 51.999992370605469 9.3761510848999023 -14.292964935302734
v 51.999992370605469 9.3761510848999023 -12.792964935302734
f 164 163 161 162
g window
v 44.150947570800781 7.2837991714477539 -1.5197498214547522E-05
v 44.150947570800781 5.7837991714477539 -1.5197498214547522E-05
v 42.150947570800781 7.2837991714477539 -1.5197498214547522E-05
v 42.150947570800781 5.7837991714477539 -1.5197498214547522E-05
f 168 167 165 166
g window
v 61.9066162109375 7.2837991714477539 -45.000003814697266
v 61.9066162109375 5.7837991714477539 -45.000003814697266
v 59.9066162109375 7.2837991714477539 -45.000003814697266
v 59.9066162109375 5.7837991714477539 -45.000003814697266
f 172 171 169 170
g window
v 50.679058074951172 7.2837991714477539 -45.000003814697266
v 50.679058074951172 5.7837991714477539 -45.000003814697266
v 48.679058074951172 7.2837991714477539 -45.000003814697266
v 48.679058074951172 5.7837991714477539 -45.000003814697266
f 176 175 173 174
g window
v 46.546176910400391 7.2837991714477539 -45.000003814697266
v 46.546176910400391 5.7837991714477539 -45.000003814697266
v 44.546176910400391 7.2837991714477539 -45.000003814697266
v 44.546176910400391 5.7837991714477539 -45.000003814697266
f 180 179 177 178
g window
v 38.688266754150391 7.2837991714477539 -45.000003814697266
v 38.688266754150391 5.7837991714477539 -45.000003814697266
v 36.688266754150391 7.2837991714477539 -45.000003814697266
v 36.688266754150391 5.7837991714477539 -45.000003814697266
f 184 183 181 182
g window
v 19.999977111816406 5.0608968734741211 -24.905263900756836
v 19.999977111816406 5.0608968734741211 -23.405263900756836
v 19.999977111816406 9.3761510848999023 -24.905263900756836
v 19.999977111816406 9.3761510848999023 -23.405263900756836
f 188 186 185 187
g window
v -9.9999980926513672 5.0608968734741211 -22.749860763549805
v -9.9999980926513672 5.0608968734741211 -21.249860763549805
v -9.9999980926513672 9.3761510848999023 -22.749860763549805
v -9.9999980926513672 9.3761510848999023 -21.249860763549805
f 192 190 189 191
g window
v 20.000001907348633 5.0608968734741211 -9.7530012130737305
v 20.000001907348633 5.0608968734741211 -8.2530012130737305
v 20.000001907348633 9.3761510848999023 -9.7530012130737305
v 20.000001907348633 9.3761510848999023 -8.2530012130737305
f 196 194 193 195
g window
v -8.9853067398071289 7.2837991714477539 -20.999969482421875
v -8.9853067398071289 5.7837991714477539 -20.999969482421875
v -6.9853072166442871 7.2837991714477539 -20.999969482421875
v -6.9853072166442871 5.7837991714477539 -20.999969482421875
f 200 198 197 199
g window
v 18.227632522583008 7.2837991714477539 -7.9999837875366211
v 18.227632522583008 5.7837991714477539 -7.9999837875366211
v 19.776815414428711 7.2837991714477539 -7.9999837875366211
v 19.776815414428711 5.7837991714477539 -7.9999837875366211
f 204 202 201 203
g window
v -11.000021934509277 5.0608968734741211 -44.749469757080078
v -11.000021934509277 5.0608968734741211 -43.249469757080078
v -11.000021934509277 9.3761510848999023 -44.749469757080078
v -11.000021934509277 9.3761510848999023 -43.249469757080078
f 208 206 205 207
g window
v 20 5.0608968734741211 -33.750022888183594
v 20 5.0608968734741211 -32.250022888183594
v 20 9.3761510848999023 -33.750022888183594
v 20 9.3761510848999023 -32.250022888183594
f 212 210 209 211
g window
v 20.000072479248047 5.0608968734741211 -30.749950408935547
v 20.000072479248047 5.0608968734741211 -29.249950408935547
v 20.000072479248047 9.3761510848999023 -30.749950408935547
v 20.000072479248047 9.3761510848999023 -29.249950408935547
f 216 214 213 215
g window
v 6.0471738834166899E-06 5.0608968734741211 -14.292964935302734
v 6.0471738834166899E-06 5.0608968734741211 -12.792964935302734
v 6.0471738834166899E-06 9.3761510848999023 -14.292964935302734
v 6.0471738834166899E-06 9.3761510848999023 -12.792964935302734
f 220 218 217 219
g window
v 7.8490519523620605 7.2837991714477539 -1.5197498214547522E-05
v 7.8490519523620605 5.7837991714477539 -1.5197498214547522E-05
v 9.8490514755249023 7.2837991714477539 -1.5197498214547522E-05
v 9.8490514755249023 5.7837991714477539 -1.5197498214547522E-05
f 224 222 221 223
g window
v -9.9066171646118164 7.2837991714477539 -45.000003814697266
v -9.9066171646118164 5.7837991714477539 -45.000003814697266
v -7.9066171646118164 7.2837991714477539 -45.000003814697266
v -7.9066171646118164 5.7837991714477539 -45.000003814697266
f 228 226 225 227
g window
v 1.3209419250488281 7.2837991714477539 -45.000003814697266
v 1.3209419250488281 5.7837991714477539 -45.000003814697266
v 3.3209419250488281 7.2837991714477539 -45.000003814697266
v 3.3209419250488281 5.7837991714477539 -45.000003814697266
f 232 230 229 231
g window
v 5.4538226127624512 7.2837991714477539 -45.000003814697266
v 5.4538226127624512 5.7837991714477539 -45.000003814697266
v 7.4538226127624512 7.2837991714477539 -45.000003814697266
v 7.4538226127624512 5.7837991714477539 -45.000003814697266
f 236 234 233 235
g window
v 13.311734199523926 7.2837991714477539 -45.000003814697266
v 13.311734199523926 5.7837991714477539 -45.000003814697266
v 15.311734199523926 7.2837991714477539 -45.000003814697266
v 15.311734199523926 5.7837991714477539 -45.000003814697266
f 240 238 237 239
g window
v 20.000055313110352 0.058042824268341064 -62.249507904052734
v 20.000055313110352 0.058042824268341064 -63.749507904052734
v 20.000055313110352 4.3732972145080566 -62.249507904052734
v 20.000055313110352 4.3732972145080566 -63.749507904052734
f 244 243 241 242
g window
v 31.999944686889648 0.058042824268341064 -62.249507904052734
v 31.999944686889648 0.058042824268341064 -63.749507904052734
v 31.999944686889648 4.3732972145080566 -62.249507904052734
v 31.999944686889648 4.3732972145080566 -63.749507904052734
f 248 246 245 247
g window
v 20.000055313110352 0.058042824268341064 -39.750492095947266
v 20.000055313110352 0.058042824268341064 -38.250492095947266
v 20.000055313110352 4.3732972145080566 -39.750492095947266
v 20.000055313110352 4.3732972145080566 -38.250492095947266
f 252 250 249 251
g window
v 31.999944686889648 0.058042824268341064 -39.750492095947266
v 31.999944686889648 0.058042824268341064 -38.250492095947266
v 31.999944686889648 4.3732972145080566 -39.750492095947266
v 31.999944686889648 4.3732972145080566 -38.250492095947266
f 256 255 253 254
g window
v 32.000022888183594 0.058042824268341064 -77.094734191894531
v 32.000022888183594 0.058042824268341064 -78.594734191894531
v 32.000022888183594 4.3732972145080566 -77.094734191894531
v 32.000022888183594 4.3732972145080566 -78.594734191894531
f 260 258 257 259
g window
v 62 0.058042824268341064 -79.250137329101562
v 62 0.058042824268341064 -80.750137329101562
v 62 4.3732972145080566 -79.250137329101562
v 62 4.3732972145080566 -80.750137329101562
f 264 262 261 263
g window
v 31.999998092651367 0.058042824268341064 -92.247001647949219
v 31.999998092651367 0.058042824268341064 -93.747001647949219
v 31.999998092651367 4.3732972145080566 -92.247001647949219
v 31.999998092651367 4.3732972145080566 -93.747001647949219
f 268 266 265 267
g window
v 60.985305786132812 2.2809453010559082 -81.000030517578125
v 60.985305786132812 0.7809453010559082 -81.000030517578125
v 58.985305786132812 2.2809453010559082 -81.000030517578125
v 58.985305786132812 0.7809453010559082 -81.000030517578125
f 272 270 269 271
g window
v 33.772365570068359 2.2809453010559082 -94.000015258789062
v 33.772365570068359 0.7809453010559082 -94.000015258789062
v 32.223186492919922 2.2809453010559082 -94.000015258789062
v 32.223186492919922 0.7809453010559082 -94.000015258789062
f 276 274 273 275
g window
v 63.000022888183594 0.058042824268341064 -57.250530242919922
v 63.000022888183594 0.058042824268341064 -58.750530242919922
v 63.000022888183594 4.3732972145080566 -57.250530242919922
v 63.000022888183594 4.3732972145080566 -58.750530242919922
f 280 278 277 279
g window
v 32 0.058042824268341064 -68.249977111816406
v 32 0.058042824268341064 -69.749977111816406
v 32 4.3732972145080566 -68.249977111816406
v 32 4.3732972145080566 -69.749977111816406
f 284 282 281 283
g window
v 31.999927520751953 0.058042824268341064 -71.250053405761719
v 31.999927520751953 0.058042824268341064 -72.750053405761719
v 31.999927520751953 4.3732972145080566 -71.250053405761719
v 31.999927520751953 4.3732972145080566 -72.750053405761719
f 288 286 285 287
g window
v 51.999992370605469 0.058042824268341064 -87.707038879394531
v 51.999992370605469 0.058042824268341064 -89.207038879394531
v 51.999992370605469 4.3732972145080566 -87.707038879394531
v 51.999992370605469 4.3732972145080566 -89.207038879394531
f 292 290 289 291
g window
v 44.150947570800781 2.2809453010559082 -101.99998474121094
v 44.150947570800781 0.7809453010559082 -101.99998474121094
v 42.150947570800781 2.2809453010559082 -101.99998474121094
v 42.150947570800781 0.7809453010559082 -101.99998474121094
f 296 294 293 295
g window
v 61.9066162109375 2.2809453010559082 -56.999996185302734
v 61.9066162109375 0.7809453010559082 -56.999996185302734
v 59.9066162109375 2.2809453010559082 -56.999996185302734
v 59.9066162109375 0.7809453010559082 -56.999996185302734
f 300 298 297 299
g window
v 50.679058074951172 2.2809453010559082 -56.999996185302734
v 50.679058074951172 0.7809453010559082 -56.999996185302734
v 48.679058074951172 2.2809453010559082 -56.999996185302734
v 48.679058074951172 0.7809453010559082 -56.999996185302734
f 304 302 301 303
g window
v 46.546176910400391 2.2809453010559082 -56.999996185302734
v 46.546176910400391 0.7809453010559082 -56.999996185302734
v 44.546176910400391 2.2809453010559082 -56.999996185302734
v 44.546176910400391 0.7809453010559082 -56.999996185302734
f 308 306 305 307
g window
v 38.688266754150391 2.2809453010559082 -56.999996185302734
v 38.688266754150391 0.7809453010559082 -56.999996185302734
v 36.688266754150391 2.2809453010559082 -56.999996185302734
v 36.688266754150391 0.7809453010559082 -56.999996185302734
f 312 310 309 311
g window
v 19.999977111816406 0.058042824268341064 -77.094734191894531
v 19.999977111816406 0.058042824268341064 -78.594734191894531
v 19.999977111816406 4.3732972145080566 -77.094734191894531
v 19.999977111816406 4.3732972145080566 -78.594734191894531
f 316 315 313 314
g window
v -9.9999980926513672 0.058042824268341064 -79.250137329101562
v -9.9999980926513672 0.058042824268341064 -80.750137329101562
v -9.9999980926513672 4.3732972145080566 -79.250137329101562
v -9.9999980926513672 4.3732972145080566 -80.750137329101562
f 320 319 317 318
g window
v 20.000001907348633 0.058042824268341064 -92.247001647949219
v 20.000001907348633 0.058042824268341064 -93.747001647949219
v 20.000001907348633 4.3732972145080566 -92.247001647949219
v 20.000001907348633 4.3732972145080566 -93.747001647949219
f 324 323 321 322
g window
v -8.9853067398071289 2.2809453010559082 -81.000030517578125
v -8.9853067398071289 0.7809453010559082 -81.000030517578125
v -6.9853072166442871 2.2809453010559082 -81.000030517578125
v -6.9853072166442871 0.7809453010559082 -81.000030517578125
f 328 327 325 326
g window
v 18.227632522583008 2.2809453010559082 -94.000015258789062
v 18.227632522583008 0.7809453010559082 -94.000015258789062
v 19.776815414428711 2.2809453010559082 -94.000015258789062
v 19.776815414428711 0.7809453010559082 -94.000015258789062
f 332 331 329 330
g window
v -11.000021934509277 0.058042824268341064 -57.250530242919922
v -11.000021934509277 0.058042824268341064 -58.750530242919922
v -11.000021934509277 4.3732972145080566 -57.250530242919922
v -11.000021934509277 4.3732972145080566 -58.750530242919922
f 336 335 333 334
g window
v 20 0.058042824268341064 -68.249977111816406
v 20 0.058042824268341064 -69.749977111816406
v 20 4.3732972145080566 -68.249977111816406
v 20 4.3732972145080566 -69.749977111816406
f 340 339 337 338
g window
v 20.000072479248047 0.058042824268341064 -71.250053405761719
v 20.000072479248047 0.058042824268341064 -72.750053405761719
v 20.000072479248047 4.3732972145080566 -71.250053405761719
v 20.000072479248047 4.3732972145080566 -72.750053405761719
f 344 343 341 342
g window
v 6.0471738834166899E-06 0.058042824268341064 -87.707038879394531
v 6.0471738834166899E-06 0.058042824268341064 -89.207038879394531
v 6.0471738834166899E-06 4.3732972145080566 -87.707038879394531
v 6.0471738834166899E-06 4.3732972145080566 -89.207038879394531
f 348 347 345 346
g window
v 7.8490519523620605 2.2809453010559082 -101.99998474121094
v 7.8490519523620605 0.7809453010559082 -101.99998474121094
v 9.8490514755249023 2.2809453010559082 -101.99998474121094
v 9.8490514755249023 0.7809453010559082 -101.99998474121094
f 352 351 349 350
g window
v -9.9066171646118164 2.2809453010559082 -56.999996185302734
v -9.9066171646118164 0.7809453010559082 -56.999996185302734
v -7.9066171646118164 2.2809453010559082 -56.999996185302734
v -7.9066171646118164 0.7809453010559082 -56.999996185302734
f 356 355 353 354
g window
v 1.3209419250488281 2.2809453010559082 -56.999996185302734
v 1.3209419250488281 0.7809453010559082 -56.999996185302734
v 3.3209419250488281 2.2809453010559082 -56.999996185302734
v 3.3209419250488281 0.7809453010559082 -56.999996185302734
f 360 359 357 358
g window
v 5.4538226127624512 2.2809453010559082 -56.999996185302734
v 5.4538226127624512 0.7809453010559082 -56.999996185302734
v 7.4538226127624512 2.2809453010559082 -56.999996185302734
v 7.4538226127624512 0.7809453010559082 -56.999996185302734
f 364 363 361 362
g window
v 13.311734199523926 2.2809453010559082 -56.999996185302734
v 13.311734199523926 0.7809453010559082 -56.999996185302734
v 15.311734199523926 2.2809453010559082 -56.999996185302734
v 15.311734199523926 0.7809453010559082 -56.999996185302734
f 368 367 365 366
g window
v 32.000022888183594 0.058042824268341064 -24.905263900756836
v 32.000022888183594 0.058042824268341064 -23.405263900756836
v 32.000022888183594 4.3732972145080566 -24.905263900756836
v 32.000022888183594 4.3732972145080566 -23.405263900756836
f 372 371 369 370
g window
v 62 0.058042824268341064 -22.749860763549805
v 62 0.058042824268341064 -21.249860763549805
v 62 4.3732972145080566 -22.749860763549805
v 62 4.3732972145080566 -21.249860763549805
f 376 375 373 374
g window
v 31.999998092651367 0.058042824268341064 -9.7530012130737305
v 31.999998092651367 0.058042824268341064 -8.2530012130737305
v 31.999998092651367 4.3732972145080566 -9.7530012130737305
v 31.999998092651367 4.3732972145080566 -8.2530012130737305
f 380 379 377 378
g window
v 60.985305786132812 2.2809453010559082 -20.999969482421875
v 60.985305786132812 0.7809453010559082 -20.999969482421875
v 58.985305786132812 2.2809453010559082 -20.999969482421875
v 58.985305786132812 0.7809453010559082 -20.999969482421875
f 384 383 381 382
g window
v 33.772365570068359 2.2809453010559082 -7.9999837875366211
v 33.772365570068359 0.7809453010559082 -7.9999837875366211
v 32.223186492919922 2.2809453010559082 -7.9999837875366211
v 32.223186492919922 0.7809453010559082 -7.9999837875366211
f 388 387 385 386
g window
v 63.000022888183594 0.058042824268341064 -44.749469757080078
v 63.000022888183594 0.058042824268341064 -43.249469757080078
v 63.000022888183594 4.3732972145080566 -44.749469757080078
v 63.000022888183594 4.3732972145080566 -43.249469757080078
f 392 391 389 390
g window
v 32 0.058042824268341064 -33.750022888183594
v 32 0.058042824268341064 -32.250022888183594
v 32 4.3732972145080566 -33.750022888183594
v 32 4.3732972145080566 -32.250022888183594
f 396 395 393 394
g window
v 31.999927520751953 0.058042824268341064 -30.749950408935547
v 31.999927520751953 0.058042824268341064 -29.249950408935547
v 31.999927520751953 4.3732972145080566 -30.749950408935547
v 31.999927520751953 4.3732972145080566 -29.249950408935547
f 400 399 397 398
g window
v 51.999992370605469 0.058042824268341064 -14.292964935302734
v 51.999992370605469 0.058042824268341064 -12.792964935302734
v 51.999992370605469 4.3732972145080566 -14.292964935302734
v 51.999992370605469 4.3732972145080566 -12.792964935302734
f 404 403 401 402
g window
v 44.150947570800781 2.2809453010559082 -1.5197498214547522E-05
v 44.150947570800781 0.7809453010559082 -1.5197498214547522E-05
v 42.150947570800781 2.2809453010559082 -1.5197498214547522E-05
v 42.150947570800781 0.7809453010559082 -1.5197498214547522E-05
f 408 407 405 406
g window
v 61.9066162109375 2.2809453010559082 -45.000003814697266
v 61.9066162109375 0.7809453010559082 -45.000003814697266
v 59.9066162109375 2.2809453010559082 -45.000003814697266
v 59.9066162109375 0.7809453010559082 -45.000003814697266
f 412 411 409 410
g window
v 50.679058074951172 2.2809453010559082 -45.000003814697266
v 50.679058074951172 0.7809453010559082 -45.000003814697266
v 48.679058074951172 2.2809453010559082 -45.000003814697266
v 48.679058074951172 0.7809453010559082 -45.000003814697266
f 416 415 413 414
g window
v 46.546176910400391 2.2809453010559082 -45.000003814697266
v 46.546176910400391 0.7809453010559082 -45.000003814697266
v 44.546176910400391 2.2809453010559082 -45.000003814697266
v 44.546176910400391 0.7809453010559082 -45.000003814697266
f 420 419 417 418
g window
v 38.688266754150391 2.2809453010559082 -45.000003814697266
v 38.688266754150391 0.7809453010559082 -45.000003814697266
v 36.688266754150391 2.2809453010559082 -45.000003814697266
v 36.688266754150391 0.7809453010559082 -45.000003814697266
f 424 423 421 422
g window
v 19.999977111816406 0.058042824268341064 -24.905263900756836
v 19.999977111816406 0.058042824268341064 -23.405263900756836
v 19.999977111816406 4.3732972145080566 -24.905263900756836
v 19.999977111816406 4.3732972145080566 -23.405263900756836
f 428 426 425 427
g window
v -9.9999980926513672 0.058042824268341064 -22.749860763549805
v -9.9999980926513672 0.058042824268341064 -21.249860763549805
v -9.9999980926513672 4.3732972145080566 -22.749860763549805
v -9.9999980926513672 4.3732972145080566 -21.249860763549805
f 432 430 429 431
g window
v 20.000001907348633 0.058042824268341064 -9.7530012130737305
v 20.000001907348633 0.058042824268341064 -8.2530012130737305
v 20.000001907348633 4.3732972145080566 -9.7530012130737305
v 20.000001907348633 4.3732972145080566 -8.2530012130737305
f 436 434 433 435
g window
v -8.9853067398071289 2.2809453010559082 -20.999969482421875
v -8.9853067398071289 0.7809453010559082 -20.999969482421875
v -6.9853072166442871 2.2809453010559082 -20.999969482421875
v -6.9853072166442871 0.7809453010559082 -20.999969482421875
f 440 438 437 439
g window
v 18.227632522583008 2.2809453010559082 -7.9999837875366211
v 18.227632522583008 0.7809453010559082 -7.9999837875366211
v 19.776815414428711 2.2809453010559082 -7.9999837875366211
v 19.776815414428711 0.7809453010559082 -7.9999837875366211
f 444 442 441 443
g window
v -11.000021934509277 0.058042824268341064 -44.749469757080078
v -11.000021934509277 0.058042824268341064 -43.249469757080078
v -11.000021934509277 4.3732972145080566 -44.749469757080078
v -11.000021934509277 4.3732972145080566 -43.249469757080078
f 448 446 445 447
g window
v 20 0.058042824268341064 -33.750022888183594
v 20 0.058042824268341064 -32.250022888183594
v 20 4.3732972145080566 -33.750022888183594
v 20 4.3732972145080566 -32.250022888183594
f 452 450 449 451
g window
v 20.000072479248047 0.058042824268341064 -30.749950408935547
v 20.000072479248047 0.058042824268341064 -29.249950408935547
v 20.000072479248047 4.3732972145080566 -30.749950408935547
v 20.000072479248047 4.3732972145080566 -29.249950408935547
f 456 454 453 455
g window
v 6.0471738834166899E-06 0.058042824268341064 -14.292964935302734
v 6.0471738834166899E-06 0.058042824268341064 -12.792964935302734
v 6.0471738834166899E-06 4.3732972145080566 -14.292964935302734
v 6.0471738834166899E-06 4.3732972145080566 -12.792964935302734
f 460 458 457 459
g window
v 7.8490519523620605 2.2809453010559082 -1.5197498214547522E-05
v 7.8490519523620605 0.7809453010559082 -1.5197498214547522E-05
v 9.8490514755249023 2.2809453010559082 -1.5197498214547522E-05
v 9.8490514755249023 0.7809453010559082 -1.5197498214547522E-05
f 464 462 461 463
g window
v -9.9066171646118164 2.2809453010559082 -45.000003814697266
v -9.9066171646118164 0.7809453010559082 -45.000003814697266
v -7.9066171646118164 2.2809453010559082 -45.000003814697266
v -7.9066171646118164 0.7809453010559082 -45.000003814697266
f 468 466 465 467
g window
v 1.3209419250488281 2.2809453010559082 -45.000003814697266
v 1.3209419250488281 0.7809453010559082 -45.000003814697266
v 3.3209419250488281 2.2809453010559082 -45.000003814697266
v 3.3209419250488281 0.7809453010559082 -45.000003814697266
f 472 470 469 471
g window
v 5.4538226127624512 2.2809453010559082 -45.000003814697266
v 5.4538226127624512 0.7809453010559082 -45.000003814697266
v 7.4538226127624512 2.2809453010559082 -45.000003814697266
v 7.4538226127624512 0.7809453010559082 -45.000003814697266
f 476 474 473 475
g window
v 13.311734199523926 2.2809453010559082 -45.000003814697266
v 13.311734199523926 0.7809453010559082 -45.000003814697266
v 15.311734199523926 2.2809453010559082 -45.000003814697266
v 15.311734199523926 0.7809453010559082 -45.000003814697266
f 480 478 477 479
